G75*
G70*
%OFA0B0*%
%FSLAX24Y24*%
%IPPOS*%
%LPD*%
%AMOC8*
5,1,8,0,0,1.08239X$1,22.5*
%
%ADD10C,0.0000*%
%ADD11C,0.0030*%
%ADD12C,0.0080*%
%ADD13C,0.0060*%
%ADD14C,0.0050*%
D10*
X002640Y008640D02*
X002640Y028325D01*
X042010Y028325D01*
X042010Y008640D01*
X002640Y008640D01*
X021740Y013140D02*
X021742Y013190D01*
X021748Y013240D01*
X021758Y013290D01*
X021771Y013338D01*
X021788Y013386D01*
X021809Y013432D01*
X021833Y013476D01*
X021861Y013518D01*
X021892Y013558D01*
X021926Y013595D01*
X021963Y013630D01*
X022002Y013661D01*
X022043Y013690D01*
X022087Y013715D01*
X022133Y013737D01*
X022180Y013755D01*
X022228Y013769D01*
X022277Y013780D01*
X022327Y013787D01*
X022377Y013790D01*
X022428Y013789D01*
X022478Y013784D01*
X022528Y013775D01*
X022576Y013763D01*
X022624Y013746D01*
X022670Y013726D01*
X022715Y013703D01*
X022758Y013676D01*
X022798Y013646D01*
X022836Y013613D01*
X022871Y013577D01*
X022904Y013538D01*
X022933Y013497D01*
X022959Y013454D01*
X022982Y013409D01*
X023001Y013362D01*
X023016Y013314D01*
X023028Y013265D01*
X023036Y013215D01*
X023040Y013165D01*
X023040Y013115D01*
X023036Y013065D01*
X023028Y013015D01*
X023016Y012966D01*
X023001Y012918D01*
X022982Y012871D01*
X022959Y012826D01*
X022933Y012783D01*
X022904Y012742D01*
X022871Y012703D01*
X022836Y012667D01*
X022798Y012634D01*
X022758Y012604D01*
X022715Y012577D01*
X022670Y012554D01*
X022624Y012534D01*
X022576Y012517D01*
X022528Y012505D01*
X022478Y012496D01*
X022428Y012491D01*
X022377Y012490D01*
X022327Y012493D01*
X022277Y012500D01*
X022228Y012511D01*
X022180Y012525D01*
X022133Y012543D01*
X022087Y012565D01*
X022043Y012590D01*
X022002Y012619D01*
X021963Y012650D01*
X021926Y012685D01*
X021892Y012722D01*
X021861Y012762D01*
X021833Y012804D01*
X021809Y012848D01*
X021788Y012894D01*
X021771Y012942D01*
X021758Y012990D01*
X021748Y013040D01*
X021742Y013090D01*
X021740Y013140D01*
X010057Y024265D02*
X010059Y024307D01*
X010065Y024349D01*
X010075Y024391D01*
X010088Y024431D01*
X010106Y024470D01*
X010127Y024507D01*
X010151Y024541D01*
X010179Y024574D01*
X010209Y024604D01*
X010242Y024630D01*
X010277Y024654D01*
X010315Y024674D01*
X010354Y024690D01*
X010394Y024703D01*
X010436Y024712D01*
X010478Y024717D01*
X010521Y024718D01*
X010563Y024715D01*
X010605Y024708D01*
X010646Y024697D01*
X010686Y024682D01*
X010724Y024664D01*
X010761Y024642D01*
X010795Y024617D01*
X010827Y024589D01*
X010855Y024558D01*
X010881Y024524D01*
X010904Y024488D01*
X010923Y024451D01*
X010939Y024411D01*
X010951Y024370D01*
X010959Y024329D01*
X010963Y024286D01*
X010963Y024244D01*
X010959Y024201D01*
X010951Y024160D01*
X010939Y024119D01*
X010923Y024079D01*
X010904Y024042D01*
X010881Y024006D01*
X010855Y023972D01*
X010827Y023941D01*
X010795Y023913D01*
X010761Y023888D01*
X010724Y023866D01*
X010686Y023848D01*
X010646Y023833D01*
X010605Y023822D01*
X010563Y023815D01*
X010521Y023812D01*
X010478Y023813D01*
X010436Y023818D01*
X010394Y023827D01*
X010354Y023840D01*
X010315Y023856D01*
X010277Y023876D01*
X010242Y023900D01*
X010209Y023926D01*
X010179Y023956D01*
X010151Y023989D01*
X010127Y024023D01*
X010106Y024060D01*
X010088Y024099D01*
X010075Y024139D01*
X010065Y024181D01*
X010059Y024223D01*
X010057Y024265D01*
X005317Y024265D02*
X005319Y024307D01*
X005325Y024349D01*
X005335Y024391D01*
X005348Y024431D01*
X005366Y024470D01*
X005387Y024507D01*
X005411Y024541D01*
X005439Y024574D01*
X005469Y024604D01*
X005502Y024630D01*
X005537Y024654D01*
X005575Y024674D01*
X005614Y024690D01*
X005654Y024703D01*
X005696Y024712D01*
X005738Y024717D01*
X005781Y024718D01*
X005823Y024715D01*
X005865Y024708D01*
X005906Y024697D01*
X005946Y024682D01*
X005984Y024664D01*
X006021Y024642D01*
X006055Y024617D01*
X006087Y024589D01*
X006115Y024558D01*
X006141Y024524D01*
X006164Y024488D01*
X006183Y024451D01*
X006199Y024411D01*
X006211Y024370D01*
X006219Y024329D01*
X006223Y024286D01*
X006223Y024244D01*
X006219Y024201D01*
X006211Y024160D01*
X006199Y024119D01*
X006183Y024079D01*
X006164Y024042D01*
X006141Y024006D01*
X006115Y023972D01*
X006087Y023941D01*
X006055Y023913D01*
X006021Y023888D01*
X005984Y023866D01*
X005946Y023848D01*
X005906Y023833D01*
X005865Y023822D01*
X005823Y023815D01*
X005781Y023812D01*
X005738Y023813D01*
X005696Y023818D01*
X005654Y023827D01*
X005614Y023840D01*
X005575Y023856D01*
X005537Y023876D01*
X005502Y023900D01*
X005469Y023926D01*
X005439Y023956D01*
X005411Y023989D01*
X005387Y024023D01*
X005366Y024060D01*
X005348Y024099D01*
X005335Y024139D01*
X005325Y024181D01*
X005319Y024223D01*
X005317Y024265D01*
X003240Y027015D02*
X003242Y027065D01*
X003248Y027115D01*
X003258Y027165D01*
X003271Y027213D01*
X003288Y027261D01*
X003309Y027307D01*
X003333Y027351D01*
X003361Y027393D01*
X003392Y027433D01*
X003426Y027470D01*
X003463Y027505D01*
X003502Y027536D01*
X003543Y027565D01*
X003587Y027590D01*
X003633Y027612D01*
X003680Y027630D01*
X003728Y027644D01*
X003777Y027655D01*
X003827Y027662D01*
X003877Y027665D01*
X003928Y027664D01*
X003978Y027659D01*
X004028Y027650D01*
X004076Y027638D01*
X004124Y027621D01*
X004170Y027601D01*
X004215Y027578D01*
X004258Y027551D01*
X004298Y027521D01*
X004336Y027488D01*
X004371Y027452D01*
X004404Y027413D01*
X004433Y027372D01*
X004459Y027329D01*
X004482Y027284D01*
X004501Y027237D01*
X004516Y027189D01*
X004528Y027140D01*
X004536Y027090D01*
X004540Y027040D01*
X004540Y026990D01*
X004536Y026940D01*
X004528Y026890D01*
X004516Y026841D01*
X004501Y026793D01*
X004482Y026746D01*
X004459Y026701D01*
X004433Y026658D01*
X004404Y026617D01*
X004371Y026578D01*
X004336Y026542D01*
X004298Y026509D01*
X004258Y026479D01*
X004215Y026452D01*
X004170Y026429D01*
X004124Y026409D01*
X004076Y026392D01*
X004028Y026380D01*
X003978Y026371D01*
X003928Y026366D01*
X003877Y026365D01*
X003827Y026368D01*
X003777Y026375D01*
X003728Y026386D01*
X003680Y026400D01*
X003633Y026418D01*
X003587Y026440D01*
X003543Y026465D01*
X003502Y026494D01*
X003463Y026525D01*
X003426Y026560D01*
X003392Y026597D01*
X003361Y026637D01*
X003333Y026679D01*
X003309Y026723D01*
X003288Y026769D01*
X003271Y026817D01*
X003258Y026865D01*
X003248Y026915D01*
X003242Y026965D01*
X003240Y027015D01*
X040240Y027015D02*
X040242Y027065D01*
X040248Y027115D01*
X040258Y027165D01*
X040271Y027213D01*
X040288Y027261D01*
X040309Y027307D01*
X040333Y027351D01*
X040361Y027393D01*
X040392Y027433D01*
X040426Y027470D01*
X040463Y027505D01*
X040502Y027536D01*
X040543Y027565D01*
X040587Y027590D01*
X040633Y027612D01*
X040680Y027630D01*
X040728Y027644D01*
X040777Y027655D01*
X040827Y027662D01*
X040877Y027665D01*
X040928Y027664D01*
X040978Y027659D01*
X041028Y027650D01*
X041076Y027638D01*
X041124Y027621D01*
X041170Y027601D01*
X041215Y027578D01*
X041258Y027551D01*
X041298Y027521D01*
X041336Y027488D01*
X041371Y027452D01*
X041404Y027413D01*
X041433Y027372D01*
X041459Y027329D01*
X041482Y027284D01*
X041501Y027237D01*
X041516Y027189D01*
X041528Y027140D01*
X041536Y027090D01*
X041540Y027040D01*
X041540Y026990D01*
X041536Y026940D01*
X041528Y026890D01*
X041516Y026841D01*
X041501Y026793D01*
X041482Y026746D01*
X041459Y026701D01*
X041433Y026658D01*
X041404Y026617D01*
X041371Y026578D01*
X041336Y026542D01*
X041298Y026509D01*
X041258Y026479D01*
X041215Y026452D01*
X041170Y026429D01*
X041124Y026409D01*
X041076Y026392D01*
X041028Y026380D01*
X040978Y026371D01*
X040928Y026366D01*
X040877Y026365D01*
X040827Y026368D01*
X040777Y026375D01*
X040728Y026386D01*
X040680Y026400D01*
X040633Y026418D01*
X040587Y026440D01*
X040543Y026465D01*
X040502Y026494D01*
X040463Y026525D01*
X040426Y026560D01*
X040392Y026597D01*
X040361Y026637D01*
X040333Y026679D01*
X040309Y026723D01*
X040288Y026769D01*
X040271Y026817D01*
X040258Y026865D01*
X040248Y026915D01*
X040242Y026965D01*
X040240Y027015D01*
D11*
X039030Y018889D02*
X039030Y018642D01*
X039030Y018765D02*
X039400Y018765D01*
X039277Y018642D01*
X039339Y018520D02*
X039400Y018458D01*
X039400Y018335D01*
X039339Y018273D01*
X039277Y018273D01*
X039215Y018335D01*
X039215Y018458D01*
X039153Y018520D01*
X039092Y018520D01*
X039030Y018458D01*
X039030Y018335D01*
X039092Y018273D01*
X039030Y018152D02*
X039400Y018152D01*
X039277Y018028D01*
X039400Y017905D01*
X039030Y017905D01*
X038525Y017905D02*
X038402Y018028D01*
X038525Y018152D01*
X038155Y018152D01*
X038217Y018273D02*
X038155Y018335D01*
X038155Y018458D01*
X038217Y018520D01*
X038278Y018520D01*
X038340Y018458D01*
X038340Y018335D01*
X038402Y018273D01*
X038464Y018273D01*
X038525Y018335D01*
X038525Y018458D01*
X038464Y018520D01*
X038464Y018642D02*
X038525Y018703D01*
X038525Y018827D01*
X038464Y018889D01*
X038402Y018889D01*
X038155Y018642D01*
X038155Y018889D01*
X037650Y018827D02*
X037650Y018703D01*
X037589Y018642D01*
X037589Y018520D02*
X037650Y018458D01*
X037650Y018335D01*
X037589Y018273D01*
X037527Y018273D01*
X037465Y018335D01*
X037465Y018458D01*
X037403Y018520D01*
X037342Y018520D01*
X037280Y018458D01*
X037280Y018335D01*
X037342Y018273D01*
X037280Y018152D02*
X037650Y018152D01*
X037527Y018028D01*
X037650Y017905D01*
X037280Y017905D01*
X036775Y017905D02*
X036775Y018090D01*
X036714Y018152D01*
X036590Y018152D01*
X036528Y018090D01*
X036528Y017905D01*
X036405Y017905D02*
X036775Y017905D01*
X036528Y018028D02*
X036405Y018152D01*
X036467Y018273D02*
X036405Y018335D01*
X036405Y018458D01*
X036467Y018520D01*
X036528Y018520D01*
X036590Y018458D01*
X036590Y018335D01*
X036652Y018273D01*
X036714Y018273D01*
X036775Y018335D01*
X036775Y018458D01*
X036714Y018520D01*
X036775Y018642D02*
X036775Y018889D01*
X036775Y018765D02*
X036405Y018765D01*
X037280Y018703D02*
X037342Y018642D01*
X037280Y018703D02*
X037280Y018827D01*
X037342Y018889D01*
X037403Y018889D01*
X037465Y018827D01*
X037465Y018765D01*
X037465Y018827D02*
X037527Y018889D01*
X037589Y018889D01*
X037650Y018827D01*
X038155Y017905D02*
X038525Y017905D01*
X031650Y017967D02*
X031589Y017905D01*
X031527Y017905D01*
X031465Y017967D01*
X031465Y018090D01*
X031403Y018152D01*
X031342Y018152D01*
X031280Y018090D01*
X031280Y017967D01*
X031342Y017905D01*
X031650Y017967D02*
X031650Y018090D01*
X031589Y018152D01*
X031650Y018273D02*
X031280Y018273D01*
X031280Y018520D01*
X031280Y018642D02*
X031650Y018642D01*
X031650Y018827D01*
X031589Y018889D01*
X031465Y018889D01*
X031403Y018827D01*
X031403Y018642D01*
X030650Y018520D02*
X030280Y018520D01*
X030650Y018273D01*
X030280Y018273D01*
X030280Y018152D02*
X030280Y017905D01*
X030650Y017905D01*
X030650Y018152D01*
X030465Y018028D02*
X030465Y017905D01*
X029525Y017905D02*
X029402Y018028D01*
X029525Y018152D01*
X029155Y018152D01*
X029217Y018273D02*
X029155Y018335D01*
X029155Y018458D01*
X029217Y018520D01*
X029278Y018520D01*
X029340Y018458D01*
X029340Y018335D01*
X029402Y018273D01*
X029464Y018273D01*
X029525Y018335D01*
X029525Y018458D01*
X029464Y018520D01*
X029402Y018642D02*
X029525Y018765D01*
X029155Y018765D01*
X029155Y018642D02*
X029155Y018889D01*
X028650Y018827D02*
X028650Y018703D01*
X028589Y018642D01*
X028589Y018520D02*
X028650Y018458D01*
X028650Y018335D01*
X028589Y018273D01*
X028527Y018273D01*
X028465Y018335D01*
X028465Y018458D01*
X028403Y018520D01*
X028342Y018520D01*
X028280Y018458D01*
X028280Y018335D01*
X028342Y018273D01*
X028280Y018152D02*
X028650Y018152D01*
X028527Y018028D01*
X028650Y017905D01*
X028280Y017905D01*
X027775Y017905D02*
X027652Y018028D01*
X027775Y018152D01*
X027405Y018152D01*
X027467Y018273D02*
X027405Y018335D01*
X027405Y018458D01*
X027467Y018520D01*
X027528Y018520D01*
X027590Y018458D01*
X027590Y018335D01*
X027652Y018273D01*
X027714Y018273D01*
X027775Y018335D01*
X027775Y018458D01*
X027714Y018520D01*
X027714Y018642D02*
X027775Y018703D01*
X027775Y018827D01*
X027714Y018889D01*
X027652Y018889D01*
X027590Y018827D01*
X027528Y018889D01*
X027467Y018889D01*
X027405Y018827D01*
X027405Y018703D01*
X027467Y018642D01*
X027590Y018765D02*
X027590Y018827D01*
X026900Y018889D02*
X026900Y018642D01*
X026900Y018765D02*
X026530Y018765D01*
X026592Y018520D02*
X026530Y018458D01*
X026530Y018335D01*
X026592Y018273D01*
X026530Y018152D02*
X026653Y018028D01*
X026653Y018090D02*
X026653Y017905D01*
X026530Y017905D02*
X026900Y017905D01*
X026900Y018090D01*
X026839Y018152D01*
X026715Y018152D01*
X026653Y018090D01*
X026777Y018273D02*
X026715Y018335D01*
X026715Y018458D01*
X026653Y018520D01*
X026592Y018520D01*
X026839Y018520D02*
X026900Y018458D01*
X026900Y018335D01*
X026839Y018273D01*
X026777Y018273D01*
X027405Y017905D02*
X027775Y017905D01*
X028280Y018642D02*
X028527Y018889D01*
X028589Y018889D01*
X028650Y018827D01*
X028280Y018889D02*
X028280Y018642D01*
X029155Y017905D02*
X029525Y017905D01*
X019650Y017905D02*
X019527Y018028D01*
X019650Y018152D01*
X019280Y018152D01*
X019342Y018273D02*
X019280Y018335D01*
X019280Y018458D01*
X019342Y018520D01*
X019403Y018520D01*
X019465Y018458D01*
X019465Y018335D01*
X019527Y018273D01*
X019589Y018273D01*
X019650Y018335D01*
X019650Y018458D01*
X019589Y018520D01*
X019527Y018642D02*
X019650Y018765D01*
X019280Y018765D01*
X019280Y018642D02*
X019280Y018889D01*
X018775Y018827D02*
X018775Y018703D01*
X018714Y018642D01*
X018714Y018520D02*
X018775Y018458D01*
X018775Y018335D01*
X018714Y018273D01*
X018652Y018273D01*
X018590Y018335D01*
X018590Y018458D01*
X018528Y018520D01*
X018467Y018520D01*
X018405Y018458D01*
X018405Y018335D01*
X018467Y018273D01*
X018405Y018152D02*
X018775Y018152D01*
X018652Y018028D01*
X018775Y017905D01*
X018405Y017905D01*
X017900Y017905D02*
X017777Y018028D01*
X017900Y018152D01*
X017530Y018152D01*
X017592Y018273D02*
X017530Y018335D01*
X017530Y018458D01*
X017592Y018520D01*
X017653Y018520D01*
X017715Y018458D01*
X017715Y018335D01*
X017777Y018273D01*
X017839Y018273D01*
X017900Y018335D01*
X017900Y018458D01*
X017839Y018520D01*
X017839Y018642D02*
X017900Y018703D01*
X017900Y018827D01*
X017839Y018889D01*
X017777Y018889D01*
X017715Y018827D01*
X017653Y018889D01*
X017592Y018889D01*
X017530Y018827D01*
X017530Y018703D01*
X017592Y018642D01*
X017715Y018765D02*
X017715Y018827D01*
X018405Y018889D02*
X018405Y018642D01*
X018652Y018889D01*
X018714Y018889D01*
X018775Y018827D01*
X019280Y017905D02*
X019650Y017905D01*
X017900Y017905D02*
X017530Y017905D01*
X017025Y017905D02*
X017025Y018090D01*
X016964Y018152D01*
X016840Y018152D01*
X016778Y018090D01*
X016778Y017905D01*
X016655Y017905D02*
X017025Y017905D01*
X016778Y018028D02*
X016655Y018152D01*
X016717Y018273D02*
X016655Y018335D01*
X016655Y018458D01*
X016717Y018520D01*
X016778Y018520D01*
X016840Y018458D01*
X016840Y018335D01*
X016902Y018273D01*
X016964Y018273D01*
X017025Y018335D01*
X017025Y018458D01*
X016964Y018520D01*
X017025Y018642D02*
X017025Y018889D01*
X017025Y018765D02*
X016655Y018765D01*
X009775Y018765D02*
X009405Y018765D01*
X009405Y018642D02*
X009405Y018889D01*
X009652Y018642D02*
X009775Y018765D01*
X009714Y018520D02*
X009775Y018458D01*
X009775Y018335D01*
X009714Y018273D01*
X009652Y018273D01*
X009590Y018335D01*
X009590Y018458D01*
X009528Y018520D01*
X009467Y018520D01*
X009405Y018458D01*
X009405Y018335D01*
X009467Y018273D01*
X009405Y018152D02*
X009775Y018152D01*
X009652Y018028D01*
X009775Y017905D01*
X009405Y017905D01*
X008900Y017905D02*
X008777Y018028D01*
X008900Y018152D01*
X008530Y018152D01*
X008592Y018273D02*
X008530Y018335D01*
X008530Y018458D01*
X008592Y018520D01*
X008653Y018520D01*
X008715Y018458D01*
X008715Y018335D01*
X008777Y018273D01*
X008839Y018273D01*
X008900Y018335D01*
X008900Y018458D01*
X008839Y018520D01*
X008839Y018642D02*
X008900Y018703D01*
X008900Y018827D01*
X008839Y018889D01*
X008777Y018889D01*
X008530Y018642D01*
X008530Y018889D01*
X008025Y018827D02*
X008025Y018703D01*
X007964Y018642D01*
X007964Y018520D02*
X008025Y018458D01*
X008025Y018335D01*
X007964Y018273D01*
X007902Y018273D01*
X007840Y018335D01*
X007840Y018458D01*
X007778Y018520D01*
X007717Y018520D01*
X007655Y018458D01*
X007655Y018335D01*
X007717Y018273D01*
X007655Y018152D02*
X008025Y018152D01*
X007902Y018028D01*
X008025Y017905D01*
X007655Y017905D01*
X007150Y017905D02*
X007150Y018090D01*
X007089Y018152D01*
X006965Y018152D01*
X006903Y018090D01*
X006903Y017905D01*
X006780Y017905D02*
X007150Y017905D01*
X006903Y018028D02*
X006780Y018152D01*
X006842Y018273D02*
X006780Y018335D01*
X006780Y018458D01*
X006842Y018520D01*
X006903Y018520D01*
X006965Y018458D01*
X006965Y018335D01*
X007027Y018273D01*
X007089Y018273D01*
X007150Y018335D01*
X007150Y018458D01*
X007089Y018520D01*
X007150Y018642D02*
X007150Y018889D01*
X007150Y018765D02*
X006780Y018765D01*
X007655Y018703D02*
X007717Y018642D01*
X007655Y018703D02*
X007655Y018827D01*
X007717Y018889D01*
X007778Y018889D01*
X007840Y018827D01*
X007840Y018765D01*
X007840Y018827D02*
X007902Y018889D01*
X007964Y018889D01*
X008025Y018827D01*
X008530Y017905D02*
X008900Y017905D01*
D12*
X009034Y016830D02*
X009034Y016200D01*
X009121Y016200D02*
X009121Y016830D01*
X009122Y016830D02*
X009128Y016848D01*
X009137Y016866D01*
X009149Y016881D01*
X009165Y016893D01*
X009182Y016902D01*
X009201Y016908D01*
X009220Y016910D01*
X009240Y016908D01*
X009033Y016830D02*
X009028Y016846D01*
X009020Y016862D01*
X009010Y016876D01*
X008998Y016888D01*
X008983Y016898D01*
X008967Y016905D01*
X008950Y016909D01*
X008933Y016910D01*
X008915Y016908D01*
X008365Y016908D02*
X008345Y016910D01*
X008326Y016908D01*
X008307Y016902D01*
X008290Y016893D01*
X008274Y016881D01*
X008262Y016866D01*
X008253Y016848D01*
X008247Y016830D01*
X008246Y016830D02*
X008246Y016200D01*
X008159Y016200D02*
X008159Y016830D01*
X008158Y016830D02*
X008153Y016846D01*
X008145Y016862D01*
X008135Y016876D01*
X008123Y016888D01*
X008108Y016898D01*
X008092Y016905D01*
X008075Y016909D01*
X008058Y016910D01*
X008040Y016908D01*
X007490Y016908D02*
X007470Y016910D01*
X007451Y016908D01*
X007432Y016902D01*
X007415Y016893D01*
X007399Y016881D01*
X007387Y016866D01*
X007378Y016848D01*
X007372Y016830D01*
X007371Y016830D02*
X007371Y016200D01*
X007284Y016200D02*
X007284Y016830D01*
X007283Y016830D02*
X007278Y016846D01*
X007270Y016862D01*
X007260Y016876D01*
X007248Y016888D01*
X007233Y016898D01*
X007217Y016905D01*
X007200Y016909D01*
X007183Y016910D01*
X007165Y016908D01*
X006615Y016908D02*
X006595Y016910D01*
X006576Y016908D01*
X006557Y016902D01*
X006540Y016893D01*
X006524Y016881D01*
X006512Y016866D01*
X006503Y016848D01*
X006497Y016830D01*
X006496Y016830D02*
X006496Y016200D01*
X006497Y016200D02*
X006503Y016182D01*
X006512Y016164D01*
X006524Y016149D01*
X006540Y016137D01*
X006557Y016128D01*
X006576Y016122D01*
X006595Y016120D01*
X006615Y016122D01*
X007165Y016122D02*
X007183Y016120D01*
X007200Y016121D01*
X007217Y016125D01*
X007233Y016132D01*
X007248Y016142D01*
X007260Y016154D01*
X007270Y016168D01*
X007278Y016184D01*
X007283Y016200D01*
X007372Y016200D02*
X007378Y016182D01*
X007387Y016164D01*
X007399Y016149D01*
X007415Y016137D01*
X007432Y016128D01*
X007451Y016122D01*
X007470Y016120D01*
X007490Y016122D01*
X008040Y016122D02*
X008058Y016120D01*
X008075Y016121D01*
X008092Y016125D01*
X008108Y016132D01*
X008123Y016142D01*
X008135Y016154D01*
X008145Y016168D01*
X008153Y016184D01*
X008158Y016200D01*
X008247Y016200D02*
X008253Y016182D01*
X008262Y016164D01*
X008274Y016149D01*
X008290Y016137D01*
X008307Y016128D01*
X008326Y016122D01*
X008345Y016120D01*
X008365Y016122D01*
X008915Y016122D02*
X008933Y016120D01*
X008950Y016121D01*
X008967Y016125D01*
X008983Y016132D01*
X008998Y016142D01*
X009010Y016154D01*
X009020Y016168D01*
X009028Y016184D01*
X009033Y016200D01*
X009122Y016200D02*
X009128Y016182D01*
X009137Y016164D01*
X009149Y016149D01*
X009165Y016137D01*
X009182Y016128D01*
X009201Y016122D01*
X009220Y016120D01*
X009240Y016122D01*
X009790Y016122D02*
X009808Y016120D01*
X009825Y016121D01*
X009842Y016125D01*
X009858Y016132D01*
X009873Y016142D01*
X009885Y016154D01*
X009895Y016168D01*
X009903Y016184D01*
X009908Y016200D01*
X009909Y016200D02*
X009909Y016830D01*
X009908Y016830D02*
X009903Y016846D01*
X009895Y016862D01*
X009885Y016876D01*
X009873Y016888D01*
X009858Y016898D01*
X009842Y016905D01*
X009825Y016909D01*
X009808Y016910D01*
X009790Y016908D01*
X016339Y016830D02*
X016339Y016200D01*
X016345Y016182D01*
X016354Y016164D01*
X016366Y016149D01*
X016382Y016137D01*
X016399Y016128D01*
X016418Y016122D01*
X016437Y016120D01*
X016457Y016122D01*
X017008Y016122D02*
X017026Y016120D01*
X017043Y016121D01*
X017060Y016125D01*
X017076Y016132D01*
X017091Y016142D01*
X017103Y016154D01*
X017113Y016168D01*
X017121Y016184D01*
X017126Y016200D01*
X017126Y016830D01*
X017214Y016830D02*
X017214Y016200D01*
X017220Y016182D01*
X017229Y016164D01*
X017241Y016149D01*
X017257Y016137D01*
X017274Y016128D01*
X017293Y016122D01*
X017312Y016120D01*
X017332Y016122D01*
X017883Y016122D02*
X017901Y016120D01*
X017918Y016121D01*
X017935Y016125D01*
X017951Y016132D01*
X017966Y016142D01*
X017978Y016154D01*
X017988Y016168D01*
X017996Y016184D01*
X018001Y016200D01*
X018001Y016830D01*
X018089Y016830D02*
X018089Y016200D01*
X018095Y016182D01*
X018104Y016164D01*
X018116Y016149D01*
X018132Y016137D01*
X018149Y016128D01*
X018168Y016122D01*
X018187Y016120D01*
X018207Y016122D01*
X018758Y016122D02*
X018776Y016120D01*
X018793Y016121D01*
X018810Y016125D01*
X018826Y016132D01*
X018841Y016142D01*
X018853Y016154D01*
X018863Y016168D01*
X018871Y016184D01*
X018876Y016200D01*
X018876Y016830D01*
X018964Y016830D02*
X018964Y016200D01*
X018970Y016182D01*
X018979Y016164D01*
X018991Y016149D01*
X019007Y016137D01*
X019024Y016128D01*
X019043Y016122D01*
X019062Y016120D01*
X019082Y016122D01*
X019633Y016122D02*
X019651Y016120D01*
X019668Y016121D01*
X019685Y016125D01*
X019701Y016132D01*
X019716Y016142D01*
X019728Y016154D01*
X019738Y016168D01*
X019746Y016184D01*
X019751Y016200D01*
X019751Y016830D01*
X019746Y016846D01*
X019738Y016862D01*
X019728Y016876D01*
X019716Y016888D01*
X019701Y016898D01*
X019685Y016905D01*
X019668Y016909D01*
X019651Y016910D01*
X019633Y016908D01*
X019082Y016908D02*
X019062Y016910D01*
X019043Y016908D01*
X019024Y016902D01*
X019007Y016893D01*
X018991Y016881D01*
X018979Y016866D01*
X018970Y016848D01*
X018964Y016830D01*
X018876Y016830D02*
X018871Y016846D01*
X018863Y016862D01*
X018853Y016876D01*
X018841Y016888D01*
X018826Y016898D01*
X018810Y016905D01*
X018793Y016909D01*
X018776Y016910D01*
X018758Y016908D01*
X018207Y016908D02*
X018187Y016910D01*
X018168Y016908D01*
X018149Y016902D01*
X018132Y016893D01*
X018116Y016881D01*
X018104Y016866D01*
X018095Y016848D01*
X018089Y016830D01*
X018001Y016830D02*
X017996Y016846D01*
X017988Y016862D01*
X017978Y016876D01*
X017966Y016888D01*
X017951Y016898D01*
X017935Y016905D01*
X017918Y016909D01*
X017901Y016910D01*
X017883Y016908D01*
X017332Y016908D02*
X017312Y016910D01*
X017293Y016908D01*
X017274Y016902D01*
X017257Y016893D01*
X017241Y016881D01*
X017229Y016866D01*
X017220Y016848D01*
X017214Y016830D01*
X017126Y016830D02*
X017121Y016846D01*
X017113Y016862D01*
X017103Y016876D01*
X017091Y016888D01*
X017076Y016898D01*
X017060Y016905D01*
X017043Y016909D01*
X017026Y016910D01*
X017008Y016908D01*
X016457Y016908D02*
X016437Y016910D01*
X016418Y016908D01*
X016399Y016902D01*
X016382Y016893D01*
X016366Y016881D01*
X016354Y016866D01*
X016345Y016848D01*
X016339Y016830D01*
X026181Y016830D02*
X026181Y016200D01*
X026182Y016200D02*
X026188Y016182D01*
X026197Y016164D01*
X026209Y016149D01*
X026225Y016137D01*
X026242Y016128D01*
X026261Y016122D01*
X026280Y016120D01*
X026300Y016122D01*
X026850Y016122D02*
X026868Y016120D01*
X026885Y016121D01*
X026902Y016125D01*
X026918Y016132D01*
X026933Y016142D01*
X026945Y016154D01*
X026955Y016168D01*
X026963Y016184D01*
X026968Y016200D01*
X026969Y016200D02*
X026969Y016830D01*
X027056Y016830D02*
X027056Y016200D01*
X027057Y016200D02*
X027063Y016182D01*
X027072Y016164D01*
X027084Y016149D01*
X027100Y016137D01*
X027117Y016128D01*
X027136Y016122D01*
X027155Y016120D01*
X027175Y016122D01*
X027725Y016122D02*
X027743Y016120D01*
X027760Y016121D01*
X027777Y016125D01*
X027793Y016132D01*
X027808Y016142D01*
X027820Y016154D01*
X027830Y016168D01*
X027838Y016184D01*
X027843Y016200D01*
X027844Y016200D02*
X027844Y016830D01*
X027931Y016830D02*
X027931Y016200D01*
X027932Y016200D02*
X027938Y016182D01*
X027947Y016164D01*
X027959Y016149D01*
X027975Y016137D01*
X027992Y016128D01*
X028011Y016122D01*
X028030Y016120D01*
X028050Y016122D01*
X028600Y016122D02*
X028618Y016120D01*
X028635Y016121D01*
X028652Y016125D01*
X028668Y016132D01*
X028683Y016142D01*
X028695Y016154D01*
X028705Y016168D01*
X028713Y016184D01*
X028718Y016200D01*
X028719Y016200D02*
X028719Y016830D01*
X028806Y016830D02*
X028806Y016200D01*
X028807Y016200D02*
X028813Y016182D01*
X028822Y016164D01*
X028834Y016149D01*
X028850Y016137D01*
X028867Y016128D01*
X028886Y016122D01*
X028905Y016120D01*
X028925Y016122D01*
X029475Y016122D02*
X029493Y016120D01*
X029510Y016121D01*
X029527Y016125D01*
X029543Y016132D01*
X029558Y016142D01*
X029570Y016154D01*
X029580Y016168D01*
X029588Y016184D01*
X029593Y016200D01*
X029594Y016200D02*
X029594Y016830D01*
X029593Y016830D02*
X029588Y016846D01*
X029580Y016862D01*
X029570Y016876D01*
X029558Y016888D01*
X029543Y016898D01*
X029527Y016905D01*
X029510Y016909D01*
X029493Y016910D01*
X029475Y016908D01*
X030116Y016895D02*
X030116Y016265D01*
X030117Y016265D02*
X030123Y016247D01*
X030132Y016229D01*
X030144Y016214D01*
X030160Y016202D01*
X030177Y016193D01*
X030196Y016187D01*
X030215Y016185D01*
X030235Y016187D01*
X030785Y016187D02*
X030803Y016185D01*
X030820Y016186D01*
X030837Y016190D01*
X030853Y016197D01*
X030868Y016207D01*
X030880Y016219D01*
X030890Y016233D01*
X030898Y016249D01*
X030903Y016265D01*
X030904Y016265D02*
X030904Y016895D01*
X030903Y016895D02*
X030898Y016911D01*
X030890Y016927D01*
X030880Y016941D01*
X030868Y016953D01*
X030853Y016963D01*
X030837Y016970D01*
X030820Y016974D01*
X030803Y016975D01*
X030785Y016973D01*
X031061Y016895D02*
X031061Y016265D01*
X031062Y016265D02*
X031068Y016247D01*
X031077Y016229D01*
X031089Y016214D01*
X031105Y016202D01*
X031122Y016193D01*
X031141Y016187D01*
X031160Y016185D01*
X031180Y016187D01*
X031730Y016187D02*
X031748Y016185D01*
X031765Y016186D01*
X031782Y016190D01*
X031798Y016197D01*
X031813Y016207D01*
X031825Y016219D01*
X031835Y016233D01*
X031843Y016249D01*
X031848Y016265D01*
X031849Y016265D02*
X031849Y016895D01*
X031848Y016895D02*
X031843Y016911D01*
X031835Y016927D01*
X031825Y016941D01*
X031813Y016953D01*
X031798Y016963D01*
X031782Y016970D01*
X031765Y016974D01*
X031748Y016975D01*
X031730Y016973D01*
X031180Y016973D02*
X031160Y016975D01*
X031141Y016973D01*
X031122Y016967D01*
X031105Y016958D01*
X031089Y016946D01*
X031077Y016931D01*
X031068Y016913D01*
X031062Y016895D01*
X030235Y016973D02*
X030215Y016975D01*
X030196Y016973D01*
X030177Y016967D01*
X030160Y016958D01*
X030144Y016946D01*
X030132Y016931D01*
X030123Y016913D01*
X030117Y016895D01*
X028925Y016908D02*
X028905Y016910D01*
X028886Y016908D01*
X028867Y016902D01*
X028850Y016893D01*
X028834Y016881D01*
X028822Y016866D01*
X028813Y016848D01*
X028807Y016830D01*
X028718Y016830D02*
X028713Y016846D01*
X028705Y016862D01*
X028695Y016876D01*
X028683Y016888D01*
X028668Y016898D01*
X028652Y016905D01*
X028635Y016909D01*
X028618Y016910D01*
X028600Y016908D01*
X028050Y016908D02*
X028030Y016910D01*
X028011Y016908D01*
X027992Y016902D01*
X027975Y016893D01*
X027959Y016881D01*
X027947Y016866D01*
X027938Y016848D01*
X027932Y016830D01*
X027843Y016830D02*
X027838Y016846D01*
X027830Y016862D01*
X027820Y016876D01*
X027808Y016888D01*
X027793Y016898D01*
X027777Y016905D01*
X027760Y016909D01*
X027743Y016910D01*
X027725Y016908D01*
X027175Y016908D02*
X027155Y016910D01*
X027136Y016908D01*
X027117Y016902D01*
X027100Y016893D01*
X027084Y016881D01*
X027072Y016866D01*
X027063Y016848D01*
X027057Y016830D01*
X026968Y016830D02*
X026963Y016846D01*
X026955Y016862D01*
X026945Y016876D01*
X026933Y016888D01*
X026918Y016898D01*
X026902Y016905D01*
X026885Y016909D01*
X026868Y016910D01*
X026850Y016908D01*
X026300Y016908D02*
X026280Y016910D01*
X026261Y016908D01*
X026242Y016902D01*
X026225Y016893D01*
X026209Y016881D01*
X026197Y016866D01*
X026188Y016848D01*
X026182Y016830D01*
X036024Y016830D02*
X036024Y016200D01*
X036030Y016182D01*
X036039Y016164D01*
X036051Y016149D01*
X036067Y016137D01*
X036084Y016128D01*
X036103Y016122D01*
X036122Y016120D01*
X036142Y016122D01*
X036693Y016122D02*
X036711Y016120D01*
X036728Y016121D01*
X036745Y016125D01*
X036761Y016132D01*
X036776Y016142D01*
X036788Y016154D01*
X036798Y016168D01*
X036806Y016184D01*
X036811Y016200D01*
X036811Y016830D01*
X036899Y016830D02*
X036899Y016200D01*
X036905Y016182D01*
X036914Y016164D01*
X036926Y016149D01*
X036942Y016137D01*
X036959Y016128D01*
X036978Y016122D01*
X036997Y016120D01*
X037017Y016122D01*
X037568Y016122D02*
X037586Y016120D01*
X037603Y016121D01*
X037620Y016125D01*
X037636Y016132D01*
X037651Y016142D01*
X037663Y016154D01*
X037673Y016168D01*
X037681Y016184D01*
X037686Y016200D01*
X037686Y016830D01*
X037774Y016830D02*
X037774Y016200D01*
X037780Y016182D01*
X037789Y016164D01*
X037801Y016149D01*
X037817Y016137D01*
X037834Y016128D01*
X037853Y016122D01*
X037872Y016120D01*
X037892Y016122D01*
X038443Y016122D02*
X038461Y016120D01*
X038478Y016121D01*
X038495Y016125D01*
X038511Y016132D01*
X038526Y016142D01*
X038538Y016154D01*
X038548Y016168D01*
X038556Y016184D01*
X038561Y016200D01*
X038561Y016830D01*
X038649Y016830D02*
X038649Y016200D01*
X038655Y016182D01*
X038664Y016164D01*
X038676Y016149D01*
X038692Y016137D01*
X038709Y016128D01*
X038728Y016122D01*
X038747Y016120D01*
X038767Y016122D01*
X039318Y016122D02*
X039336Y016120D01*
X039353Y016121D01*
X039370Y016125D01*
X039386Y016132D01*
X039401Y016142D01*
X039413Y016154D01*
X039423Y016168D01*
X039431Y016184D01*
X039436Y016200D01*
X039436Y016830D01*
X039431Y016846D01*
X039423Y016862D01*
X039413Y016876D01*
X039401Y016888D01*
X039386Y016898D01*
X039370Y016905D01*
X039353Y016909D01*
X039336Y016910D01*
X039318Y016908D01*
X038767Y016908D02*
X038747Y016910D01*
X038728Y016908D01*
X038709Y016902D01*
X038692Y016893D01*
X038676Y016881D01*
X038664Y016866D01*
X038655Y016848D01*
X038649Y016830D01*
X038561Y016830D02*
X038556Y016846D01*
X038548Y016862D01*
X038538Y016876D01*
X038526Y016888D01*
X038511Y016898D01*
X038495Y016905D01*
X038478Y016909D01*
X038461Y016910D01*
X038443Y016908D01*
X037892Y016908D02*
X037872Y016910D01*
X037853Y016908D01*
X037834Y016902D01*
X037817Y016893D01*
X037801Y016881D01*
X037789Y016866D01*
X037780Y016848D01*
X037774Y016830D01*
X037686Y016830D02*
X037681Y016846D01*
X037673Y016862D01*
X037663Y016876D01*
X037651Y016888D01*
X037636Y016898D01*
X037620Y016905D01*
X037603Y016909D01*
X037586Y016910D01*
X037568Y016908D01*
X037017Y016908D02*
X036997Y016910D01*
X036978Y016908D01*
X036959Y016902D01*
X036942Y016893D01*
X036926Y016881D01*
X036914Y016866D01*
X036905Y016848D01*
X036899Y016830D01*
X036811Y016830D02*
X036806Y016846D01*
X036798Y016862D01*
X036788Y016876D01*
X036776Y016888D01*
X036761Y016898D01*
X036745Y016905D01*
X036728Y016909D01*
X036711Y016910D01*
X036693Y016908D01*
X036142Y016908D02*
X036122Y016910D01*
X036103Y016908D01*
X036084Y016902D01*
X036067Y016893D01*
X036051Y016881D01*
X036039Y016866D01*
X036030Y016848D01*
X036024Y016830D01*
D13*
X004290Y007190D02*
X003240Y007190D01*
X003240Y008390D01*
X003240Y011940D01*
X004390Y011940D01*
X004890Y011940D01*
X006390Y011940D01*
X006890Y011940D01*
X008390Y011940D01*
X008890Y011940D01*
X010390Y011940D01*
X010890Y011940D01*
X012040Y011940D01*
X012040Y008390D01*
X012040Y007190D01*
X010990Y007190D01*
X010290Y007190D01*
X008990Y007190D01*
X008290Y007190D01*
X006990Y007190D01*
X006840Y007690D01*
X006440Y007690D01*
X006290Y007190D01*
X004990Y007190D01*
X004840Y007690D01*
X004440Y007690D01*
X004290Y007190D01*
X004990Y007190D01*
X006290Y007190D02*
X006990Y007190D01*
X008290Y007190D02*
X008440Y007690D01*
X008840Y007690D01*
X008990Y007190D01*
X010290Y007190D02*
X010440Y007690D01*
X010840Y007690D01*
X010990Y007190D01*
X012040Y008390D02*
X003240Y008390D01*
X013083Y008390D02*
X013083Y007190D01*
X014133Y007190D01*
X014283Y007690D01*
X014683Y007690D01*
X014833Y007190D01*
X014133Y007190D01*
X014833Y007190D02*
X016133Y007190D01*
X016283Y007690D01*
X016683Y007690D01*
X016833Y007190D01*
X016133Y007190D01*
X016833Y007190D02*
X018133Y007190D01*
X018833Y007190D01*
X018683Y007690D01*
X018283Y007690D01*
X018133Y007190D01*
X018833Y007190D02*
X020133Y007190D01*
X020833Y007190D01*
X020683Y007690D01*
X020283Y007690D01*
X020133Y007190D01*
X020833Y007190D02*
X021883Y007190D01*
X021883Y008390D01*
X013083Y008390D01*
X013083Y011940D01*
X014233Y011940D01*
X014733Y011940D01*
X016233Y011940D01*
X016733Y011940D01*
X018233Y011940D01*
X018733Y011940D01*
X020233Y011940D01*
X020733Y011940D01*
X021883Y011940D01*
X021883Y008390D01*
X022925Y008390D02*
X022925Y007190D01*
X023975Y007190D01*
X024125Y007690D01*
X024525Y007690D01*
X024675Y007190D01*
X023975Y007190D01*
X024675Y007190D02*
X025975Y007190D01*
X026125Y007690D01*
X026525Y007690D01*
X026675Y007190D01*
X025975Y007190D01*
X026675Y007190D02*
X027975Y007190D01*
X028675Y007190D01*
X028525Y007690D01*
X028125Y007690D01*
X027975Y007190D01*
X028675Y007190D02*
X029975Y007190D01*
X030675Y007190D01*
X030525Y007690D01*
X030125Y007690D01*
X029975Y007190D01*
X030675Y007190D02*
X031725Y007190D01*
X031725Y008390D01*
X022925Y008390D01*
X022925Y011940D01*
X024075Y011940D01*
X024575Y011940D01*
X026075Y011940D01*
X026575Y011940D01*
X028075Y011940D01*
X028575Y011940D01*
X030075Y011940D01*
X030575Y011940D01*
X031725Y011940D01*
X031725Y008390D01*
X032768Y008390D02*
X032768Y007190D01*
X033818Y007190D01*
X033968Y007690D01*
X034368Y007690D01*
X034518Y007190D01*
X033818Y007190D01*
X034518Y007190D02*
X035818Y007190D01*
X035968Y007690D01*
X036368Y007690D01*
X036518Y007190D01*
X035818Y007190D01*
X036518Y007190D02*
X037818Y007190D01*
X038518Y007190D01*
X038368Y007690D01*
X037968Y007690D01*
X037818Y007190D01*
X038518Y007190D02*
X039818Y007190D01*
X040518Y007190D01*
X040368Y007690D01*
X039968Y007690D01*
X039818Y007190D01*
X040518Y007190D02*
X041568Y007190D01*
X041568Y008390D01*
X032768Y008390D01*
X032768Y011940D01*
X033918Y011940D01*
X034418Y011940D01*
X035918Y011940D01*
X036418Y011940D01*
X037918Y011940D01*
X038418Y011940D01*
X039918Y011940D01*
X040418Y011940D01*
X041568Y011940D01*
X041568Y008390D01*
D14*
X040943Y010915D02*
X040642Y010915D01*
X040792Y010915D02*
X040792Y011365D01*
X040943Y011215D01*
X039043Y011290D02*
X038967Y011365D01*
X038817Y011365D01*
X038742Y011290D01*
X038742Y011215D01*
X039043Y010915D01*
X038742Y010915D01*
X037043Y010990D02*
X036967Y010915D01*
X036817Y010915D01*
X036742Y010990D01*
X036742Y011065D01*
X036817Y011140D01*
X036892Y011140D01*
X036817Y011140D02*
X036742Y011215D01*
X036742Y011290D01*
X036817Y011365D01*
X036967Y011365D01*
X037043Y011290D01*
X035043Y011140D02*
X034742Y011140D01*
X034817Y010915D02*
X034817Y011365D01*
X035043Y011140D01*
X031100Y011215D02*
X030950Y011365D01*
X030950Y010915D01*
X031100Y010915D02*
X030800Y010915D01*
X029200Y010915D02*
X028900Y011215D01*
X028900Y011290D01*
X028975Y011365D01*
X029125Y011365D01*
X029200Y011290D01*
X029200Y010915D02*
X028900Y010915D01*
X027200Y010990D02*
X027125Y010915D01*
X026975Y010915D01*
X026900Y010990D01*
X026900Y011065D01*
X026975Y011140D01*
X027050Y011140D01*
X026975Y011140D02*
X026900Y011215D01*
X026900Y011290D01*
X026975Y011365D01*
X027125Y011365D01*
X027200Y011290D01*
X025200Y011140D02*
X024900Y011140D01*
X024975Y010915D02*
X024975Y011365D01*
X025200Y011140D01*
X021258Y011215D02*
X021107Y011365D01*
X021107Y010915D01*
X020957Y010915D02*
X021258Y010915D01*
X019358Y010915D02*
X019057Y011215D01*
X019057Y011290D01*
X019132Y011365D01*
X019282Y011365D01*
X019358Y011290D01*
X019358Y010915D02*
X019057Y010915D01*
X017358Y010990D02*
X017282Y010915D01*
X017132Y010915D01*
X017057Y010990D01*
X017057Y011065D01*
X017132Y011140D01*
X017207Y011140D01*
X017132Y011140D02*
X017057Y011215D01*
X017057Y011290D01*
X017132Y011365D01*
X017282Y011365D01*
X017358Y011290D01*
X015358Y011140D02*
X015057Y011140D01*
X015132Y010915D02*
X015132Y011365D01*
X015358Y011140D01*
X011415Y011215D02*
X011265Y011365D01*
X011265Y010915D01*
X011415Y010915D02*
X011115Y010915D01*
X009515Y010915D02*
X009215Y011215D01*
X009215Y011290D01*
X009290Y011365D01*
X009440Y011365D01*
X009515Y011290D01*
X009515Y010915D02*
X009215Y010915D01*
X007515Y010990D02*
X007440Y010915D01*
X007290Y010915D01*
X007215Y010990D01*
X007215Y011065D01*
X007290Y011140D01*
X007365Y011140D01*
X007290Y011140D02*
X007215Y011215D01*
X007215Y011290D01*
X007290Y011365D01*
X007440Y011365D01*
X007515Y011290D01*
X005515Y011140D02*
X005215Y011140D01*
X005290Y010915D02*
X005290Y011365D01*
X005515Y011140D01*
M02*
