G75*
G70*
%OFA0B0*%
%FSLAX24Y24*%
%IPPOS*%
%LPD*%
%AMOC8*
5,1,8,0,0,1.08239X$1,22.5*
%
%ADD10C,0.0000*%
%ADD11C,0.1340*%
%ADD12R,0.0540X0.0290*%
%ADD13C,0.0865*%
%ADD14OC8,0.0601*%
%ADD15C,0.0946*%
%ADD16C,0.0640*%
%ADD17OC8,0.0640*%
D10*
X002640Y008640D02*
X002640Y028325D01*
X042010Y028325D01*
X042010Y008640D01*
X002640Y008640D01*
X021740Y013140D02*
X021742Y013190D01*
X021748Y013240D01*
X021758Y013290D01*
X021771Y013338D01*
X021788Y013386D01*
X021809Y013432D01*
X021833Y013476D01*
X021861Y013518D01*
X021892Y013558D01*
X021926Y013595D01*
X021963Y013630D01*
X022002Y013661D01*
X022043Y013690D01*
X022087Y013715D01*
X022133Y013737D01*
X022180Y013755D01*
X022228Y013769D01*
X022277Y013780D01*
X022327Y013787D01*
X022377Y013790D01*
X022428Y013789D01*
X022478Y013784D01*
X022528Y013775D01*
X022576Y013763D01*
X022624Y013746D01*
X022670Y013726D01*
X022715Y013703D01*
X022758Y013676D01*
X022798Y013646D01*
X022836Y013613D01*
X022871Y013577D01*
X022904Y013538D01*
X022933Y013497D01*
X022959Y013454D01*
X022982Y013409D01*
X023001Y013362D01*
X023016Y013314D01*
X023028Y013265D01*
X023036Y013215D01*
X023040Y013165D01*
X023040Y013115D01*
X023036Y013065D01*
X023028Y013015D01*
X023016Y012966D01*
X023001Y012918D01*
X022982Y012871D01*
X022959Y012826D01*
X022933Y012783D01*
X022904Y012742D01*
X022871Y012703D01*
X022836Y012667D01*
X022798Y012634D01*
X022758Y012604D01*
X022715Y012577D01*
X022670Y012554D01*
X022624Y012534D01*
X022576Y012517D01*
X022528Y012505D01*
X022478Y012496D01*
X022428Y012491D01*
X022377Y012490D01*
X022327Y012493D01*
X022277Y012500D01*
X022228Y012511D01*
X022180Y012525D01*
X022133Y012543D01*
X022087Y012565D01*
X022043Y012590D01*
X022002Y012619D01*
X021963Y012650D01*
X021926Y012685D01*
X021892Y012722D01*
X021861Y012762D01*
X021833Y012804D01*
X021809Y012848D01*
X021788Y012894D01*
X021771Y012942D01*
X021758Y012990D01*
X021748Y013040D01*
X021742Y013090D01*
X021740Y013140D01*
X010057Y024265D02*
X010059Y024307D01*
X010065Y024349D01*
X010075Y024391D01*
X010088Y024431D01*
X010106Y024470D01*
X010127Y024507D01*
X010151Y024541D01*
X010179Y024574D01*
X010209Y024604D01*
X010242Y024630D01*
X010277Y024654D01*
X010315Y024674D01*
X010354Y024690D01*
X010394Y024703D01*
X010436Y024712D01*
X010478Y024717D01*
X010521Y024718D01*
X010563Y024715D01*
X010605Y024708D01*
X010646Y024697D01*
X010686Y024682D01*
X010724Y024664D01*
X010761Y024642D01*
X010795Y024617D01*
X010827Y024589D01*
X010855Y024558D01*
X010881Y024524D01*
X010904Y024488D01*
X010923Y024451D01*
X010939Y024411D01*
X010951Y024370D01*
X010959Y024329D01*
X010963Y024286D01*
X010963Y024244D01*
X010959Y024201D01*
X010951Y024160D01*
X010939Y024119D01*
X010923Y024079D01*
X010904Y024042D01*
X010881Y024006D01*
X010855Y023972D01*
X010827Y023941D01*
X010795Y023913D01*
X010761Y023888D01*
X010724Y023866D01*
X010686Y023848D01*
X010646Y023833D01*
X010605Y023822D01*
X010563Y023815D01*
X010521Y023812D01*
X010478Y023813D01*
X010436Y023818D01*
X010394Y023827D01*
X010354Y023840D01*
X010315Y023856D01*
X010277Y023876D01*
X010242Y023900D01*
X010209Y023926D01*
X010179Y023956D01*
X010151Y023989D01*
X010127Y024023D01*
X010106Y024060D01*
X010088Y024099D01*
X010075Y024139D01*
X010065Y024181D01*
X010059Y024223D01*
X010057Y024265D01*
X005317Y024265D02*
X005319Y024307D01*
X005325Y024349D01*
X005335Y024391D01*
X005348Y024431D01*
X005366Y024470D01*
X005387Y024507D01*
X005411Y024541D01*
X005439Y024574D01*
X005469Y024604D01*
X005502Y024630D01*
X005537Y024654D01*
X005575Y024674D01*
X005614Y024690D01*
X005654Y024703D01*
X005696Y024712D01*
X005738Y024717D01*
X005781Y024718D01*
X005823Y024715D01*
X005865Y024708D01*
X005906Y024697D01*
X005946Y024682D01*
X005984Y024664D01*
X006021Y024642D01*
X006055Y024617D01*
X006087Y024589D01*
X006115Y024558D01*
X006141Y024524D01*
X006164Y024488D01*
X006183Y024451D01*
X006199Y024411D01*
X006211Y024370D01*
X006219Y024329D01*
X006223Y024286D01*
X006223Y024244D01*
X006219Y024201D01*
X006211Y024160D01*
X006199Y024119D01*
X006183Y024079D01*
X006164Y024042D01*
X006141Y024006D01*
X006115Y023972D01*
X006087Y023941D01*
X006055Y023913D01*
X006021Y023888D01*
X005984Y023866D01*
X005946Y023848D01*
X005906Y023833D01*
X005865Y023822D01*
X005823Y023815D01*
X005781Y023812D01*
X005738Y023813D01*
X005696Y023818D01*
X005654Y023827D01*
X005614Y023840D01*
X005575Y023856D01*
X005537Y023876D01*
X005502Y023900D01*
X005469Y023926D01*
X005439Y023956D01*
X005411Y023989D01*
X005387Y024023D01*
X005366Y024060D01*
X005348Y024099D01*
X005335Y024139D01*
X005325Y024181D01*
X005319Y024223D01*
X005317Y024265D01*
X003240Y027015D02*
X003242Y027065D01*
X003248Y027115D01*
X003258Y027165D01*
X003271Y027213D01*
X003288Y027261D01*
X003309Y027307D01*
X003333Y027351D01*
X003361Y027393D01*
X003392Y027433D01*
X003426Y027470D01*
X003463Y027505D01*
X003502Y027536D01*
X003543Y027565D01*
X003587Y027590D01*
X003633Y027612D01*
X003680Y027630D01*
X003728Y027644D01*
X003777Y027655D01*
X003827Y027662D01*
X003877Y027665D01*
X003928Y027664D01*
X003978Y027659D01*
X004028Y027650D01*
X004076Y027638D01*
X004124Y027621D01*
X004170Y027601D01*
X004215Y027578D01*
X004258Y027551D01*
X004298Y027521D01*
X004336Y027488D01*
X004371Y027452D01*
X004404Y027413D01*
X004433Y027372D01*
X004459Y027329D01*
X004482Y027284D01*
X004501Y027237D01*
X004516Y027189D01*
X004528Y027140D01*
X004536Y027090D01*
X004540Y027040D01*
X004540Y026990D01*
X004536Y026940D01*
X004528Y026890D01*
X004516Y026841D01*
X004501Y026793D01*
X004482Y026746D01*
X004459Y026701D01*
X004433Y026658D01*
X004404Y026617D01*
X004371Y026578D01*
X004336Y026542D01*
X004298Y026509D01*
X004258Y026479D01*
X004215Y026452D01*
X004170Y026429D01*
X004124Y026409D01*
X004076Y026392D01*
X004028Y026380D01*
X003978Y026371D01*
X003928Y026366D01*
X003877Y026365D01*
X003827Y026368D01*
X003777Y026375D01*
X003728Y026386D01*
X003680Y026400D01*
X003633Y026418D01*
X003587Y026440D01*
X003543Y026465D01*
X003502Y026494D01*
X003463Y026525D01*
X003426Y026560D01*
X003392Y026597D01*
X003361Y026637D01*
X003333Y026679D01*
X003309Y026723D01*
X003288Y026769D01*
X003271Y026817D01*
X003258Y026865D01*
X003248Y026915D01*
X003242Y026965D01*
X003240Y027015D01*
X040240Y027015D02*
X040242Y027065D01*
X040248Y027115D01*
X040258Y027165D01*
X040271Y027213D01*
X040288Y027261D01*
X040309Y027307D01*
X040333Y027351D01*
X040361Y027393D01*
X040392Y027433D01*
X040426Y027470D01*
X040463Y027505D01*
X040502Y027536D01*
X040543Y027565D01*
X040587Y027590D01*
X040633Y027612D01*
X040680Y027630D01*
X040728Y027644D01*
X040777Y027655D01*
X040827Y027662D01*
X040877Y027665D01*
X040928Y027664D01*
X040978Y027659D01*
X041028Y027650D01*
X041076Y027638D01*
X041124Y027621D01*
X041170Y027601D01*
X041215Y027578D01*
X041258Y027551D01*
X041298Y027521D01*
X041336Y027488D01*
X041371Y027452D01*
X041404Y027413D01*
X041433Y027372D01*
X041459Y027329D01*
X041482Y027284D01*
X041501Y027237D01*
X041516Y027189D01*
X041528Y027140D01*
X041536Y027090D01*
X041540Y027040D01*
X041540Y026990D01*
X041536Y026940D01*
X041528Y026890D01*
X041516Y026841D01*
X041501Y026793D01*
X041482Y026746D01*
X041459Y026701D01*
X041433Y026658D01*
X041404Y026617D01*
X041371Y026578D01*
X041336Y026542D01*
X041298Y026509D01*
X041258Y026479D01*
X041215Y026452D01*
X041170Y026429D01*
X041124Y026409D01*
X041076Y026392D01*
X041028Y026380D01*
X040978Y026371D01*
X040928Y026366D01*
X040877Y026365D01*
X040827Y026368D01*
X040777Y026375D01*
X040728Y026386D01*
X040680Y026400D01*
X040633Y026418D01*
X040587Y026440D01*
X040543Y026465D01*
X040502Y026494D01*
X040463Y026525D01*
X040426Y026560D01*
X040392Y026597D01*
X040361Y026637D01*
X040333Y026679D01*
X040309Y026723D01*
X040288Y026769D01*
X040271Y026817D01*
X040258Y026865D01*
X040248Y026915D01*
X040242Y026965D01*
X040240Y027015D01*
D11*
X040890Y027015D03*
X022390Y013140D03*
X003890Y027015D03*
D12*
X006890Y016692D03*
X006890Y016338D03*
X007765Y016338D03*
X007765Y016692D03*
X008640Y016692D03*
X008640Y016338D03*
X009515Y016338D03*
X009515Y016692D03*
X016733Y016692D03*
X016733Y016338D03*
X017608Y016338D03*
X017608Y016692D03*
X018483Y016692D03*
X018483Y016338D03*
X019358Y016338D03*
X019358Y016692D03*
X026575Y016692D03*
X026575Y016338D03*
X027450Y016338D03*
X027450Y016692D03*
X028325Y016692D03*
X028325Y016338D03*
X029200Y016338D03*
X029200Y016692D03*
X030510Y016757D03*
X030510Y016403D03*
X031455Y016403D03*
X031455Y016757D03*
X036418Y016692D03*
X036418Y016338D03*
X037293Y016338D03*
X037293Y016692D03*
X038168Y016692D03*
X038168Y016338D03*
X039043Y016338D03*
X039043Y016692D03*
D13*
X038168Y011553D02*
X038168Y010728D01*
X036168Y010728D02*
X036168Y011553D01*
X034168Y011553D02*
X034168Y010728D01*
X030325Y010728D02*
X030325Y011553D01*
X028325Y011553D02*
X028325Y010728D01*
X026325Y010728D02*
X026325Y011553D01*
X024325Y011553D02*
X024325Y010728D01*
X020483Y010728D02*
X020483Y011553D01*
X018483Y011553D02*
X018483Y010728D01*
X016483Y010728D02*
X016483Y011553D01*
X014483Y011553D02*
X014483Y010728D01*
X010640Y010728D02*
X010640Y011553D01*
X008640Y011553D02*
X008640Y010728D01*
X006640Y010728D02*
X006640Y011553D01*
X004640Y011553D02*
X004640Y010728D01*
X031890Y024103D02*
X031890Y024928D01*
X033890Y024928D02*
X033890Y024103D01*
X035890Y024103D02*
X035890Y024928D01*
X037890Y024928D02*
X037890Y024103D01*
X040168Y011553D02*
X040168Y010728D01*
D14*
X008632Y022411D03*
X007648Y022411D03*
X007648Y023198D03*
X008632Y023198D03*
D15*
X010510Y024265D03*
X005770Y024265D03*
D16*
X029340Y024515D02*
X029940Y024515D01*
X029940Y023515D02*
X029340Y023515D01*
X029340Y025515D02*
X029940Y025515D01*
X029940Y026515D02*
X029340Y026515D01*
X029340Y027515D02*
X029940Y027515D01*
D17*
X027140Y027515D03*
X026140Y027515D03*
X025140Y027515D03*
X024140Y027515D03*
X023140Y027515D03*
X023140Y026515D03*
X024140Y026515D03*
X025140Y026515D03*
X026140Y026515D03*
X027140Y026515D03*
X014890Y026140D03*
X013890Y026140D03*
X012890Y026140D03*
X012890Y027140D03*
X013890Y027140D03*
X014890Y027140D03*
X015140Y021265D03*
X014140Y021265D03*
X013140Y021265D03*
X012140Y021265D03*
X011140Y021265D03*
X011140Y020265D03*
X012140Y020265D03*
X013140Y020265D03*
X014140Y020265D03*
X015140Y020265D03*
M02*
