%
M48
M72
T01C0.0150
T02C0.0200
T03C0.0236
T04C0.0374
T05C0.0400
T06C0.0550
T07C0.0906
T08C0.1300
%
T01
X7240Y15015
X7240Y15390
X7240Y15790
X7640Y15790
X7640Y15390
X7640Y14990
X8040Y14990
X8040Y15390
X8040Y15790
X17083Y15790
X17483Y15790
X17883Y15790
X17883Y15390
X17883Y14990
X17483Y14990
X17483Y15390
X17083Y15390
X17083Y15015
X26925Y15015
X26925Y15390
X26925Y15790
X27325Y15790
X27325Y15390
X27325Y14990
X27725Y14990
X27725Y15390
X27725Y15790
X36768Y15790
X37168Y15790
X37568Y15790
X37568Y15390
X37568Y14990
X37168Y14990
X37168Y15390
X36768Y15390
X36768Y15015
T02
X36168Y14140
X35918Y13765
X35418Y13015
X35418Y12515
X33168Y12765
X32668Y12765
X31825Y12765
X31325Y12765
X29075Y12515
X29075Y13015
X28575Y13765
X28325Y14140
X29075Y14890
X31575Y15015
X32075Y15015
X32543Y15015
X35168Y15390
X35418Y17140
X34418Y17515
X37418Y19140
X40418Y17015
X40418Y15265
X38918Y14890
X38168Y14140
X38418Y13765
X38918Y13015
X38918Y12515
X41168Y12765
X41668Y12765
X27575Y19140
X25575Y17140
X24575Y17765
X23325Y16015
X22825Y16015
X21483Y16015
X20983Y16015
X19233Y14890
X18483Y14140
X18733Y13765
X19233Y13015
X19233Y12515
X21483Y12015
X21983Y12015
X22825Y12015
X23325Y12015
X25575Y12515
X25575Y13015
X26075Y13765
X26325Y14140
X25325Y15390
X17733Y19140
X15733Y17140
X14733Y17765
X11515Y17140
X10515Y17140
X7890Y19140
X5890Y17140
X4890Y17765
X5640Y15390
X6640Y14140
X6390Y13765
X5890Y13015
X5890Y12515
X3640Y12765
X3140Y12765
X3140Y15015
X3640Y15015
X8640Y14140
X8890Y13765
X9390Y13015
X9390Y12515
X11640Y12765
X12140Y12765
X12983Y12765
X13483Y12765
X15733Y12515
X15733Y13015
X16233Y13765
X16483Y14140
X15483Y15390
X13483Y15015
X12983Y15015
X11640Y15015
X11140Y15015
X9390Y14890
X12825Y23765
T03
X9515Y22640
X9390Y21515
X11015Y19265
X11640Y19140
X11640Y18015
X9265Y17390
X8640Y17390
X8015Y17390
X7390Y17390
X6515Y17140
X5390Y15890
X4640Y17015
X10015Y14890
X10890Y15890
X14483Y16890
X15233Y15890
X16358Y17140
X17233Y17390
X17858Y17390
X18483Y17390
X19108Y17390
X21233Y19358
X23140Y21140
X21265Y22765
X20640Y22765
X20265Y22265
X20890Y23515
X20390Y25015
X18640Y23015
X18640Y22390
X16890Y22265
X16390Y21140
X16890Y20890
X24325Y16890
X25075Y15890
X26200Y17140
X27075Y17390
X27700Y17390
X28325Y17390
X28950Y17390
X30515Y17265
X31390Y17265
X31390Y18640
X34168Y16890
X34918Y15890
X36043Y17140
X36918Y17390
X37543Y17390
X38168Y17390
X38793Y17390
X39543Y14890
X41265Y19890
X30515Y15265
X29700Y14890
X19858Y14890
X28015Y24265
T04
X8632Y23198
X7648Y23198
X7648Y22411
X8632Y22411
T05
X11140Y21265
X12140Y21265
X13140Y21265
X14140Y21265
X15140Y21265
X15140Y20265
X14140Y20265
X13140Y20265
X12140Y20265
X11140Y20265
X12890Y26140
X13890Y26140
X14890Y26140
X14890Y27140
X13890Y27140
X12890Y27140
X23140Y27515
X24140Y27515
X25140Y27515
X26140Y27515
X27140Y27515
X27140Y26515
X26140Y26515
X25140Y26515
X24140Y26515
X23140Y26515
X29640Y26515
X29640Y25515
X29640Y24515
X29640Y23515
X29640Y27515
T06
X4640Y11140
X6640Y11140
X8640Y11140
X10640Y11140
X14483Y11140
X16483Y11140
X18483Y11140
X20483Y11140
X24325Y11140
X26325Y11140
X28325Y11140
X30325Y11140
X34168Y11140
X36168Y11140
X38168Y11140
X40168Y11140
X37890Y24515
X35890Y24515
X33890Y24515
X31890Y24515
T07
X10510Y24265
X5770Y24265
T08
X3890Y27015
X22390Y13140
X40890Y27015
M30
