G75*
G70*
%OFA0B0*%
%FSLAX24Y24*%
%IPPOS*%
%LPD*%
%AMOC8*
5,1,8,0,0,1.08239X$1,22.5*
%
%ADD10C,0.0000*%
%ADD11R,0.0453X0.0118*%
%ADD12R,0.0118X0.0453*%
%ADD13R,0.1240X0.1240*%
%ADD14R,0.0394X0.0354*%
%ADD15R,0.0433X0.0354*%
%ADD16R,0.0394X0.0433*%
%ADD17R,0.0433X0.0394*%
%ADD18C,0.0500*%
%ADD19C,0.0825*%
%ADD20R,0.0709X0.1063*%
%ADD21R,0.0315X0.0472*%
%ADD22R,0.0472X0.0472*%
%ADD23OC8,0.0561*%
%ADD24R,0.0472X0.0315*%
%ADD25R,0.0480X0.0880*%
%ADD26R,0.1417X0.0866*%
%ADD27R,0.1535X0.0630*%
%ADD28C,0.0600*%
%ADD29R,0.0197X0.0591*%
%ADD30R,0.0591X0.0197*%
%ADD31R,0.0551X0.0472*%
%ADD32OC8,0.0600*%
%ADD33C,0.0100*%
%ADD34C,0.0240*%
%ADD35C,0.0320*%
%ADD36C,0.0320*%
%ADD37C,0.0160*%
%ADD38C,0.0356*%
%ADD39C,0.0120*%
%ADD40C,0.0500*%
%ADD41C,0.0080*%
%ADD42C,0.1000*%
%ADD43C,0.0270*%
D10*
X002640Y008640D02*
X002640Y028325D01*
X042010Y028325D01*
X042010Y008640D01*
X002640Y008640D01*
X021740Y013140D02*
X021742Y013190D01*
X021748Y013240D01*
X021758Y013290D01*
X021771Y013338D01*
X021788Y013386D01*
X021809Y013432D01*
X021833Y013476D01*
X021861Y013518D01*
X021892Y013558D01*
X021926Y013595D01*
X021963Y013630D01*
X022002Y013661D01*
X022043Y013690D01*
X022087Y013715D01*
X022133Y013737D01*
X022180Y013755D01*
X022228Y013769D01*
X022277Y013780D01*
X022327Y013787D01*
X022377Y013790D01*
X022428Y013789D01*
X022478Y013784D01*
X022528Y013775D01*
X022576Y013763D01*
X022624Y013746D01*
X022670Y013726D01*
X022715Y013703D01*
X022758Y013676D01*
X022798Y013646D01*
X022836Y013613D01*
X022871Y013577D01*
X022904Y013538D01*
X022933Y013497D01*
X022959Y013454D01*
X022982Y013409D01*
X023001Y013362D01*
X023016Y013314D01*
X023028Y013265D01*
X023036Y013215D01*
X023040Y013165D01*
X023040Y013115D01*
X023036Y013065D01*
X023028Y013015D01*
X023016Y012966D01*
X023001Y012918D01*
X022982Y012871D01*
X022959Y012826D01*
X022933Y012783D01*
X022904Y012742D01*
X022871Y012703D01*
X022836Y012667D01*
X022798Y012634D01*
X022758Y012604D01*
X022715Y012577D01*
X022670Y012554D01*
X022624Y012534D01*
X022576Y012517D01*
X022528Y012505D01*
X022478Y012496D01*
X022428Y012491D01*
X022377Y012490D01*
X022327Y012493D01*
X022277Y012500D01*
X022228Y012511D01*
X022180Y012525D01*
X022133Y012543D01*
X022087Y012565D01*
X022043Y012590D01*
X022002Y012619D01*
X021963Y012650D01*
X021926Y012685D01*
X021892Y012722D01*
X021861Y012762D01*
X021833Y012804D01*
X021809Y012848D01*
X021788Y012894D01*
X021771Y012942D01*
X021758Y012990D01*
X021748Y013040D01*
X021742Y013090D01*
X021740Y013140D01*
X010057Y024265D02*
X010059Y024307D01*
X010065Y024349D01*
X010075Y024391D01*
X010088Y024431D01*
X010106Y024470D01*
X010127Y024507D01*
X010151Y024541D01*
X010179Y024574D01*
X010209Y024604D01*
X010242Y024630D01*
X010277Y024654D01*
X010315Y024674D01*
X010354Y024690D01*
X010394Y024703D01*
X010436Y024712D01*
X010478Y024717D01*
X010521Y024718D01*
X010563Y024715D01*
X010605Y024708D01*
X010646Y024697D01*
X010686Y024682D01*
X010724Y024664D01*
X010761Y024642D01*
X010795Y024617D01*
X010827Y024589D01*
X010855Y024558D01*
X010881Y024524D01*
X010904Y024488D01*
X010923Y024451D01*
X010939Y024411D01*
X010951Y024370D01*
X010959Y024329D01*
X010963Y024286D01*
X010963Y024244D01*
X010959Y024201D01*
X010951Y024160D01*
X010939Y024119D01*
X010923Y024079D01*
X010904Y024042D01*
X010881Y024006D01*
X010855Y023972D01*
X010827Y023941D01*
X010795Y023913D01*
X010761Y023888D01*
X010724Y023866D01*
X010686Y023848D01*
X010646Y023833D01*
X010605Y023822D01*
X010563Y023815D01*
X010521Y023812D01*
X010478Y023813D01*
X010436Y023818D01*
X010394Y023827D01*
X010354Y023840D01*
X010315Y023856D01*
X010277Y023876D01*
X010242Y023900D01*
X010209Y023926D01*
X010179Y023956D01*
X010151Y023989D01*
X010127Y024023D01*
X010106Y024060D01*
X010088Y024099D01*
X010075Y024139D01*
X010065Y024181D01*
X010059Y024223D01*
X010057Y024265D01*
X005317Y024265D02*
X005319Y024307D01*
X005325Y024349D01*
X005335Y024391D01*
X005348Y024431D01*
X005366Y024470D01*
X005387Y024507D01*
X005411Y024541D01*
X005439Y024574D01*
X005469Y024604D01*
X005502Y024630D01*
X005537Y024654D01*
X005575Y024674D01*
X005614Y024690D01*
X005654Y024703D01*
X005696Y024712D01*
X005738Y024717D01*
X005781Y024718D01*
X005823Y024715D01*
X005865Y024708D01*
X005906Y024697D01*
X005946Y024682D01*
X005984Y024664D01*
X006021Y024642D01*
X006055Y024617D01*
X006087Y024589D01*
X006115Y024558D01*
X006141Y024524D01*
X006164Y024488D01*
X006183Y024451D01*
X006199Y024411D01*
X006211Y024370D01*
X006219Y024329D01*
X006223Y024286D01*
X006223Y024244D01*
X006219Y024201D01*
X006211Y024160D01*
X006199Y024119D01*
X006183Y024079D01*
X006164Y024042D01*
X006141Y024006D01*
X006115Y023972D01*
X006087Y023941D01*
X006055Y023913D01*
X006021Y023888D01*
X005984Y023866D01*
X005946Y023848D01*
X005906Y023833D01*
X005865Y023822D01*
X005823Y023815D01*
X005781Y023812D01*
X005738Y023813D01*
X005696Y023818D01*
X005654Y023827D01*
X005614Y023840D01*
X005575Y023856D01*
X005537Y023876D01*
X005502Y023900D01*
X005469Y023926D01*
X005439Y023956D01*
X005411Y023989D01*
X005387Y024023D01*
X005366Y024060D01*
X005348Y024099D01*
X005335Y024139D01*
X005325Y024181D01*
X005319Y024223D01*
X005317Y024265D01*
X003240Y027015D02*
X003242Y027065D01*
X003248Y027115D01*
X003258Y027165D01*
X003271Y027213D01*
X003288Y027261D01*
X003309Y027307D01*
X003333Y027351D01*
X003361Y027393D01*
X003392Y027433D01*
X003426Y027470D01*
X003463Y027505D01*
X003502Y027536D01*
X003543Y027565D01*
X003587Y027590D01*
X003633Y027612D01*
X003680Y027630D01*
X003728Y027644D01*
X003777Y027655D01*
X003827Y027662D01*
X003877Y027665D01*
X003928Y027664D01*
X003978Y027659D01*
X004028Y027650D01*
X004076Y027638D01*
X004124Y027621D01*
X004170Y027601D01*
X004215Y027578D01*
X004258Y027551D01*
X004298Y027521D01*
X004336Y027488D01*
X004371Y027452D01*
X004404Y027413D01*
X004433Y027372D01*
X004459Y027329D01*
X004482Y027284D01*
X004501Y027237D01*
X004516Y027189D01*
X004528Y027140D01*
X004536Y027090D01*
X004540Y027040D01*
X004540Y026990D01*
X004536Y026940D01*
X004528Y026890D01*
X004516Y026841D01*
X004501Y026793D01*
X004482Y026746D01*
X004459Y026701D01*
X004433Y026658D01*
X004404Y026617D01*
X004371Y026578D01*
X004336Y026542D01*
X004298Y026509D01*
X004258Y026479D01*
X004215Y026452D01*
X004170Y026429D01*
X004124Y026409D01*
X004076Y026392D01*
X004028Y026380D01*
X003978Y026371D01*
X003928Y026366D01*
X003877Y026365D01*
X003827Y026368D01*
X003777Y026375D01*
X003728Y026386D01*
X003680Y026400D01*
X003633Y026418D01*
X003587Y026440D01*
X003543Y026465D01*
X003502Y026494D01*
X003463Y026525D01*
X003426Y026560D01*
X003392Y026597D01*
X003361Y026637D01*
X003333Y026679D01*
X003309Y026723D01*
X003288Y026769D01*
X003271Y026817D01*
X003258Y026865D01*
X003248Y026915D01*
X003242Y026965D01*
X003240Y027015D01*
X040240Y027015D02*
X040242Y027065D01*
X040248Y027115D01*
X040258Y027165D01*
X040271Y027213D01*
X040288Y027261D01*
X040309Y027307D01*
X040333Y027351D01*
X040361Y027393D01*
X040392Y027433D01*
X040426Y027470D01*
X040463Y027505D01*
X040502Y027536D01*
X040543Y027565D01*
X040587Y027590D01*
X040633Y027612D01*
X040680Y027630D01*
X040728Y027644D01*
X040777Y027655D01*
X040827Y027662D01*
X040877Y027665D01*
X040928Y027664D01*
X040978Y027659D01*
X041028Y027650D01*
X041076Y027638D01*
X041124Y027621D01*
X041170Y027601D01*
X041215Y027578D01*
X041258Y027551D01*
X041298Y027521D01*
X041336Y027488D01*
X041371Y027452D01*
X041404Y027413D01*
X041433Y027372D01*
X041459Y027329D01*
X041482Y027284D01*
X041501Y027237D01*
X041516Y027189D01*
X041528Y027140D01*
X041536Y027090D01*
X041540Y027040D01*
X041540Y026990D01*
X041536Y026940D01*
X041528Y026890D01*
X041516Y026841D01*
X041501Y026793D01*
X041482Y026746D01*
X041459Y026701D01*
X041433Y026658D01*
X041404Y026617D01*
X041371Y026578D01*
X041336Y026542D01*
X041298Y026509D01*
X041258Y026479D01*
X041215Y026452D01*
X041170Y026429D01*
X041124Y026409D01*
X041076Y026392D01*
X041028Y026380D01*
X040978Y026371D01*
X040928Y026366D01*
X040877Y026365D01*
X040827Y026368D01*
X040777Y026375D01*
X040728Y026386D01*
X040680Y026400D01*
X040633Y026418D01*
X040587Y026440D01*
X040543Y026465D01*
X040502Y026494D01*
X040463Y026525D01*
X040426Y026560D01*
X040392Y026597D01*
X040361Y026637D01*
X040333Y026679D01*
X040309Y026723D01*
X040288Y026769D01*
X040271Y026817D01*
X040258Y026865D01*
X040248Y026915D01*
X040242Y026965D01*
X040240Y027015D01*
D11*
X038112Y015981D03*
X038112Y015784D03*
X038112Y015587D03*
X038112Y015390D03*
X038112Y015193D03*
X038112Y014996D03*
X038112Y014799D03*
X036223Y014799D03*
X036223Y014996D03*
X036223Y015193D03*
X036223Y015390D03*
X036223Y015587D03*
X036223Y015784D03*
X036223Y015981D03*
X028270Y015981D03*
X028270Y015784D03*
X028270Y015587D03*
X028270Y015390D03*
X028270Y015193D03*
X028270Y014996D03*
X028270Y014799D03*
X026380Y014799D03*
X026380Y014996D03*
X026380Y015193D03*
X026380Y015390D03*
X026380Y015587D03*
X026380Y015784D03*
X026380Y015981D03*
X018427Y015981D03*
X018427Y015784D03*
X018427Y015587D03*
X018427Y015390D03*
X018427Y015193D03*
X018427Y014996D03*
X018427Y014799D03*
X016538Y014799D03*
X016538Y014996D03*
X016538Y015193D03*
X016538Y015390D03*
X016538Y015587D03*
X016538Y015784D03*
X016538Y015981D03*
X008585Y015981D03*
X008585Y015784D03*
X008585Y015587D03*
X008585Y015390D03*
X008585Y015193D03*
X008585Y014996D03*
X008585Y014799D03*
X006695Y014799D03*
X006695Y014996D03*
X006695Y015193D03*
X006695Y015390D03*
X006695Y015587D03*
X006695Y015784D03*
X006695Y015981D03*
D12*
X007049Y016335D03*
X007246Y016335D03*
X007443Y016335D03*
X007640Y016335D03*
X007837Y016335D03*
X008034Y016335D03*
X008231Y016335D03*
X008231Y014445D03*
X008034Y014445D03*
X007837Y014445D03*
X007640Y014445D03*
X007443Y014445D03*
X007246Y014445D03*
X007049Y014445D03*
X016892Y014445D03*
X017089Y014445D03*
X017286Y014445D03*
X017483Y014445D03*
X017679Y014445D03*
X017876Y014445D03*
X018073Y014445D03*
X018073Y016335D03*
X017876Y016335D03*
X017679Y016335D03*
X017483Y016335D03*
X017286Y016335D03*
X017089Y016335D03*
X016892Y016335D03*
X026734Y016335D03*
X026931Y016335D03*
X027128Y016335D03*
X027325Y016335D03*
X027522Y016335D03*
X027719Y016335D03*
X027916Y016335D03*
X027916Y014445D03*
X027719Y014445D03*
X027522Y014445D03*
X027325Y014445D03*
X027128Y014445D03*
X026931Y014445D03*
X026734Y014445D03*
X036577Y014445D03*
X036774Y014445D03*
X036971Y014445D03*
X037168Y014445D03*
X037364Y014445D03*
X037561Y014445D03*
X037758Y014445D03*
X037758Y016335D03*
X037561Y016335D03*
X037364Y016335D03*
X037168Y016335D03*
X036971Y016335D03*
X036774Y016335D03*
X036577Y016335D03*
D13*
X037168Y015390D03*
X027325Y015390D03*
X017483Y015390D03*
X007640Y015390D03*
D14*
X004475Y018586D03*
X003805Y018586D03*
X013648Y018586D03*
X014317Y018586D03*
X023490Y018586D03*
X024160Y018586D03*
X033333Y018586D03*
X034002Y018586D03*
D15*
X033668Y017444D03*
X023825Y017444D03*
X013983Y017444D03*
X004140Y017444D03*
D16*
X005515Y017930D03*
X006140Y017930D03*
X006765Y017930D03*
X007390Y017930D03*
X008015Y017930D03*
X008640Y017930D03*
X009265Y017930D03*
X009890Y017930D03*
X009890Y018600D03*
X009265Y018600D03*
X008640Y018600D03*
X008015Y018600D03*
X007390Y018600D03*
X006765Y018600D03*
X006140Y018600D03*
X005515Y018600D03*
X009640Y016225D03*
X010265Y016225D03*
X010265Y015555D03*
X009640Y015555D03*
X015358Y017930D03*
X015983Y017930D03*
X016608Y017930D03*
X017233Y017930D03*
X017858Y017930D03*
X018483Y017930D03*
X019108Y017930D03*
X019733Y017930D03*
X019733Y018600D03*
X019108Y018600D03*
X018483Y018600D03*
X017858Y018600D03*
X017233Y018600D03*
X016608Y018600D03*
X015983Y018600D03*
X015358Y018600D03*
X019483Y016225D03*
X020108Y016225D03*
X020108Y015555D03*
X019483Y015555D03*
X025200Y017930D03*
X025825Y017930D03*
X026450Y017930D03*
X027075Y017930D03*
X027700Y017930D03*
X028325Y017930D03*
X028950Y017930D03*
X029575Y017930D03*
X030170Y017930D03*
X030795Y017930D03*
X030795Y018600D03*
X030170Y018600D03*
X029575Y018600D03*
X028950Y018600D03*
X028325Y018600D03*
X027700Y018600D03*
X027075Y018600D03*
X026450Y018600D03*
X025825Y018600D03*
X025200Y018600D03*
X029325Y016225D03*
X029950Y016225D03*
X029950Y015555D03*
X029325Y015555D03*
X035043Y017930D03*
X035668Y017930D03*
X036293Y017930D03*
X036918Y017930D03*
X037543Y017930D03*
X038168Y017930D03*
X038793Y017930D03*
X039418Y017930D03*
X039418Y018600D03*
X038793Y018600D03*
X038168Y018600D03*
X037543Y018600D03*
X036918Y018600D03*
X036293Y018600D03*
X035668Y018600D03*
X035043Y018600D03*
X039168Y016225D03*
X039793Y016225D03*
X039793Y015555D03*
X039168Y015555D03*
X020515Y026805D03*
X020515Y027475D03*
X017765Y027475D03*
X017765Y026805D03*
D17*
X019273Y013765D03*
X019942Y013765D03*
X015692Y013765D03*
X015023Y013765D03*
X010100Y013765D03*
X009430Y013765D03*
X005850Y013765D03*
X005180Y013765D03*
X024865Y013765D03*
X025535Y013765D03*
X029115Y013765D03*
X029785Y013765D03*
X034708Y013765D03*
X035377Y013765D03*
X038958Y013765D03*
X039627Y013765D03*
D18*
X034793Y016715D03*
X024950Y016715D03*
X015108Y016715D03*
X005140Y016715D03*
D19*
X004640Y011553D02*
X004640Y010728D01*
X006640Y010728D02*
X006640Y011553D01*
X008640Y011553D02*
X008640Y010728D01*
X010640Y010728D02*
X010640Y011553D01*
X014483Y011553D02*
X014483Y010728D01*
X016483Y010728D02*
X016483Y011553D01*
X018483Y011553D02*
X018483Y010728D01*
X020483Y010728D02*
X020483Y011553D01*
X024325Y011553D02*
X024325Y010728D01*
X026325Y010728D02*
X026325Y011553D01*
X028325Y011553D02*
X028325Y010728D01*
X030325Y010728D02*
X030325Y011553D01*
X034168Y011553D02*
X034168Y010728D01*
X036168Y010728D02*
X036168Y011553D01*
X038168Y011553D02*
X038168Y010728D01*
X040168Y010728D02*
X040168Y011553D01*
X037890Y024103D02*
X037890Y024928D01*
X035890Y024928D02*
X035890Y024103D01*
X033890Y024103D02*
X033890Y024928D01*
X031890Y024928D02*
X031890Y024103D01*
D20*
X029941Y012765D03*
X028209Y012765D03*
X026441Y012765D03*
X024709Y012765D03*
X020099Y012765D03*
X018366Y012765D03*
X016599Y012765D03*
X014866Y012765D03*
X010256Y012765D03*
X008524Y012765D03*
X006756Y012765D03*
X005024Y012765D03*
X034551Y012765D03*
X036284Y012765D03*
X038051Y012765D03*
X039784Y012765D03*
D21*
X024494Y020390D03*
X023786Y020390D03*
X023786Y021140D03*
X024494Y021140D03*
X024494Y021890D03*
X023786Y021890D03*
X023786Y022640D03*
X024494Y022640D03*
D22*
X025227Y022640D03*
X025227Y021890D03*
X026053Y021890D03*
X026053Y022640D03*
X026053Y021140D03*
X025227Y021140D03*
D23*
X008632Y022411D03*
X007648Y022411D03*
X007648Y023198D03*
X008632Y023198D03*
D24*
X008390Y021619D03*
X007640Y021619D03*
X007640Y020911D03*
X008390Y020911D03*
X013515Y023411D03*
X014265Y023411D03*
X015015Y023411D03*
X015015Y024119D03*
X014265Y024119D03*
X013515Y024119D03*
X028640Y026661D03*
X028640Y027369D03*
X037515Y022869D03*
X037515Y022161D03*
X037515Y020744D03*
X037515Y020036D03*
D25*
X038480Y020045D03*
X039390Y020045D03*
X040300Y020045D03*
D26*
X039390Y022485D03*
D27*
X036063Y021265D03*
X032717Y021265D03*
D28*
X029940Y023515D02*
X029340Y023515D01*
X029340Y024515D02*
X029940Y024515D01*
X029940Y025515D02*
X029340Y025515D01*
X029340Y026515D02*
X029940Y026515D01*
X029940Y027515D02*
X029340Y027515D01*
D29*
X021465Y025798D03*
X021150Y025798D03*
X020835Y025798D03*
X020520Y025798D03*
X020205Y025798D03*
X019890Y025798D03*
X019575Y025798D03*
X019260Y025798D03*
X018945Y025798D03*
X018630Y025798D03*
X018315Y025798D03*
X018315Y021232D03*
X018630Y021232D03*
X018945Y021232D03*
X019260Y021232D03*
X019575Y021232D03*
X019890Y021232D03*
X020205Y021232D03*
X020520Y021232D03*
X020835Y021232D03*
X021150Y021232D03*
X021465Y021232D03*
D30*
X022173Y021940D03*
X022173Y022255D03*
X022173Y022570D03*
X022173Y022885D03*
X022173Y023200D03*
X022173Y023515D03*
X022173Y023830D03*
X022173Y024145D03*
X022173Y024460D03*
X022173Y024775D03*
X022173Y025090D03*
X017607Y025090D03*
X017607Y024775D03*
X017607Y024460D03*
X017607Y024145D03*
X017607Y023830D03*
X017607Y023515D03*
X017607Y023200D03*
X017607Y022885D03*
X017607Y022570D03*
X017607Y022255D03*
X017607Y021940D03*
D31*
X018734Y026746D03*
X018734Y027534D03*
X019796Y027534D03*
X019796Y026746D03*
D32*
X023140Y026515D03*
X024140Y026515D03*
X025140Y026515D03*
X026140Y026515D03*
X027140Y026515D03*
X027140Y027515D03*
X026140Y027515D03*
X025140Y027515D03*
X024140Y027515D03*
X023140Y027515D03*
X014890Y027140D03*
X013890Y027140D03*
X012890Y027140D03*
X012890Y026140D03*
X013890Y026140D03*
X014890Y026140D03*
X015140Y021265D03*
X014140Y021265D03*
X013140Y021265D03*
X012140Y021265D03*
X011140Y021265D03*
X011140Y020265D03*
X012140Y020265D03*
X013140Y020265D03*
X014140Y020265D03*
X015140Y020265D03*
D33*
X013108Y019890D02*
X013108Y017390D01*
X014233Y016265D01*
X015608Y016265D01*
X016089Y015784D01*
X016538Y015784D01*
X016538Y015981D02*
X016392Y015981D01*
X016233Y016140D01*
X016538Y015587D02*
X015911Y015587D01*
X015608Y015890D01*
X015233Y015890D01*
X015108Y016715D02*
X015033Y016840D01*
X013983Y017390D02*
X013983Y017444D01*
X012858Y017265D02*
X012858Y019390D01*
X014317Y018586D02*
X014456Y018600D01*
X015358Y018600D01*
X015358Y017930D02*
X015942Y017930D01*
X015983Y017890D01*
X015733Y017890D02*
X015733Y017930D01*
X016608Y017890D02*
X016608Y017930D01*
X016608Y018015D01*
X016733Y017890D01*
X016733Y017265D01*
X017089Y016909D01*
X017089Y016335D01*
X017286Y016335D02*
X017286Y017337D01*
X017233Y017390D01*
X017233Y017930D01*
X017858Y017930D02*
X017858Y017390D01*
X017483Y017015D01*
X017483Y016335D01*
X017679Y016335D02*
X017679Y016837D01*
X017858Y017015D01*
X018108Y017015D01*
X018483Y017390D01*
X018483Y017930D01*
X019108Y017930D02*
X019108Y017390D01*
X018488Y016770D01*
X018033Y016770D01*
X017876Y016614D01*
X017876Y016335D01*
X018073Y016335D02*
X018552Y016335D01*
X019108Y016890D01*
X019233Y016890D01*
X019758Y017415D01*
X019758Y017984D01*
X019733Y017930D01*
X019108Y018600D02*
X018483Y018600D01*
X017858Y018600D01*
X017233Y018600D01*
X017692Y018600D01*
X017733Y018640D01*
X017733Y019140D01*
X016358Y017140D02*
X016892Y016606D01*
X016892Y016335D01*
X017108Y015765D02*
X017108Y015390D01*
X017483Y015390D01*
X017679Y015193D01*
X018427Y015193D01*
X018427Y014996D02*
X019126Y014996D01*
X019233Y014890D01*
X018633Y014735D02*
X018543Y014794D01*
X018427Y014799D01*
X018427Y014445D02*
X018073Y014445D01*
X018177Y014445D01*
X018483Y014140D01*
X018427Y014445D02*
X018983Y013890D01*
X018108Y013640D02*
X017876Y013871D01*
X017876Y014445D01*
X017679Y014445D02*
X017679Y013593D01*
X017683Y013590D01*
X017286Y013593D02*
X017283Y013590D01*
X017286Y013593D02*
X017286Y014445D01*
X017089Y014445D02*
X017089Y013871D01*
X016858Y013640D01*
X016587Y014140D02*
X016483Y014140D01*
X016587Y014140D02*
X016892Y014445D01*
X016538Y014445D01*
X016233Y014140D01*
X016233Y013765D01*
X015983Y013890D02*
X016233Y014140D01*
X016308Y014735D02*
X016397Y014794D01*
X016538Y014799D01*
X016538Y015193D02*
X016161Y015193D01*
X015983Y015015D01*
X015108Y015015D01*
X012858Y017265D01*
X010265Y016390D02*
X010265Y016225D01*
X010265Y016390D02*
X010015Y016640D01*
X009390Y016640D01*
X009015Y016265D01*
X009015Y015890D01*
X008909Y015784D01*
X008585Y015784D01*
X008585Y015587D02*
X009087Y015587D01*
X009265Y015765D01*
X009265Y015890D01*
X009515Y016140D01*
X009640Y016140D01*
X009634Y016146D01*
X009546Y016146D01*
X009640Y016225D01*
X009640Y015555D02*
X009396Y015390D01*
X008585Y015390D01*
X008585Y015193D02*
X007837Y015193D01*
X007640Y015390D01*
X007265Y015390D01*
X007265Y015765D01*
X007240Y015390D02*
X007265Y015390D01*
X007240Y015390D02*
X006240Y015390D01*
X006190Y015340D01*
X006318Y015193D02*
X006140Y015015D01*
X005265Y015015D01*
X003140Y017265D01*
X003140Y019265D01*
X003390Y019015D02*
X003390Y017390D01*
X004515Y016265D01*
X005765Y016265D01*
X006246Y015784D01*
X006695Y015784D01*
X006695Y015981D02*
X006549Y015981D01*
X006390Y016140D01*
X006695Y015587D02*
X006068Y015587D01*
X005765Y015890D01*
X005390Y015890D01*
X005140Y016715D02*
X004940Y016715D01*
X004640Y017015D01*
X004140Y017390D02*
X004140Y017444D01*
X004475Y018586D02*
X004613Y018600D01*
X005515Y018600D01*
X005515Y017930D02*
X006100Y017930D01*
X006140Y017890D01*
X005890Y017890D02*
X005890Y017930D01*
X006765Y017890D02*
X006765Y017930D01*
X006765Y018015D01*
X006890Y017890D01*
X006890Y017265D01*
X007246Y016909D01*
X007246Y016335D01*
X007049Y016335D02*
X007049Y016606D01*
X006515Y017140D01*
X007390Y017390D02*
X007390Y017930D01*
X008015Y017930D02*
X008015Y017390D01*
X007640Y017015D01*
X007640Y016335D01*
X007443Y016335D02*
X007443Y017337D01*
X007390Y017390D01*
X007837Y016837D02*
X008015Y017015D01*
X008265Y017015D01*
X008640Y017390D01*
X008640Y017930D01*
X009265Y017930D02*
X009265Y017390D01*
X008645Y016770D01*
X008190Y016770D01*
X008034Y016614D01*
X008034Y016335D01*
X008231Y016335D02*
X008710Y016335D01*
X009265Y016890D01*
X009390Y016890D01*
X009915Y017415D01*
X009915Y017984D01*
X009890Y017930D01*
X009265Y018600D02*
X008640Y018600D01*
X008015Y018600D01*
X007390Y018600D01*
X007850Y018600D01*
X007890Y018640D01*
X007890Y019140D01*
X007837Y016837D02*
X007837Y016335D01*
X007240Y015390D02*
X006695Y015390D01*
X006695Y015193D02*
X006318Y015193D01*
X006554Y014794D02*
X006465Y014735D01*
X006554Y014794D02*
X006695Y014799D01*
X006695Y014445D02*
X006390Y014140D01*
X006390Y013765D01*
X006140Y013890D02*
X006390Y014140D01*
X006640Y014140D02*
X006744Y014140D01*
X007049Y014445D01*
X006695Y014445D01*
X007246Y014445D02*
X007246Y013871D01*
X007015Y013640D01*
X007440Y013590D02*
X007443Y013593D01*
X007443Y014445D01*
X007837Y014445D02*
X007837Y013593D01*
X007840Y013590D01*
X008034Y013871D02*
X008265Y013640D01*
X008034Y013871D02*
X008034Y014445D01*
X008231Y014445D02*
X008335Y014445D01*
X008640Y014140D01*
X008585Y014445D02*
X008231Y014445D01*
X008585Y014445D02*
X009140Y013890D01*
X008790Y014735D02*
X008701Y014794D01*
X008585Y014799D01*
X008585Y014996D02*
X009284Y014996D01*
X009390Y014890D01*
X010015Y014890D02*
X010265Y015140D01*
X010265Y015555D01*
X011015Y015140D02*
X011140Y015015D01*
X008640Y012890D02*
X008524Y012765D01*
X007015Y013149D02*
X006756Y012765D01*
X016033Y015340D02*
X016083Y015390D01*
X017083Y015390D01*
X016538Y015390D01*
X017083Y015390D02*
X017108Y015390D01*
X018427Y015390D02*
X019238Y015390D01*
X019483Y015555D01*
X019108Y015765D02*
X019108Y015890D01*
X019358Y016140D01*
X019483Y016140D01*
X019477Y016146D01*
X019388Y016146D01*
X019483Y016225D01*
X019233Y016640D02*
X019858Y016640D01*
X020108Y016390D01*
X020108Y016225D01*
X020108Y015555D02*
X020108Y015140D01*
X019858Y014890D01*
X019108Y015765D02*
X018929Y015587D01*
X018427Y015587D01*
X018427Y015784D02*
X018751Y015784D01*
X018858Y015890D01*
X018858Y016265D01*
X019233Y016640D01*
X020858Y016140D02*
X020983Y016015D01*
X022825Y017265D02*
X024950Y015015D01*
X025825Y015015D01*
X026003Y015193D01*
X026380Y015193D01*
X026380Y015390D02*
X026925Y015390D01*
X025925Y015390D01*
X025875Y015340D01*
X025753Y015587D02*
X025450Y015890D01*
X025075Y015890D01*
X025450Y016265D02*
X024200Y016265D01*
X023108Y017358D01*
X023075Y017390D01*
X023825Y017390D02*
X023825Y017444D01*
X024160Y018586D02*
X024298Y018600D01*
X025200Y018600D01*
X025200Y017930D02*
X025785Y017930D01*
X025825Y017890D01*
X025575Y017890D02*
X025575Y017930D01*
X026450Y017890D02*
X026450Y017930D01*
X026450Y018015D01*
X026575Y017890D01*
X026575Y017265D01*
X026931Y016909D01*
X026931Y016335D01*
X026734Y016335D02*
X026734Y016606D01*
X026200Y017140D01*
X027075Y017390D02*
X027075Y017930D01*
X027075Y017390D02*
X027128Y017337D01*
X027128Y016335D01*
X027325Y016335D02*
X027325Y017015D01*
X027700Y017390D01*
X027700Y017930D01*
X028325Y017930D02*
X028325Y017390D01*
X027950Y017015D01*
X027700Y017015D01*
X027522Y016837D01*
X027522Y016335D01*
X027719Y016335D02*
X027719Y016614D01*
X027875Y016770D01*
X028330Y016770D01*
X028950Y017390D01*
X028950Y017930D01*
X029575Y017930D02*
X029600Y017984D01*
X029600Y017415D01*
X029075Y016890D01*
X028950Y016890D01*
X028395Y016335D01*
X027916Y016335D01*
X028270Y015784D02*
X028594Y015784D01*
X028700Y015890D01*
X028700Y016265D01*
X029075Y016640D01*
X029700Y016640D01*
X029950Y016390D01*
X029950Y016225D01*
X029325Y016225D02*
X029231Y016146D01*
X029319Y016146D01*
X029325Y016140D01*
X029200Y016140D01*
X028950Y015890D01*
X028950Y015765D01*
X028772Y015587D01*
X028270Y015587D01*
X028270Y015390D02*
X029081Y015390D01*
X029325Y015555D01*
X029950Y015555D02*
X029950Y015140D01*
X029700Y014890D01*
X029075Y014890D02*
X028969Y014996D01*
X028270Y014996D01*
X028270Y014799D02*
X028386Y014794D01*
X028475Y014735D01*
X028270Y014445D02*
X027916Y014445D01*
X028020Y014445D01*
X028325Y014140D01*
X028270Y014445D02*
X028825Y013890D01*
X027950Y013640D02*
X027719Y013871D01*
X027719Y014445D01*
X027522Y014445D02*
X027522Y013593D01*
X027525Y013590D01*
X027128Y013593D02*
X027125Y013590D01*
X027128Y013593D02*
X027128Y014445D01*
X026931Y014445D02*
X026931Y013871D01*
X026700Y013640D01*
X026429Y014140D02*
X026734Y014445D01*
X026380Y014445D01*
X026075Y014140D01*
X026075Y013765D01*
X025825Y013890D02*
X026075Y014140D01*
X026325Y014140D02*
X026429Y014140D01*
X026150Y014735D02*
X026239Y014794D01*
X026380Y014799D01*
X026925Y015390D02*
X026950Y015390D01*
X026950Y015765D01*
X026950Y015390D02*
X027325Y015390D01*
X027522Y015193D01*
X028270Y015193D01*
X026380Y015587D02*
X025753Y015587D01*
X025931Y015784D02*
X025450Y016265D01*
X026075Y016140D02*
X026234Y015981D01*
X026380Y015981D01*
X026380Y015784D02*
X025931Y015784D01*
X024950Y016715D02*
X024875Y016840D01*
X027075Y018600D02*
X027535Y018600D01*
X027575Y018640D01*
X027575Y019140D01*
X027700Y018600D02*
X027075Y018600D01*
X027700Y018600D02*
X028325Y018600D01*
X028950Y018600D01*
X030140Y018640D02*
X031390Y018640D01*
X030795Y017930D02*
X030795Y017860D01*
X031390Y017265D01*
X030515Y017265D02*
X030140Y017640D01*
X030140Y017900D01*
X030170Y017930D01*
X030515Y017265D02*
X030515Y015265D01*
X031450Y015140D02*
X031575Y015015D01*
X032918Y017390D02*
X034043Y016265D01*
X035293Y016265D01*
X035774Y015784D01*
X036223Y015784D01*
X036223Y015981D02*
X036077Y015981D01*
X035918Y016140D01*
X036223Y015587D02*
X035596Y015587D01*
X035293Y015890D01*
X034918Y015890D01*
X034793Y016715D02*
X034718Y016840D01*
X033668Y017390D02*
X033668Y017444D01*
X032668Y017265D02*
X032592Y017338D01*
X034793Y015015D01*
X035668Y015015D01*
X035846Y015193D01*
X036223Y015193D01*
X036223Y015390D02*
X036768Y015390D01*
X035768Y015390D01*
X035718Y015340D01*
X036082Y014794D02*
X035993Y014735D01*
X036082Y014794D02*
X036223Y014799D01*
X036223Y014445D02*
X035918Y014140D01*
X035918Y013765D01*
X035668Y013890D02*
X035918Y014140D01*
X036168Y014140D02*
X036272Y014140D01*
X036577Y014445D01*
X036223Y014445D01*
X036774Y014445D02*
X036774Y013871D01*
X036543Y013640D01*
X036968Y013590D02*
X036971Y013593D01*
X036971Y014445D01*
X037364Y014445D02*
X037364Y013593D01*
X037368Y013590D01*
X037561Y013871D02*
X037793Y013640D01*
X037561Y013871D02*
X037561Y014445D01*
X037758Y014445D02*
X037862Y014445D01*
X038168Y014140D01*
X038112Y014445D02*
X038668Y013890D01*
X038112Y014445D02*
X037758Y014445D01*
X038112Y014799D02*
X038228Y014794D01*
X038318Y014735D01*
X038112Y014996D02*
X038811Y014996D01*
X038918Y014890D01*
X039543Y014890D02*
X039793Y015140D01*
X039793Y015555D01*
X039168Y015555D02*
X038923Y015390D01*
X038112Y015390D01*
X038112Y015193D02*
X037364Y015193D01*
X037168Y015390D01*
X036793Y015390D01*
X036793Y015765D01*
X036768Y015390D02*
X036793Y015390D01*
X036774Y016335D02*
X036774Y016909D01*
X036418Y017265D01*
X036418Y017890D01*
X036293Y018015D01*
X036293Y017930D01*
X036293Y017890D01*
X035668Y017890D02*
X035627Y017930D01*
X035043Y017930D01*
X035418Y017930D02*
X035418Y017890D01*
X035043Y018600D02*
X034141Y018600D01*
X034002Y018586D01*
X036043Y017140D02*
X036577Y016606D01*
X036577Y016335D01*
X036971Y016335D02*
X036971Y017337D01*
X036918Y017390D01*
X036918Y017930D01*
X037543Y017930D02*
X037543Y017390D01*
X037168Y017015D01*
X037168Y016335D01*
X037364Y016335D02*
X037364Y016837D01*
X037543Y017015D01*
X037793Y017015D01*
X038168Y017390D01*
X038168Y017930D01*
X038793Y017930D02*
X038793Y017390D01*
X038173Y016770D01*
X037718Y016770D01*
X037561Y016614D01*
X037561Y016335D01*
X037758Y016335D02*
X038237Y016335D01*
X038793Y016890D01*
X038918Y016890D01*
X039443Y017415D01*
X039443Y017984D01*
X039418Y017930D01*
X038793Y018600D02*
X038168Y018600D01*
X037543Y018600D01*
X036918Y018600D01*
X037377Y018600D01*
X037418Y018640D01*
X037418Y019140D01*
X038918Y016640D02*
X039543Y016640D01*
X039793Y016390D01*
X039793Y016225D01*
X039168Y016225D02*
X039073Y016146D01*
X039162Y016146D01*
X039168Y016140D01*
X039043Y016140D01*
X038793Y015890D01*
X038793Y015765D01*
X038614Y015587D01*
X038112Y015587D01*
X038112Y015784D02*
X038436Y015784D01*
X038543Y015890D01*
X038543Y016265D01*
X038918Y016640D01*
X036543Y013149D02*
X036284Y012765D01*
X038051Y012765D02*
X038168Y012890D01*
X028325Y012890D02*
X028209Y012765D01*
X026700Y013149D02*
X026441Y012765D01*
X018483Y012890D02*
X018366Y012765D01*
X016858Y013149D02*
X016599Y012765D01*
X023786Y020390D02*
X023786Y020994D01*
X023640Y021140D01*
X023786Y021140D02*
X023890Y021140D01*
X022173Y023515D02*
X028390Y023515D01*
X029390Y024515D01*
X029640Y024515D01*
X029640Y023515D02*
X028890Y023515D01*
X028575Y023200D01*
X027580Y023830D02*
X028015Y024265D01*
X027580Y023830D02*
X022173Y023830D01*
X019260Y025798D02*
X019260Y027135D01*
X019640Y027515D01*
X019890Y027515D01*
X019871Y027534D01*
X019796Y027534D01*
X020456Y027534D01*
X020515Y027475D01*
X018945Y026535D02*
X018734Y026746D01*
X017824Y026746D01*
X017765Y026805D01*
X018945Y026535D02*
X018945Y025798D01*
X028536Y026515D02*
X028640Y026661D01*
X028640Y027369D02*
X028536Y027515D01*
X029640Y027515D01*
D34*
X027075Y018640D02*
X027075Y018600D01*
X027075Y018515D01*
X025575Y017140D02*
X025575Y016640D01*
X026075Y016140D01*
X026150Y014735D02*
X026150Y014715D01*
X025825Y014390D01*
X024575Y014390D01*
X023950Y013765D01*
X023950Y011515D01*
X024325Y011140D01*
X025575Y012515D02*
X025575Y012765D01*
X024825Y012765D01*
X024944Y012884D01*
X024944Y013000D01*
X024709Y012765D01*
X024944Y013000D02*
X024865Y013765D01*
X025535Y013765D02*
X026075Y013765D01*
X026700Y013640D02*
X026700Y013149D01*
X026700Y013015D01*
X026325Y012640D01*
X025575Y012765D02*
X025575Y013015D01*
X027125Y013590D02*
X027125Y011940D01*
X026325Y011140D01*
X027525Y011940D02*
X027525Y013590D01*
X027950Y013640D02*
X027950Y013024D01*
X028209Y012765D01*
X029075Y012765D02*
X029075Y012515D01*
X029075Y012765D02*
X029941Y012765D01*
X029706Y013000D01*
X029785Y013765D01*
X029115Y013765D02*
X028575Y013765D01*
X028820Y014390D02*
X030075Y014390D01*
X030700Y013765D01*
X030700Y011515D01*
X030325Y011140D01*
X028325Y011140D02*
X027525Y011940D01*
X029075Y012765D02*
X029075Y013015D01*
X028820Y014390D02*
X028475Y014735D01*
X033793Y013765D02*
X033793Y011515D01*
X034168Y011140D01*
X035418Y012515D02*
X035418Y012765D01*
X034668Y012765D01*
X034787Y012884D01*
X034787Y013000D01*
X034551Y012765D01*
X034787Y013000D02*
X034708Y013765D01*
X035377Y013765D02*
X035918Y013765D01*
X036543Y013640D02*
X036543Y013149D01*
X036543Y013015D01*
X036168Y012640D01*
X035418Y012765D02*
X035418Y013015D01*
X034418Y014390D02*
X033793Y013765D01*
X034418Y014390D02*
X035668Y014390D01*
X035993Y014715D01*
X035993Y014735D01*
X035918Y016140D02*
X035418Y016640D01*
X035418Y017140D01*
X036918Y018515D02*
X036918Y018600D01*
X036918Y018640D01*
X038318Y014735D02*
X038663Y014390D01*
X039918Y014390D01*
X040543Y013765D01*
X040543Y011515D01*
X040168Y011140D01*
X038918Y012515D02*
X038918Y012765D01*
X039784Y012765D01*
X039548Y013000D01*
X039627Y013765D01*
X038958Y013765D02*
X038418Y013765D01*
X037793Y013640D02*
X037793Y013024D01*
X038051Y012765D01*
X038918Y012765D02*
X038918Y013015D01*
X037368Y013590D02*
X037368Y011940D01*
X038168Y011140D01*
X036968Y011940D02*
X036968Y013590D01*
X036968Y011940D02*
X036168Y011140D01*
X020858Y011515D02*
X020858Y013765D01*
X020233Y014390D01*
X018978Y014390D01*
X018633Y014735D01*
X018733Y013765D02*
X019273Y013765D01*
X019942Y013765D02*
X019863Y013000D01*
X020099Y012765D01*
X019233Y012765D01*
X019233Y012515D01*
X019233Y012765D02*
X019233Y013015D01*
X018366Y012765D02*
X018108Y013024D01*
X018108Y013640D01*
X017683Y013590D02*
X017683Y011940D01*
X018483Y011140D01*
X017283Y011940D02*
X017283Y013590D01*
X016858Y013640D02*
X016858Y013149D01*
X016858Y013015D01*
X016483Y012640D01*
X015733Y012765D02*
X014983Y012765D01*
X015102Y012884D01*
X015102Y013000D01*
X014866Y012765D01*
X015102Y013000D02*
X015023Y013765D01*
X015692Y013765D02*
X016233Y013765D01*
X015983Y014390D02*
X014733Y014390D01*
X014108Y013765D01*
X014108Y011515D01*
X014483Y011140D01*
X015733Y012515D02*
X015733Y012765D01*
X015733Y013015D01*
X015983Y014390D02*
X016308Y014715D01*
X016308Y014735D01*
X016233Y016140D02*
X015733Y016640D01*
X015733Y017140D01*
X017233Y018515D02*
X017233Y018600D01*
X017233Y018640D01*
X011015Y013765D02*
X011015Y011515D01*
X010640Y011140D01*
X009390Y012515D02*
X009390Y012765D01*
X010256Y012765D01*
X010021Y013000D01*
X010100Y013765D01*
X009430Y013765D02*
X008890Y013765D01*
X008265Y013640D02*
X008265Y013024D01*
X008524Y012765D01*
X009390Y012765D02*
X009390Y013015D01*
X007840Y013590D02*
X007840Y011940D01*
X008640Y011140D01*
X007440Y011940D02*
X007440Y013590D01*
X007015Y013640D02*
X007015Y013149D01*
X007015Y013015D01*
X006640Y012640D01*
X005890Y012765D02*
X005890Y013015D01*
X005890Y012765D02*
X005140Y012765D01*
X005259Y012884D01*
X005259Y013000D01*
X005024Y012765D01*
X005259Y013000D02*
X005180Y013765D01*
X005850Y013765D02*
X006390Y013765D01*
X006140Y014390D02*
X004890Y014390D01*
X004265Y013765D01*
X004265Y011515D01*
X004640Y011140D01*
X005890Y012515D02*
X005890Y012765D01*
X007440Y011940D02*
X006640Y011140D01*
X010390Y014390D02*
X011015Y013765D01*
X010390Y014390D02*
X009135Y014390D01*
X008790Y014735D01*
X006465Y014735D02*
X006465Y014715D01*
X006140Y014390D01*
X006390Y016140D02*
X005890Y016640D01*
X005890Y017140D01*
X007390Y018515D02*
X007390Y018600D01*
X007390Y018640D01*
X016483Y011140D02*
X017283Y011940D01*
X020483Y011140D02*
X020858Y011515D01*
D35*
X021483Y012015D03*
X021983Y012015D03*
X022825Y012015D03*
X023325Y012015D03*
X025575Y012515D03*
X025575Y013015D03*
X026075Y013765D03*
X026325Y014140D03*
X025325Y015390D03*
X023325Y016015D03*
X022825Y016015D03*
X021483Y016015D03*
X020983Y016015D03*
X019233Y014890D03*
X018483Y014140D03*
X018733Y013765D03*
X019233Y013015D03*
X019233Y012515D03*
X016483Y014140D03*
X016233Y013765D03*
X015733Y013015D03*
X015733Y012515D03*
X013483Y012765D03*
X012983Y012765D03*
X012140Y012765D03*
X011640Y012765D03*
X009390Y012515D03*
X009390Y013015D03*
X008890Y013765D03*
X008640Y014140D03*
X009390Y014890D03*
X011140Y015015D03*
X011640Y015015D03*
X012983Y015015D03*
X013483Y015015D03*
X015483Y015390D03*
X015733Y017140D03*
X014733Y017765D03*
X017733Y019140D03*
X011515Y017140D03*
X010515Y017140D03*
X007890Y019140D03*
X005890Y017140D03*
X004890Y017765D03*
X005640Y015390D03*
X006640Y014140D03*
X006390Y013765D03*
X005890Y013015D03*
X005890Y012515D03*
X003640Y012765D03*
X003140Y012765D03*
X003140Y015015D03*
X003640Y015015D03*
X012825Y023765D03*
X024575Y017765D03*
X025575Y017140D03*
X027575Y019140D03*
X031575Y015015D03*
X032075Y015015D03*
X032543Y015015D03*
X035168Y015390D03*
X036168Y014140D03*
X035918Y013765D03*
X035418Y013015D03*
X035418Y012515D03*
X033168Y012765D03*
X032668Y012765D03*
X031825Y012765D03*
X031325Y012765D03*
X029075Y012515D03*
X029075Y013015D03*
X028575Y013765D03*
X028325Y014140D03*
X029075Y014890D03*
X034418Y017515D03*
X035418Y017140D03*
X037418Y019140D03*
X040418Y017015D03*
X040418Y015265D03*
X038918Y014890D03*
X038168Y014140D03*
X038418Y013765D03*
X038918Y013015D03*
X038918Y012515D03*
X041168Y012765D03*
X041668Y012765D03*
D36*
X035418Y017140D02*
X035418Y017890D01*
X035418Y017930D02*
X035668Y017930D01*
X035418Y017930D02*
X035043Y017930D01*
X037418Y019140D02*
X039140Y019140D01*
X039390Y019390D01*
X039390Y020045D01*
X037515Y020744D02*
X036994Y021265D01*
X036063Y021265D01*
X037515Y022161D02*
X039066Y022161D01*
X039390Y022485D01*
X029640Y026515D02*
X028140Y026515D01*
X027140Y027515D01*
X028536Y026515D02*
X029640Y026515D01*
X025825Y017930D02*
X025575Y017930D01*
X025200Y017930D01*
X025575Y017890D02*
X025575Y017140D01*
X015983Y017930D02*
X015733Y017930D01*
X015358Y017930D01*
X015733Y017890D02*
X015733Y017140D01*
X011140Y021265D02*
X011640Y021765D01*
X011640Y025140D01*
X012640Y026140D01*
X012890Y026140D01*
X006140Y017930D02*
X005890Y017930D01*
X005515Y017930D01*
X005890Y017890D02*
X005890Y017140D01*
D37*
X019640Y022265D02*
X019640Y022515D01*
X019890Y022765D01*
X019890Y023515D01*
X020890Y023515D01*
X019890Y023515D02*
X019890Y025798D01*
X019640Y022265D02*
X020205Y021700D01*
X020205Y021232D01*
D38*
X020265Y022265D03*
X020640Y022765D03*
X021265Y022765D03*
X020890Y023515D03*
X020390Y025015D03*
X018640Y023015D03*
X018640Y022390D03*
X016890Y022265D03*
X016390Y021140D03*
X016890Y020890D03*
X021233Y019358D03*
X023140Y021140D03*
X028015Y024265D03*
X031390Y018640D03*
X031390Y017265D03*
X030515Y017265D03*
X028950Y017390D03*
X028325Y017390D03*
X027700Y017390D03*
X027075Y017390D03*
X026200Y017140D03*
X025075Y015890D03*
X024325Y016890D03*
X019858Y014890D03*
X019108Y017390D03*
X018483Y017390D03*
X017858Y017390D03*
X017233Y017390D03*
X016358Y017140D03*
X015233Y015890D03*
X014483Y016890D03*
X011640Y018015D03*
X011640Y019140D03*
X011015Y019265D03*
X009265Y017390D03*
X008640Y017390D03*
X008015Y017390D03*
X007390Y017390D03*
X006515Y017140D03*
X005390Y015890D03*
X004640Y017015D03*
X010015Y014890D03*
X010890Y015890D03*
X009390Y021515D03*
X009515Y022640D03*
X029700Y014890D03*
X030515Y015265D03*
X034168Y016890D03*
X034918Y015890D03*
X036043Y017140D03*
X036918Y017390D03*
X037543Y017390D03*
X038168Y017390D03*
X038793Y017390D03*
X039543Y014890D03*
X041265Y019890D03*
D39*
X034793Y016715D02*
X034343Y016715D01*
X034168Y016890D01*
X034168Y016944D01*
X033668Y017444D01*
X032918Y017390D02*
X032918Y019112D01*
X032265Y019765D01*
X022015Y019765D01*
X021515Y020265D01*
X021465Y020315D01*
X021465Y021232D01*
X021150Y021232D02*
X021150Y022630D01*
X021265Y022765D01*
X020835Y022570D02*
X020640Y022765D01*
X020835Y022570D02*
X020835Y021232D01*
X020520Y021232D02*
X020520Y022010D01*
X020265Y022265D01*
X018640Y022390D02*
X018505Y022255D01*
X017607Y022255D01*
X017607Y021940D02*
X017215Y021940D01*
X016890Y022265D01*
X016760Y022885D02*
X015140Y021265D01*
X014640Y020765D01*
X014640Y020015D01*
X014890Y019765D01*
X015390Y019765D01*
X015640Y020015D01*
X021265Y020015D01*
X021765Y019515D01*
X032140Y019515D01*
X032592Y019063D01*
X032592Y017338D01*
X030890Y018640D02*
X030140Y018640D01*
X030180Y018600D01*
X030170Y018600D01*
X030795Y018600D01*
X025227Y021140D02*
X024494Y021140D01*
X023786Y021140D02*
X023640Y021140D01*
X023140Y021140D01*
X023786Y021890D02*
X023106Y022570D01*
X022173Y022570D01*
X022173Y022885D02*
X023395Y022885D01*
X023640Y022640D01*
X023786Y022640D01*
X024494Y022640D02*
X025227Y022640D01*
X025227Y021890D02*
X024494Y021890D01*
X024770Y024145D02*
X022173Y024145D01*
X022173Y024460D02*
X024585Y024460D01*
X026140Y026015D01*
X026140Y026515D01*
X025640Y026015D02*
X024390Y024765D01*
X022183Y024765D01*
X022173Y024775D01*
X022173Y025090D02*
X024215Y025090D01*
X025140Y026015D01*
X025140Y026515D01*
X024640Y026015D02*
X024640Y027015D01*
X024140Y027515D01*
X023140Y027515D02*
X022140Y026515D01*
X020890Y026515D01*
X020520Y026145D01*
X020520Y025798D01*
X020835Y025798D02*
X020835Y026085D01*
X021015Y026265D01*
X022890Y026265D01*
X023140Y026515D01*
X024140Y026515D02*
X024140Y026015D01*
X023890Y025765D01*
X021765Y025765D01*
X021732Y025798D01*
X021465Y025798D01*
X021150Y025798D02*
X021150Y025380D01*
X021265Y025265D01*
X021640Y025265D01*
X021765Y025390D01*
X024015Y025390D01*
X024640Y026015D01*
X025640Y026015D02*
X025640Y027015D01*
X025140Y027515D01*
X026140Y027515D02*
X026640Y027015D01*
X026640Y026015D01*
X024770Y024145D01*
X020390Y025015D02*
X020205Y025200D01*
X020205Y025798D01*
X018630Y025798D02*
X018630Y025380D01*
X018515Y025265D01*
X018140Y025265D01*
X017890Y025515D01*
X016265Y025515D01*
X015140Y026640D01*
X014390Y026640D01*
X013890Y027140D01*
X013890Y026140D02*
X015570Y024460D01*
X017607Y024460D01*
X017607Y024775D02*
X015755Y024775D01*
X014890Y025640D01*
X014890Y026140D01*
X014895Y024145D02*
X014890Y024140D01*
X014911Y024119D01*
X015015Y024119D01*
X014265Y024119D01*
X013515Y024119D01*
X014895Y024145D02*
X017607Y024145D01*
X017607Y023830D02*
X016205Y023830D01*
X014640Y022265D01*
X013140Y022265D01*
X012140Y021265D01*
X011640Y020765D01*
X010890Y020765D01*
X010140Y020015D01*
X003890Y020015D01*
X003140Y019265D01*
X003390Y019015D02*
X004140Y019765D01*
X011640Y019765D01*
X012140Y020265D01*
X012640Y019890D02*
X012640Y020765D01*
X013140Y021265D01*
X013890Y022015D01*
X014890Y022015D01*
X016390Y023515D01*
X017607Y023515D01*
X017607Y023200D02*
X016575Y023200D01*
X015140Y021765D01*
X014640Y021765D01*
X014140Y021265D01*
X013640Y020765D01*
X013640Y019765D01*
X014140Y019265D01*
X015640Y019265D01*
X015890Y019515D01*
X020450Y019515D01*
X021200Y018765D01*
X021390Y018765D01*
X022825Y017265D01*
X023108Y017358D02*
X021233Y019358D01*
X020825Y019765D01*
X015765Y019765D01*
X015515Y019515D01*
X014640Y019515D01*
X014140Y020015D01*
X014140Y020265D01*
X013140Y020265D02*
X013108Y020233D01*
X013108Y019890D01*
X012858Y019672D02*
X012858Y019390D01*
X012858Y019672D02*
X012640Y019890D01*
X011640Y019140D02*
X011640Y018015D01*
X011015Y019265D02*
X011015Y016015D01*
X010890Y015890D01*
X013983Y017444D02*
X014483Y016944D01*
X014483Y016890D01*
X014658Y016715D01*
X015108Y016715D01*
X015140Y020265D02*
X021515Y020265D01*
X018630Y020880D02*
X018390Y020640D01*
X017140Y020640D01*
X016890Y020890D01*
X017298Y021232D02*
X017140Y021390D01*
X016640Y021390D01*
X016390Y021140D01*
X017298Y021232D02*
X018315Y021232D01*
X018630Y021232D02*
X018630Y020880D01*
X018195Y022570D02*
X017607Y022570D01*
X017607Y022885D02*
X016760Y022885D01*
X018195Y022570D02*
X018640Y023015D01*
X023825Y017444D02*
X024325Y016944D01*
X024325Y016890D01*
X024500Y016715D01*
X024950Y016715D01*
X009390Y021515D02*
X008765Y020890D01*
X008390Y020890D01*
X008390Y020911D01*
X008390Y021619D02*
X008382Y021627D01*
X007648Y021627D01*
X007640Y021619D01*
X007648Y021627D02*
X007648Y022411D01*
X008632Y023198D02*
X008957Y023198D01*
X009515Y022640D01*
X004211Y017444D02*
X004140Y017444D01*
X004211Y017444D02*
X004640Y017015D01*
D40*
X039390Y020045D02*
X039390Y022485D01*
X040300Y020045D02*
X040300Y019890D01*
X041265Y019890D01*
D41*
X041555Y020180D02*
X041850Y020180D01*
X041850Y020258D02*
X041448Y020258D01*
X041497Y020238D02*
X041347Y020300D01*
X040700Y020300D01*
X040700Y020551D01*
X040606Y020645D01*
X039994Y020645D01*
X039900Y020551D01*
X039900Y020151D01*
X039890Y020127D01*
X039890Y019808D01*
X039900Y019784D01*
X039900Y019539D01*
X039994Y019445D01*
X040606Y019445D01*
X040641Y019480D01*
X041347Y019480D01*
X041497Y019542D01*
X041613Y019658D01*
X041675Y019808D01*
X041675Y019972D01*
X041613Y020122D01*
X041497Y020238D01*
X041621Y020101D02*
X041850Y020101D01*
X041850Y020023D02*
X041654Y020023D01*
X041675Y019944D02*
X041850Y019944D01*
X041850Y019866D02*
X041675Y019866D01*
X041666Y019787D02*
X041850Y019787D01*
X041850Y019709D02*
X041634Y019709D01*
X041585Y019630D02*
X041850Y019630D01*
X041850Y019552D02*
X041506Y019552D01*
X041850Y019473D02*
X040634Y019473D01*
X039966Y019473D02*
X039724Y019473D01*
X039710Y019459D02*
X039790Y019539D01*
X039790Y019939D01*
X039800Y019963D01*
X039800Y021892D01*
X040165Y021892D01*
X040259Y021986D01*
X040259Y022984D01*
X040165Y023078D01*
X038615Y023078D01*
X038521Y022984D01*
X038521Y022481D01*
X037451Y022481D01*
X037445Y022478D01*
X037213Y022478D01*
X037119Y022384D01*
X037119Y021937D01*
X037213Y021843D01*
X037445Y021843D01*
X037451Y021841D01*
X038980Y021841D01*
X038980Y019963D01*
X038990Y019939D01*
X038990Y019539D01*
X039038Y019491D01*
X039007Y019460D01*
X037354Y019460D01*
X037236Y019411D01*
X037146Y019321D01*
X037098Y019204D01*
X037098Y019076D01*
X037139Y018976D01*
X036654Y018976D01*
X036561Y018882D01*
X036561Y018317D01*
X036613Y018265D01*
X036605Y018258D01*
X036556Y018307D01*
X036029Y018307D01*
X035980Y018258D01*
X035931Y018307D01*
X035404Y018307D01*
X035355Y018258D01*
X035348Y018265D01*
X035399Y018317D01*
X035399Y018882D01*
X035306Y018976D01*
X034779Y018976D01*
X034686Y018882D01*
X034686Y018810D01*
X034359Y018810D01*
X034359Y018829D01*
X034265Y018923D01*
X033739Y018923D01*
X033645Y018829D01*
X033645Y018342D01*
X033739Y018249D01*
X034265Y018249D01*
X034359Y018342D01*
X034359Y018390D01*
X034686Y018390D01*
X034686Y018317D01*
X034738Y018265D01*
X034686Y018213D01*
X034686Y017648D01*
X034779Y017554D01*
X035098Y017554D01*
X035098Y017076D01*
X035138Y016980D01*
X035138Y016950D01*
X035025Y017063D01*
X034874Y017125D01*
X034711Y017125D01*
X034560Y017063D01*
X034491Y016993D01*
X034454Y017082D01*
X034359Y017177D01*
X034235Y017228D01*
X034195Y017228D01*
X034044Y017379D01*
X034044Y017688D01*
X033950Y017781D01*
X033385Y017781D01*
X033291Y017688D01*
X033291Y017314D01*
X033138Y017467D01*
X033138Y019204D01*
X032485Y019856D01*
X032356Y019985D01*
X022106Y019985D01*
X021735Y020356D01*
X021685Y020406D01*
X021685Y020832D01*
X021723Y020870D01*
X021723Y021593D01*
X021630Y021687D01*
X021370Y021687D01*
X021370Y022442D01*
X021457Y022478D01*
X021552Y022573D01*
X021603Y022698D01*
X021603Y022832D01*
X021552Y022957D01*
X021457Y023052D01*
X021332Y023103D01*
X021198Y023103D01*
X021073Y023052D01*
X020978Y022957D01*
X020952Y022894D01*
X020927Y022957D01*
X020832Y023052D01*
X020707Y023103D01*
X020573Y023103D01*
X020448Y023052D01*
X020353Y022957D01*
X020302Y022832D01*
X020302Y022698D01*
X020343Y022599D01*
X020332Y022603D01*
X020198Y022603D01*
X020073Y022552D01*
X019978Y022457D01*
X019927Y022332D01*
X019927Y022318D01*
X019880Y022364D01*
X019880Y022416D01*
X020026Y022562D01*
X020093Y022629D01*
X020130Y022717D01*
X020130Y023275D01*
X020652Y023275D01*
X020698Y023228D01*
X020823Y023177D01*
X020957Y023177D01*
X021082Y023228D01*
X021177Y023323D01*
X021228Y023448D01*
X021228Y023582D01*
X021177Y023707D01*
X021082Y023802D01*
X020957Y023853D01*
X020823Y023853D01*
X020698Y023802D01*
X020652Y023755D01*
X020130Y023755D01*
X020130Y024797D01*
X020198Y024728D01*
X020323Y024677D01*
X020457Y024677D01*
X020582Y024728D01*
X020677Y024823D01*
X020728Y024948D01*
X020728Y025082D01*
X020677Y025207D01*
X020582Y025302D01*
X020481Y025343D01*
X020930Y025343D01*
X020930Y025289D01*
X021045Y025174D01*
X021174Y025045D01*
X021718Y025045D01*
X021718Y021775D01*
X021812Y021682D01*
X022535Y021682D01*
X022629Y021775D01*
X022629Y022350D01*
X023014Y022350D01*
X023468Y021896D01*
X023468Y021588D01*
X023541Y021515D01*
X023468Y021442D01*
X023468Y021360D01*
X023398Y021360D01*
X023332Y021427D01*
X023207Y021478D01*
X023073Y021478D01*
X022948Y021427D01*
X022853Y021332D01*
X022802Y021207D01*
X022802Y021073D01*
X022853Y020948D01*
X022948Y020853D01*
X023073Y020802D01*
X023207Y020802D01*
X023332Y020853D01*
X023398Y020920D01*
X023468Y020920D01*
X023468Y020838D01*
X023541Y020765D01*
X023468Y020692D01*
X023468Y020088D01*
X023562Y019994D01*
X024009Y019994D01*
X024103Y020088D01*
X024103Y020692D01*
X024031Y020765D01*
X024103Y020838D01*
X024103Y021442D01*
X024031Y021515D01*
X024103Y021588D01*
X024103Y022192D01*
X024031Y022265D01*
X024103Y022338D01*
X024103Y022942D01*
X024009Y023036D01*
X023562Y023036D01*
X023558Y023033D01*
X023486Y023105D01*
X022629Y023105D01*
X022629Y023305D01*
X028383Y023305D01*
X028365Y023287D01*
X028365Y023113D01*
X028488Y022990D01*
X028662Y022990D01*
X028943Y023271D01*
X028950Y023254D01*
X029079Y023125D01*
X029248Y023055D01*
X030031Y023055D01*
X030201Y023125D01*
X030330Y023254D01*
X030400Y023423D01*
X030400Y023606D01*
X030330Y023776D01*
X030201Y023905D01*
X030031Y023975D01*
X029248Y023975D01*
X029079Y023905D01*
X028950Y023776D01*
X028929Y023725D01*
X028897Y023725D01*
X029233Y024061D01*
X029248Y024055D01*
X030031Y024055D01*
X030201Y024125D01*
X030330Y024254D01*
X030400Y024423D01*
X030400Y024606D01*
X030330Y024776D01*
X030201Y024905D01*
X030031Y024975D01*
X029248Y024975D01*
X029079Y024905D01*
X028950Y024776D01*
X028880Y024606D01*
X028880Y024423D01*
X028916Y024338D01*
X028303Y023725D01*
X027772Y023725D01*
X027974Y023927D01*
X028082Y023927D01*
X028207Y023978D01*
X028302Y024073D01*
X028353Y024198D01*
X028353Y024332D01*
X028302Y024457D01*
X028207Y024552D01*
X028082Y024603D01*
X027948Y024603D01*
X027823Y024552D01*
X027728Y024457D01*
X027677Y024332D01*
X027677Y024224D01*
X027493Y024040D01*
X024976Y024040D01*
X024990Y024054D01*
X026860Y025924D01*
X026860Y027106D01*
X026731Y027235D01*
X026600Y027366D01*
X026600Y027706D01*
X026331Y027975D01*
X025949Y027975D01*
X025680Y027706D01*
X025680Y027324D01*
X025949Y027055D01*
X026289Y027055D01*
X026420Y026924D01*
X026420Y026886D01*
X026331Y026975D01*
X025949Y026975D01*
X025860Y026886D01*
X025860Y027106D01*
X025731Y027235D01*
X025600Y027366D01*
X025600Y027706D01*
X025331Y027975D01*
X024949Y027975D01*
X024680Y027706D01*
X024680Y027324D01*
X024949Y027055D01*
X025289Y027055D01*
X025420Y026924D01*
X025420Y026886D01*
X025331Y026975D01*
X024949Y026975D01*
X024860Y026886D01*
X024860Y027106D01*
X024600Y027366D01*
X024600Y027706D01*
X024331Y027975D01*
X023949Y027975D01*
X023680Y027706D01*
X023680Y027324D01*
X023949Y027055D01*
X024289Y027055D01*
X024420Y026924D01*
X024420Y026886D01*
X024331Y026975D01*
X023949Y026975D01*
X023680Y026706D01*
X023680Y026324D01*
X023909Y026095D01*
X023799Y025985D01*
X021856Y025985D01*
X021823Y026018D01*
X021723Y026018D01*
X021723Y026045D01*
X022981Y026045D01*
X022991Y026055D01*
X023331Y026055D01*
X023600Y026324D01*
X023600Y026706D01*
X023331Y026975D01*
X022949Y026975D01*
X022680Y026706D01*
X022680Y026485D01*
X022421Y026485D01*
X022991Y027055D01*
X023331Y027055D01*
X023600Y027324D01*
X023600Y027706D01*
X023331Y027975D01*
X022949Y027975D01*
X022680Y027706D01*
X022680Y027366D01*
X022049Y026735D01*
X020799Y026735D01*
X020670Y026606D01*
X020318Y026254D01*
X019725Y026254D01*
X019632Y026160D01*
X019632Y025437D01*
X019650Y025418D01*
X019650Y022864D01*
X019437Y022651D01*
X019400Y022563D01*
X019400Y022217D01*
X019437Y022129D01*
X019504Y022062D01*
X019960Y021606D01*
X019947Y021593D01*
X019947Y020870D01*
X020040Y020776D01*
X021245Y020776D01*
X021245Y020485D01*
X018546Y020485D01*
X018610Y020549D01*
X018837Y020776D01*
X019740Y020776D01*
X019833Y020870D01*
X019833Y021593D01*
X019740Y021687D01*
X018150Y021687D01*
X018057Y021593D01*
X018057Y021452D01*
X017390Y021452D01*
X017360Y021481D01*
X017231Y021610D01*
X016549Y021610D01*
X016417Y021478D01*
X016323Y021478D01*
X016198Y021427D01*
X016103Y021332D01*
X016052Y021207D01*
X016052Y021073D01*
X016103Y020948D01*
X016198Y020853D01*
X016323Y020802D01*
X016457Y020802D01*
X016552Y020841D01*
X016552Y020823D01*
X016603Y020698D01*
X016698Y020603D01*
X016823Y020552D01*
X016917Y020552D01*
X016984Y020485D01*
X015571Y020485D01*
X015331Y020725D01*
X014949Y020725D01*
X014860Y020636D01*
X014860Y020674D01*
X014991Y020805D01*
X015331Y020805D01*
X015600Y021074D01*
X015600Y021414D01*
X016576Y022389D01*
X016552Y022332D01*
X016552Y022198D01*
X016603Y022073D01*
X016698Y021978D01*
X016823Y021927D01*
X016917Y021927D01*
X017124Y021720D01*
X017207Y021720D01*
X017245Y021682D01*
X017968Y021682D01*
X018062Y021775D01*
X018062Y022035D01*
X018596Y022035D01*
X018613Y022052D01*
X018707Y022052D01*
X018832Y022103D01*
X018927Y022198D01*
X018978Y022323D01*
X018978Y022457D01*
X018927Y022582D01*
X018832Y022677D01*
X018769Y022703D01*
X018832Y022728D01*
X018927Y022823D01*
X018978Y022948D01*
X018978Y023082D01*
X018927Y023207D01*
X018832Y023302D01*
X018707Y023353D01*
X018573Y023353D01*
X018448Y023302D01*
X018353Y023207D01*
X018302Y023082D01*
X018302Y022988D01*
X018104Y022790D01*
X018062Y022790D01*
X018062Y025045D01*
X018606Y025045D01*
X018735Y025174D01*
X018850Y025289D01*
X018850Y025343D01*
X019425Y025343D01*
X019519Y025437D01*
X019519Y026160D01*
X019470Y026208D01*
X019470Y027048D01*
X019559Y027137D01*
X020138Y027137D01*
X020175Y027175D01*
X020252Y027098D01*
X020778Y027098D01*
X020872Y027192D01*
X020872Y027757D01*
X020778Y027851D01*
X020252Y027851D01*
X020232Y027831D01*
X020232Y027836D01*
X020138Y027930D01*
X019455Y027930D01*
X019361Y027836D01*
X019361Y027533D01*
X019050Y027222D01*
X019050Y027143D01*
X018392Y027143D01*
X018298Y027049D01*
X018298Y026956D01*
X018122Y026956D01*
X018122Y027088D01*
X018028Y027182D01*
X017502Y027182D01*
X017408Y027088D01*
X017408Y026523D01*
X017502Y026429D01*
X018028Y026429D01*
X018122Y026523D01*
X018122Y026536D01*
X018298Y026536D01*
X018298Y026444D01*
X018392Y026350D01*
X018735Y026350D01*
X018735Y026254D01*
X018150Y026254D01*
X018057Y026160D01*
X018057Y025659D01*
X017981Y025735D01*
X016356Y025735D01*
X015360Y026731D01*
X015360Y026731D01*
X015246Y026845D01*
X015350Y026949D01*
X015350Y027331D01*
X015081Y027600D01*
X014699Y027600D01*
X014430Y027331D01*
X014430Y026949D01*
X014519Y026860D01*
X014481Y026860D01*
X014350Y026991D01*
X014350Y027331D01*
X014081Y027600D01*
X013699Y027600D01*
X013430Y027331D01*
X013430Y026949D01*
X013699Y026680D01*
X014039Y026680D01*
X014299Y026420D01*
X014519Y026420D01*
X014430Y026331D01*
X014430Y025949D01*
X014670Y025709D01*
X014670Y025671D01*
X014350Y025991D01*
X014350Y026331D01*
X014081Y026600D01*
X013699Y026600D01*
X013430Y026331D01*
X013430Y025949D01*
X013699Y025680D01*
X014039Y025680D01*
X015282Y024437D01*
X014713Y024437D01*
X014640Y024364D01*
X014567Y024437D01*
X013963Y024437D01*
X013890Y024364D01*
X013817Y024437D01*
X013213Y024437D01*
X013119Y024343D01*
X013119Y023896D01*
X013213Y023802D01*
X013817Y023802D01*
X013890Y023874D01*
X013963Y023802D01*
X014567Y023802D01*
X014640Y023874D01*
X014713Y023802D01*
X015317Y023802D01*
X015411Y023896D01*
X015411Y023925D01*
X015989Y023925D01*
X014549Y022485D01*
X013049Y022485D01*
X012289Y021725D01*
X011960Y021725D01*
X011960Y025007D01*
X012666Y025713D01*
X012699Y025680D01*
X013081Y025680D01*
X013350Y025949D01*
X013350Y026331D01*
X013081Y026600D01*
X012699Y026600D01*
X012548Y026448D01*
X012459Y026411D01*
X011459Y025411D01*
X011369Y025321D01*
X011320Y025204D01*
X011320Y021898D01*
X011147Y021725D01*
X010949Y021725D01*
X010680Y021456D01*
X010680Y021074D01*
X010784Y020970D01*
X010049Y020235D01*
X003799Y020235D01*
X002920Y019356D01*
X002920Y019174D01*
X002930Y019164D01*
X002930Y017268D01*
X002928Y017184D01*
X002930Y017182D01*
X002930Y017178D01*
X002989Y017119D01*
X005055Y014932D01*
X005055Y014928D01*
X005114Y014869D01*
X005172Y014808D01*
X005176Y014807D01*
X005178Y014805D01*
X005262Y014805D01*
X005346Y014803D01*
X005348Y014805D01*
X006159Y014805D01*
X006024Y014670D01*
X004834Y014670D01*
X004731Y014627D01*
X004106Y014002D01*
X004028Y013924D01*
X003985Y013821D01*
X002800Y013821D01*
X002800Y013743D02*
X003985Y013743D01*
X003985Y013821D02*
X003985Y011459D01*
X004028Y011356D01*
X004068Y011317D01*
X004068Y010614D01*
X004155Y010403D01*
X004316Y010242D01*
X004526Y010155D01*
X004754Y010155D01*
X004964Y010242D01*
X005125Y010403D01*
X005212Y010614D01*
X005212Y011666D01*
X005125Y011877D01*
X004964Y012038D01*
X004754Y012125D01*
X004545Y012125D01*
X004545Y013649D01*
X005006Y014110D01*
X005555Y014110D01*
X005473Y014028D01*
X005473Y013502D01*
X005567Y013408D01*
X005839Y013408D01*
X005897Y013350D01*
X004545Y013350D01*
X004545Y013272D02*
X006242Y013272D01*
X006242Y013350D02*
X005897Y013350D01*
X005980Y013550D02*
X005880Y013650D01*
X006860Y014630D01*
X007060Y014630D01*
X007070Y014620D01*
X007070Y014200D01*
X006420Y013550D01*
X005980Y013550D01*
X005944Y013586D02*
X006456Y013586D01*
X006534Y013664D02*
X005894Y013664D01*
X005973Y013743D02*
X006613Y013743D01*
X006691Y013821D02*
X006051Y013821D01*
X006130Y013900D02*
X006770Y013900D01*
X006848Y013978D02*
X006208Y013978D01*
X006287Y014057D02*
X006927Y014057D01*
X007005Y014135D02*
X006365Y014135D01*
X006444Y014214D02*
X007070Y014214D01*
X007070Y014292D02*
X006522Y014292D01*
X006601Y014371D02*
X007070Y014371D01*
X007070Y014449D02*
X006679Y014449D01*
X006758Y014528D02*
X007070Y014528D01*
X007070Y014606D02*
X006836Y014606D01*
X007081Y014831D02*
X007081Y015318D01*
X007010Y015390D01*
X007081Y015462D01*
X007081Y015949D01*
X008199Y015949D01*
X008199Y015265D01*
X008270Y015193D01*
X008199Y015122D01*
X008199Y014831D01*
X007908Y014831D01*
X007712Y014831D01*
X007081Y014831D01*
X007081Y014842D02*
X008199Y014842D01*
X008199Y014920D02*
X007081Y014920D01*
X007081Y014999D02*
X008199Y014999D01*
X008199Y015077D02*
X007081Y015077D01*
X007081Y015156D02*
X008232Y015156D01*
X008229Y015234D02*
X007081Y015234D01*
X007081Y015313D02*
X008199Y015313D01*
X008199Y015391D02*
X007011Y015391D01*
X007081Y015470D02*
X008199Y015470D01*
X008199Y015548D02*
X007081Y015548D01*
X007081Y015627D02*
X008199Y015627D01*
X008199Y015705D02*
X007081Y015705D01*
X007081Y015784D02*
X008199Y015784D01*
X008199Y015862D02*
X007081Y015862D01*
X007081Y015941D02*
X008199Y015941D01*
X008585Y015193D02*
X008588Y015190D01*
X008590Y015190D01*
X008480Y014630D02*
X008210Y014630D01*
X008210Y014180D01*
X008840Y013550D01*
X009200Y013550D01*
X009380Y013730D01*
X008480Y014630D01*
X008504Y014606D02*
X008210Y014606D01*
X008210Y014528D02*
X008582Y014528D01*
X008661Y014449D02*
X008210Y014449D01*
X008210Y014371D02*
X008739Y014371D01*
X008818Y014292D02*
X008210Y014292D01*
X008210Y014214D02*
X008896Y014214D01*
X008975Y014135D02*
X008255Y014135D01*
X008333Y014057D02*
X009053Y014057D01*
X009132Y013978D02*
X008412Y013978D01*
X008490Y013900D02*
X009210Y013900D01*
X009289Y013821D02*
X008569Y013821D01*
X008647Y013743D02*
X009367Y013743D01*
X009314Y013664D02*
X008726Y013664D01*
X008804Y013586D02*
X009236Y013586D01*
X009341Y013408D02*
X009713Y013408D01*
X009807Y013502D01*
X009807Y014028D01*
X009725Y014110D01*
X010274Y014110D01*
X010735Y013649D01*
X010735Y012125D01*
X010526Y012125D01*
X010316Y012038D01*
X010155Y011877D01*
X010068Y011666D01*
X010068Y010614D01*
X010155Y010403D01*
X010316Y010242D01*
X010526Y010155D01*
X010754Y010155D01*
X010964Y010242D01*
X011125Y010403D01*
X011212Y010614D01*
X011212Y011317D01*
X011252Y011356D01*
X011295Y011459D01*
X011295Y013821D01*
X013828Y013821D01*
X013828Y011459D01*
X013870Y011356D01*
X013910Y011317D01*
X013910Y010614D01*
X013997Y010403D01*
X014158Y010242D01*
X014369Y010155D01*
X014596Y010155D01*
X014807Y010242D01*
X014968Y010403D01*
X015055Y010614D01*
X015055Y011666D01*
X014968Y011877D01*
X014807Y012038D01*
X014596Y012125D01*
X014388Y012125D01*
X014388Y013649D01*
X014848Y014110D01*
X015398Y014110D01*
X015316Y014028D01*
X015316Y013502D01*
X015409Y013408D01*
X015682Y013408D01*
X015740Y013350D01*
X016084Y013350D01*
X016084Y012167D01*
X016178Y012074D01*
X016244Y012074D01*
X016158Y012038D01*
X015997Y011877D01*
X015910Y011666D01*
X015910Y010614D01*
X015997Y010403D01*
X016158Y010242D01*
X016369Y010155D01*
X016596Y010155D01*
X016807Y010242D01*
X016968Y010403D01*
X017055Y010614D01*
X017055Y011317D01*
X017441Y011703D01*
X017483Y011744D01*
X017524Y011703D01*
X017910Y011317D01*
X017910Y010614D01*
X017997Y010403D01*
X018158Y010242D01*
X018369Y010155D01*
X018596Y010155D01*
X018807Y010242D01*
X018968Y010403D01*
X019055Y010614D01*
X019055Y011666D01*
X018968Y011877D01*
X018807Y012038D01*
X018721Y012074D01*
X018787Y012074D01*
X018881Y012167D01*
X018881Y013350D01*
X019125Y013350D01*
X019184Y013408D01*
X019556Y013408D01*
X019649Y013502D01*
X019649Y014028D01*
X019568Y014110D01*
X020117Y014110D01*
X020578Y013649D01*
X020578Y012125D01*
X020369Y012125D01*
X020158Y012038D01*
X019997Y011877D01*
X019910Y011666D01*
X019910Y010614D01*
X019997Y010403D01*
X020158Y010242D01*
X020369Y010155D01*
X020596Y010155D01*
X020807Y010242D01*
X020968Y010403D01*
X021055Y010614D01*
X021055Y011317D01*
X021095Y011356D01*
X021138Y011459D01*
X021138Y013821D01*
X021095Y013924D01*
X021016Y014002D01*
X020391Y014627D01*
X020288Y014670D01*
X020116Y014670D01*
X020144Y014698D01*
X020196Y014823D01*
X020196Y014931D01*
X020318Y015053D01*
X020318Y015179D01*
X020371Y015179D01*
X020464Y015273D01*
X020464Y015838D01*
X020413Y015890D01*
X020464Y015942D01*
X020464Y016507D01*
X020371Y016601D01*
X020193Y016601D01*
X019945Y016850D01*
X019490Y016850D01*
X019845Y017205D01*
X019968Y017328D01*
X019968Y017554D01*
X019996Y017554D01*
X020089Y017648D01*
X020089Y018213D01*
X019996Y018307D01*
X019469Y018307D01*
X019420Y018258D01*
X019413Y018265D01*
X019464Y018317D01*
X019464Y018882D01*
X019371Y018976D01*
X018844Y018976D01*
X018795Y018927D01*
X018746Y018976D01*
X018219Y018976D01*
X018170Y018927D01*
X018121Y018976D01*
X018011Y018976D01*
X018053Y019076D01*
X018053Y019204D01*
X018015Y019295D01*
X020359Y019295D01*
X021109Y018545D01*
X021296Y018545D01*
X022729Y017047D01*
X022742Y017047D01*
X024740Y014932D01*
X024740Y014928D01*
X024799Y014869D01*
X024857Y014808D01*
X024861Y014807D01*
X024863Y014805D01*
X024947Y014805D01*
X025031Y014803D01*
X025034Y014805D01*
X025844Y014805D01*
X025709Y014670D01*
X024519Y014670D01*
X024416Y014627D01*
X023791Y014002D01*
X023713Y013924D01*
X023670Y013821D01*
X023033Y013821D01*
X022997Y013863D02*
X023208Y013612D01*
X023208Y013612D01*
X023320Y013304D01*
X023320Y013057D01*
X023320Y012976D01*
X023208Y012668D01*
X023208Y012668D01*
X022997Y012417D01*
X022997Y012417D01*
X022713Y012253D01*
X022713Y012253D01*
X022390Y012196D01*
X022390Y012196D01*
X022067Y012253D01*
X022067Y012253D01*
X021783Y012417D01*
X021783Y012417D01*
X021572Y012668D01*
X021572Y012668D01*
X021460Y012976D01*
X021460Y013304D01*
X021572Y013612D01*
X021572Y013612D01*
X021783Y013863D01*
X021783Y013863D01*
X022067Y014027D01*
X022067Y014027D01*
X022390Y014084D01*
X022390Y014084D01*
X022713Y014027D01*
X022713Y014027D01*
X022997Y013863D01*
X022997Y013863D01*
X022997Y013863D01*
X022934Y013900D02*
X023703Y013900D01*
X023670Y013821D02*
X023670Y011459D01*
X023713Y011356D01*
X023753Y011317D01*
X023753Y010614D01*
X023840Y010403D01*
X024001Y010242D01*
X024211Y010155D01*
X024439Y010155D01*
X024649Y010242D01*
X024810Y010403D01*
X024898Y010614D01*
X024898Y011666D01*
X024810Y011877D01*
X024649Y012038D01*
X024439Y012125D01*
X024230Y012125D01*
X024230Y013649D01*
X024691Y014110D01*
X025240Y014110D01*
X025158Y014028D01*
X025158Y013502D01*
X025252Y013408D01*
X025524Y013408D01*
X025582Y013350D01*
X024230Y013350D01*
X024230Y013272D02*
X025927Y013272D01*
X025927Y013350D02*
X025582Y013350D01*
X025665Y013550D02*
X025565Y013650D01*
X026545Y014630D01*
X026745Y014630D01*
X026755Y014620D01*
X026755Y014200D01*
X026105Y013550D01*
X025665Y013550D01*
X025630Y013586D02*
X026141Y013586D01*
X026219Y013664D02*
X025579Y013664D01*
X025658Y013743D02*
X026298Y013743D01*
X026376Y013821D02*
X025736Y013821D01*
X025815Y013900D02*
X026455Y013900D01*
X026533Y013978D02*
X025893Y013978D01*
X025972Y014057D02*
X026612Y014057D01*
X026690Y014135D02*
X026050Y014135D01*
X026129Y014214D02*
X026755Y014214D01*
X026755Y014292D02*
X026207Y014292D01*
X026286Y014371D02*
X026755Y014371D01*
X026755Y014449D02*
X026364Y014449D01*
X026443Y014528D02*
X026755Y014528D01*
X026755Y014606D02*
X026521Y014606D01*
X026767Y014831D02*
X026767Y015318D01*
X026695Y015390D01*
X026767Y015462D01*
X026767Y015949D01*
X027884Y015949D01*
X027884Y015265D01*
X027955Y015193D01*
X027884Y015122D01*
X027884Y014831D01*
X027593Y014831D01*
X027450Y014831D01*
X026767Y014831D01*
X026767Y014842D02*
X027884Y014842D01*
X027884Y014920D02*
X026767Y014920D01*
X026767Y014999D02*
X027884Y014999D01*
X027884Y015077D02*
X026767Y015077D01*
X026767Y015156D02*
X027917Y015156D01*
X027914Y015234D02*
X026767Y015234D01*
X026767Y015313D02*
X027884Y015313D01*
X027884Y015391D02*
X026696Y015391D01*
X026767Y015470D02*
X027884Y015470D01*
X027884Y015548D02*
X026767Y015548D01*
X026767Y015627D02*
X027884Y015627D01*
X027884Y015705D02*
X026767Y015705D01*
X026767Y015784D02*
X027884Y015784D01*
X027884Y015862D02*
X026767Y015862D01*
X026767Y015941D02*
X027884Y015941D01*
X028270Y015193D02*
X028273Y015190D01*
X028275Y015190D01*
X028165Y014630D02*
X027895Y014630D01*
X027895Y014180D01*
X028525Y013550D01*
X028885Y013550D01*
X029065Y013730D01*
X028165Y014630D01*
X028189Y014606D02*
X027895Y014606D01*
X027895Y014528D02*
X028268Y014528D01*
X028346Y014449D02*
X027895Y014449D01*
X027895Y014371D02*
X028425Y014371D01*
X028503Y014292D02*
X027895Y014292D01*
X027895Y014214D02*
X028582Y014214D01*
X028660Y014135D02*
X027940Y014135D01*
X028019Y014057D02*
X028739Y014057D01*
X028817Y013978D02*
X028097Y013978D01*
X028176Y013900D02*
X028896Y013900D01*
X028974Y013821D02*
X028254Y013821D01*
X028333Y013743D02*
X029053Y013743D01*
X028999Y013664D02*
X028411Y013664D01*
X028490Y013586D02*
X028921Y013586D01*
X029026Y013408D02*
X028968Y013350D01*
X030420Y013350D01*
X030420Y013272D02*
X028723Y013272D01*
X028723Y013350D02*
X028968Y013350D01*
X029026Y013408D02*
X029398Y013408D01*
X029492Y013502D01*
X029492Y014028D01*
X029410Y014110D01*
X029959Y014110D01*
X030420Y013649D01*
X030420Y012125D01*
X030211Y012125D01*
X030001Y012038D01*
X029840Y011877D01*
X029753Y011666D01*
X029753Y010614D01*
X029840Y010403D01*
X030001Y010242D01*
X030211Y010155D01*
X030439Y010155D01*
X030649Y010242D01*
X030810Y010403D01*
X030898Y010614D01*
X030898Y011317D01*
X030937Y011356D01*
X030980Y011459D01*
X030980Y013821D01*
X033513Y013821D01*
X033513Y011459D01*
X033555Y011356D01*
X033595Y011317D01*
X033595Y010614D01*
X033682Y010403D01*
X033843Y010242D01*
X034054Y010155D01*
X034281Y010155D01*
X034492Y010242D01*
X034653Y010403D01*
X034740Y010614D01*
X034740Y011666D01*
X034653Y011877D01*
X034492Y012038D01*
X034281Y012125D01*
X034073Y012125D01*
X034073Y013649D01*
X034534Y014110D01*
X035083Y014110D01*
X035001Y014028D01*
X035001Y013502D01*
X035094Y013408D01*
X035367Y013408D01*
X035425Y013350D01*
X035769Y013350D01*
X035769Y012167D01*
X035863Y012074D01*
X035929Y012074D01*
X035843Y012038D01*
X035682Y011877D01*
X035595Y011666D01*
X035595Y010614D01*
X035682Y010403D01*
X035843Y010242D01*
X036054Y010155D01*
X036281Y010155D01*
X036492Y010242D01*
X036653Y010403D01*
X036740Y010614D01*
X036740Y011317D01*
X037126Y011703D01*
X037168Y011744D01*
X037209Y011703D01*
X037595Y011317D01*
X037595Y010614D01*
X037682Y010403D01*
X037843Y010242D01*
X038054Y010155D01*
X038281Y010155D01*
X038492Y010242D01*
X038653Y010403D01*
X038740Y010614D01*
X038740Y011666D01*
X038653Y011877D01*
X038492Y012038D01*
X038406Y012074D01*
X038472Y012074D01*
X038566Y012167D01*
X038566Y013350D01*
X038810Y013350D01*
X038869Y013408D01*
X039241Y013408D01*
X039334Y013502D01*
X039334Y014028D01*
X039253Y014110D01*
X039802Y014110D01*
X040263Y013649D01*
X040263Y012125D01*
X040054Y012125D01*
X039843Y012038D01*
X039682Y011877D01*
X039595Y011666D01*
X039595Y010614D01*
X039682Y010403D01*
X039843Y010242D01*
X040054Y010155D01*
X040281Y010155D01*
X040492Y010242D01*
X040653Y010403D01*
X040740Y010614D01*
X040740Y011317D01*
X040780Y011356D01*
X040823Y011459D01*
X040823Y013821D01*
X040780Y013924D01*
X040701Y014002D01*
X040076Y014627D01*
X039973Y014670D01*
X039801Y014670D01*
X039829Y014698D01*
X039881Y014823D01*
X039881Y014931D01*
X040003Y015053D01*
X040003Y015179D01*
X040056Y015179D01*
X040149Y015273D01*
X040149Y015838D01*
X040098Y015890D01*
X040149Y015942D01*
X040149Y016507D01*
X040056Y016601D01*
X039878Y016601D01*
X039630Y016850D01*
X039175Y016850D01*
X039530Y017205D01*
X039653Y017328D01*
X039653Y017554D01*
X039681Y017554D01*
X039774Y017648D01*
X039774Y018213D01*
X039681Y018307D01*
X039154Y018307D01*
X039105Y018258D01*
X039098Y018265D01*
X039149Y018317D01*
X039149Y018820D01*
X039204Y018820D01*
X039321Y018869D01*
X039411Y018959D01*
X039661Y019209D01*
X039710Y019326D01*
X039710Y019459D01*
X039710Y019395D02*
X041850Y019395D01*
X041850Y019316D02*
X039706Y019316D01*
X039673Y019238D02*
X041850Y019238D01*
X041850Y019159D02*
X039612Y019159D01*
X039533Y019081D02*
X041850Y019081D01*
X041850Y019002D02*
X039455Y019002D01*
X039376Y018924D02*
X041850Y018924D01*
X041850Y018845D02*
X039264Y018845D01*
X039149Y018767D02*
X041850Y018767D01*
X041850Y018688D02*
X039149Y018688D01*
X039149Y018610D02*
X041850Y018610D01*
X041850Y018531D02*
X039149Y018531D01*
X039149Y018453D02*
X041850Y018453D01*
X041850Y018374D02*
X039149Y018374D01*
X039143Y018296D02*
X039128Y018296D01*
X039692Y018296D02*
X041850Y018296D01*
X041850Y018217D02*
X039771Y018217D01*
X039774Y018139D02*
X041850Y018139D01*
X041850Y018060D02*
X039774Y018060D01*
X039774Y017982D02*
X041850Y017982D01*
X041850Y017903D02*
X039774Y017903D01*
X039774Y017825D02*
X041850Y017825D01*
X041850Y017746D02*
X039774Y017746D01*
X039774Y017668D02*
X041850Y017668D01*
X041850Y017589D02*
X039716Y017589D01*
X039653Y017511D02*
X041850Y017511D01*
X041850Y017432D02*
X039653Y017432D01*
X039653Y017354D02*
X041850Y017354D01*
X041850Y017275D02*
X039600Y017275D01*
X039521Y017197D02*
X041850Y017197D01*
X041850Y017118D02*
X039443Y017118D01*
X039364Y017040D02*
X041850Y017040D01*
X041850Y016961D02*
X039286Y016961D01*
X039207Y016883D02*
X041850Y016883D01*
X041850Y016804D02*
X039676Y016804D01*
X039754Y016726D02*
X041850Y016726D01*
X041850Y016647D02*
X039833Y016647D01*
X040088Y016569D02*
X041850Y016569D01*
X041850Y016490D02*
X040149Y016490D01*
X040149Y016412D02*
X041850Y016412D01*
X041850Y016333D02*
X040149Y016333D01*
X040149Y016255D02*
X041850Y016255D01*
X041850Y016176D02*
X040149Y016176D01*
X040149Y016098D02*
X041850Y016098D01*
X041850Y016019D02*
X040149Y016019D01*
X040148Y015941D02*
X041850Y015941D01*
X041850Y015862D02*
X040126Y015862D01*
X040149Y015784D02*
X041850Y015784D01*
X041850Y015705D02*
X040149Y015705D01*
X040149Y015627D02*
X041850Y015627D01*
X041850Y015548D02*
X040149Y015548D01*
X040149Y015470D02*
X041850Y015470D01*
X041850Y015391D02*
X040149Y015391D01*
X040149Y015313D02*
X041850Y015313D01*
X041850Y015234D02*
X040111Y015234D01*
X040003Y015156D02*
X041850Y015156D01*
X041850Y015077D02*
X040003Y015077D01*
X039948Y014999D02*
X041850Y014999D01*
X041850Y014920D02*
X039881Y014920D01*
X039881Y014842D02*
X041850Y014842D01*
X041850Y014763D02*
X039856Y014763D01*
X039815Y014685D02*
X041850Y014685D01*
X041850Y014606D02*
X040098Y014606D01*
X040176Y014528D02*
X041850Y014528D01*
X041850Y014449D02*
X040255Y014449D01*
X040333Y014371D02*
X041850Y014371D01*
X041850Y014292D02*
X040412Y014292D01*
X040490Y014214D02*
X041850Y014214D01*
X041850Y014135D02*
X040569Y014135D01*
X040647Y014057D02*
X041850Y014057D01*
X041850Y013978D02*
X040726Y013978D01*
X040790Y013900D02*
X041850Y013900D01*
X041850Y013821D02*
X040822Y013821D01*
X040823Y013743D02*
X041850Y013743D01*
X041850Y013664D02*
X040823Y013664D01*
X040823Y013586D02*
X041850Y013586D01*
X041850Y013507D02*
X040823Y013507D01*
X040823Y013429D02*
X041850Y013429D01*
X041850Y013350D02*
X040823Y013350D01*
X040823Y013272D02*
X041850Y013272D01*
X041850Y013193D02*
X040823Y013193D01*
X040823Y013115D02*
X041850Y013115D01*
X041850Y013036D02*
X040823Y013036D01*
X040823Y012958D02*
X041850Y012958D01*
X041850Y012879D02*
X040823Y012879D01*
X040823Y012801D02*
X041850Y012801D01*
X041850Y012722D02*
X040823Y012722D01*
X040823Y012644D02*
X041850Y012644D01*
X041850Y012565D02*
X040823Y012565D01*
X040823Y012487D02*
X041850Y012487D01*
X041850Y012408D02*
X040823Y012408D01*
X040823Y012330D02*
X041850Y012330D01*
X041850Y012251D02*
X040823Y012251D01*
X040823Y012173D02*
X041850Y012173D01*
X041850Y012094D02*
X040823Y012094D01*
X040823Y012016D02*
X041850Y012016D01*
X041850Y011937D02*
X040823Y011937D01*
X040823Y011859D02*
X041850Y011859D01*
X041850Y011780D02*
X040823Y011780D01*
X040823Y011702D02*
X041850Y011702D01*
X041850Y011623D02*
X040823Y011623D01*
X040823Y011545D02*
X041850Y011545D01*
X041850Y011466D02*
X040823Y011466D01*
X040793Y011388D02*
X041850Y011388D01*
X041850Y011309D02*
X040740Y011309D01*
X040740Y011231D02*
X041850Y011231D01*
X041850Y011152D02*
X040740Y011152D01*
X040740Y011074D02*
X041850Y011074D01*
X041850Y010995D02*
X040740Y010995D01*
X040740Y010917D02*
X041850Y010917D01*
X041850Y010838D02*
X040740Y010838D01*
X040740Y010760D02*
X041850Y010760D01*
X041850Y010681D02*
X040740Y010681D01*
X040735Y010603D02*
X041850Y010603D01*
X041850Y010524D02*
X040703Y010524D01*
X040670Y010446D02*
X041850Y010446D01*
X041850Y010367D02*
X040617Y010367D01*
X040538Y010289D02*
X041850Y010289D01*
X041850Y010210D02*
X040414Y010210D01*
X039921Y010210D02*
X038414Y010210D01*
X038538Y010289D02*
X039797Y010289D01*
X039718Y010367D02*
X038617Y010367D01*
X038670Y010446D02*
X039665Y010446D01*
X039632Y010524D02*
X038703Y010524D01*
X038735Y010603D02*
X039600Y010603D01*
X039595Y010681D02*
X038740Y010681D01*
X038740Y010760D02*
X039595Y010760D01*
X039595Y010838D02*
X038740Y010838D01*
X038740Y010917D02*
X039595Y010917D01*
X039595Y010995D02*
X038740Y010995D01*
X038740Y011074D02*
X039595Y011074D01*
X039595Y011152D02*
X038740Y011152D01*
X038740Y011231D02*
X039595Y011231D01*
X039595Y011309D02*
X038740Y011309D01*
X038740Y011388D02*
X039595Y011388D01*
X039595Y011466D02*
X038740Y011466D01*
X038740Y011545D02*
X039595Y011545D01*
X039595Y011623D02*
X038740Y011623D01*
X038726Y011702D02*
X039610Y011702D01*
X039642Y011780D02*
X038693Y011780D01*
X038660Y011859D02*
X039675Y011859D01*
X039742Y011937D02*
X038593Y011937D01*
X038514Y012016D02*
X039821Y012016D01*
X039979Y012094D02*
X038493Y012094D01*
X038566Y012173D02*
X040263Y012173D01*
X040263Y012251D02*
X038566Y012251D01*
X038566Y012330D02*
X040263Y012330D01*
X040263Y012408D02*
X038566Y012408D01*
X038566Y012487D02*
X040263Y012487D01*
X040263Y012565D02*
X038566Y012565D01*
X038566Y012644D02*
X040263Y012644D01*
X040263Y012722D02*
X038566Y012722D01*
X038566Y012801D02*
X040263Y012801D01*
X040263Y012879D02*
X038566Y012879D01*
X038566Y012958D02*
X040263Y012958D01*
X040263Y013036D02*
X038566Y013036D01*
X038566Y013115D02*
X040263Y013115D01*
X040263Y013193D02*
X038566Y013193D01*
X038566Y013272D02*
X040263Y013272D01*
X040263Y013350D02*
X038810Y013350D01*
X038728Y013550D02*
X038368Y013550D01*
X037738Y014180D01*
X037738Y014630D01*
X038008Y014630D01*
X038908Y013730D01*
X038728Y013550D01*
X038763Y013586D02*
X038332Y013586D01*
X038254Y013664D02*
X038842Y013664D01*
X038895Y013743D02*
X038175Y013743D01*
X038097Y013821D02*
X038817Y013821D01*
X038738Y013900D02*
X038018Y013900D01*
X037940Y013978D02*
X038660Y013978D01*
X038581Y014057D02*
X037861Y014057D01*
X037783Y014135D02*
X038503Y014135D01*
X038424Y014214D02*
X037738Y014214D01*
X037738Y014292D02*
X038346Y014292D01*
X038267Y014371D02*
X037738Y014371D01*
X037738Y014449D02*
X038189Y014449D01*
X038110Y014528D02*
X037738Y014528D01*
X037738Y014606D02*
X038032Y014606D01*
X037726Y014831D02*
X037726Y015122D01*
X037798Y015193D01*
X037726Y015265D01*
X037726Y015949D01*
X036609Y015949D01*
X036609Y015462D01*
X036538Y015390D01*
X036609Y015318D01*
X036609Y014831D01*
X037239Y014831D01*
X037436Y014831D01*
X037726Y014831D01*
X037726Y014842D02*
X036609Y014842D01*
X036609Y014920D02*
X037726Y014920D01*
X037726Y014999D02*
X036609Y014999D01*
X036609Y015077D02*
X037726Y015077D01*
X037760Y015156D02*
X036609Y015156D01*
X036609Y015234D02*
X037757Y015234D01*
X037726Y015313D02*
X036609Y015313D01*
X036539Y015391D02*
X037726Y015391D01*
X037726Y015470D02*
X036609Y015470D01*
X036609Y015548D02*
X037726Y015548D01*
X037726Y015627D02*
X036609Y015627D01*
X036609Y015705D02*
X037726Y015705D01*
X037726Y015784D02*
X036609Y015784D01*
X036609Y015862D02*
X037726Y015862D01*
X037726Y015941D02*
X036609Y015941D01*
X035732Y015377D02*
X035581Y015225D01*
X034883Y015225D01*
X034097Y016055D01*
X034130Y016055D01*
X034620Y016055D01*
X034579Y015957D01*
X034579Y015823D01*
X034631Y015698D01*
X034726Y015603D01*
X034850Y015552D01*
X034985Y015552D01*
X035109Y015603D01*
X035186Y015680D01*
X035206Y015680D01*
X035509Y015377D01*
X035732Y015377D01*
X035668Y015313D02*
X034800Y015313D01*
X034726Y015391D02*
X035495Y015391D01*
X035416Y015470D02*
X034651Y015470D01*
X034577Y015548D02*
X035338Y015548D01*
X035259Y015627D02*
X035132Y015627D01*
X034703Y015627D02*
X034502Y015627D01*
X034428Y015705D02*
X034628Y015705D01*
X034596Y015784D02*
X034354Y015784D01*
X034279Y015862D02*
X034579Y015862D01*
X034579Y015941D02*
X034205Y015941D01*
X034131Y016019D02*
X034605Y016019D01*
X034073Y015470D02*
X030789Y015470D01*
X030802Y015457D02*
X030725Y015533D01*
X030725Y016997D01*
X030802Y017073D01*
X030853Y017198D01*
X030853Y017332D01*
X030802Y017457D01*
X030707Y017552D01*
X030701Y017554D01*
X030804Y017554D01*
X031052Y017306D01*
X031052Y017198D01*
X031103Y017073D01*
X031198Y016978D01*
X031323Y016927D01*
X031457Y016927D01*
X031582Y016978D01*
X031677Y017073D01*
X031728Y017198D01*
X031728Y017332D01*
X031677Y017457D01*
X031582Y017552D01*
X031457Y017603D01*
X031349Y017603D01*
X031152Y017800D01*
X031152Y018213D01*
X031100Y018265D01*
X031152Y018317D01*
X031152Y018400D01*
X031198Y018353D01*
X031323Y018302D01*
X031457Y018302D01*
X031582Y018353D01*
X031677Y018448D01*
X031728Y018573D01*
X031728Y018707D01*
X031677Y018832D01*
X031582Y018927D01*
X031457Y018978D01*
X031323Y018978D01*
X031198Y018927D01*
X031152Y018880D01*
X031152Y018882D01*
X031058Y018976D01*
X030532Y018976D01*
X030483Y018927D01*
X030433Y018976D01*
X029907Y018976D01*
X029813Y018882D01*
X029813Y018317D01*
X029823Y018307D01*
X029312Y018307D01*
X029263Y018258D01*
X029255Y018265D01*
X029307Y018317D01*
X029307Y018882D01*
X029213Y018976D01*
X028687Y018976D01*
X028638Y018927D01*
X028588Y018976D01*
X028062Y018976D01*
X028013Y018927D01*
X027963Y018976D01*
X027854Y018976D01*
X027895Y019076D01*
X027895Y019204D01*
X027857Y019295D01*
X032049Y019295D01*
X032372Y018972D01*
X032372Y017247D01*
X032501Y017118D01*
X032511Y017118D01*
X034583Y014931D01*
X034583Y014928D01*
X034642Y014869D01*
X034700Y014807D01*
X034703Y014807D01*
X034706Y014805D01*
X034790Y014805D01*
X034874Y014803D01*
X034876Y014805D01*
X035687Y014805D01*
X035552Y014670D01*
X034362Y014670D01*
X034259Y014627D01*
X033634Y014002D01*
X033555Y013924D01*
X033513Y013821D01*
X033513Y013743D02*
X030980Y013743D01*
X030980Y013821D02*
X030937Y013924D01*
X030859Y014002D01*
X030859Y014002D01*
X030234Y014627D01*
X030131Y014670D01*
X029958Y014670D01*
X029987Y014698D01*
X030038Y014823D01*
X030038Y014931D01*
X030160Y015053D01*
X030160Y015179D01*
X030185Y015179D01*
X030228Y015073D01*
X030323Y014978D01*
X030448Y014927D01*
X030582Y014927D01*
X030707Y014978D01*
X030802Y015073D01*
X030853Y015198D01*
X030853Y015332D01*
X030802Y015457D01*
X030829Y015391D02*
X034147Y015391D01*
X034221Y015313D02*
X030853Y015313D01*
X030853Y015234D02*
X034296Y015234D01*
X034370Y015156D02*
X030836Y015156D01*
X030803Y015077D02*
X034445Y015077D01*
X034519Y014999D02*
X030727Y014999D01*
X030303Y014999D02*
X030106Y014999D01*
X030160Y015077D02*
X030227Y015077D01*
X030194Y015156D02*
X030160Y015156D01*
X030038Y014920D02*
X034591Y014920D01*
X034668Y014842D02*
X030038Y014842D01*
X030013Y014763D02*
X035645Y014763D01*
X035566Y014685D02*
X029973Y014685D01*
X030255Y014606D02*
X034238Y014606D01*
X034159Y014528D02*
X030333Y014528D01*
X030412Y014449D02*
X034081Y014449D01*
X034002Y014371D02*
X030490Y014371D01*
X030569Y014292D02*
X033924Y014292D01*
X033845Y014214D02*
X030648Y014214D01*
X030726Y014135D02*
X033767Y014135D01*
X033688Y014057D02*
X030805Y014057D01*
X030883Y013978D02*
X033610Y013978D01*
X033545Y013900D02*
X030947Y013900D01*
X030980Y013664D02*
X033513Y013664D01*
X033513Y013586D02*
X030980Y013586D01*
X030980Y013507D02*
X033513Y013507D01*
X033513Y013429D02*
X030980Y013429D01*
X030980Y013350D02*
X033513Y013350D01*
X033513Y013272D02*
X030980Y013272D01*
X030980Y013193D02*
X033513Y013193D01*
X033513Y013115D02*
X030980Y013115D01*
X030980Y013036D02*
X033513Y013036D01*
X033513Y012958D02*
X030980Y012958D01*
X030980Y012879D02*
X033513Y012879D01*
X033513Y012801D02*
X030980Y012801D01*
X030980Y012722D02*
X033513Y012722D01*
X033513Y012644D02*
X030980Y012644D01*
X030980Y012565D02*
X033513Y012565D01*
X033513Y012487D02*
X030980Y012487D01*
X030980Y012408D02*
X033513Y012408D01*
X033513Y012330D02*
X030980Y012330D01*
X030980Y012251D02*
X033513Y012251D01*
X033513Y012173D02*
X030980Y012173D01*
X030980Y012094D02*
X033513Y012094D01*
X033513Y012016D02*
X030980Y012016D01*
X030980Y011937D02*
X033513Y011937D01*
X033513Y011859D02*
X030980Y011859D01*
X030980Y011780D02*
X033513Y011780D01*
X033513Y011702D02*
X030980Y011702D01*
X030980Y011623D02*
X033513Y011623D01*
X033513Y011545D02*
X030980Y011545D01*
X030980Y011466D02*
X033513Y011466D01*
X033542Y011388D02*
X030950Y011388D01*
X030898Y011309D02*
X033595Y011309D01*
X033595Y011231D02*
X030898Y011231D01*
X030898Y011152D02*
X033595Y011152D01*
X033595Y011074D02*
X030898Y011074D01*
X030898Y010995D02*
X033595Y010995D01*
X033595Y010917D02*
X030898Y010917D01*
X030898Y010838D02*
X033595Y010838D01*
X033595Y010760D02*
X030898Y010760D01*
X030898Y010681D02*
X033595Y010681D01*
X033600Y010603D02*
X030893Y010603D01*
X030860Y010524D02*
X033632Y010524D01*
X033665Y010446D02*
X030828Y010446D01*
X030774Y010367D02*
X033718Y010367D01*
X033797Y010289D02*
X030696Y010289D01*
X030572Y010210D02*
X033921Y010210D01*
X034414Y010210D02*
X035921Y010210D01*
X035797Y010289D02*
X034538Y010289D01*
X034617Y010367D02*
X035718Y010367D01*
X035665Y010446D02*
X034670Y010446D01*
X034703Y010524D02*
X035632Y010524D01*
X035600Y010603D02*
X034735Y010603D01*
X034740Y010681D02*
X035595Y010681D01*
X035595Y010760D02*
X034740Y010760D01*
X034740Y010838D02*
X035595Y010838D01*
X035595Y010917D02*
X034740Y010917D01*
X034740Y010995D02*
X035595Y010995D01*
X035595Y011074D02*
X034740Y011074D01*
X034740Y011152D02*
X035595Y011152D01*
X035595Y011231D02*
X034740Y011231D01*
X034740Y011309D02*
X035595Y011309D01*
X035595Y011388D02*
X034740Y011388D01*
X034740Y011466D02*
X035595Y011466D01*
X035595Y011545D02*
X034740Y011545D01*
X034740Y011623D02*
X035595Y011623D01*
X035610Y011702D02*
X034726Y011702D01*
X034693Y011780D02*
X035642Y011780D01*
X035675Y011859D02*
X034660Y011859D01*
X034593Y011937D02*
X035742Y011937D01*
X035821Y012016D02*
X034514Y012016D01*
X034356Y012094D02*
X035843Y012094D01*
X035769Y012173D02*
X034073Y012173D01*
X034073Y012251D02*
X035769Y012251D01*
X035769Y012330D02*
X034073Y012330D01*
X034073Y012408D02*
X035769Y012408D01*
X035769Y012487D02*
X034073Y012487D01*
X034073Y012565D02*
X035769Y012565D01*
X035769Y012644D02*
X034073Y012644D01*
X034073Y012722D02*
X035769Y012722D01*
X035769Y012801D02*
X034073Y012801D01*
X034073Y012879D02*
X035769Y012879D01*
X035769Y012958D02*
X034073Y012958D01*
X034073Y013036D02*
X035769Y013036D01*
X035769Y013115D02*
X034073Y013115D01*
X034073Y013193D02*
X035769Y013193D01*
X035769Y013272D02*
X034073Y013272D01*
X034073Y013350D02*
X035425Y013350D01*
X035508Y013550D02*
X035408Y013650D01*
X036388Y014630D01*
X036588Y014630D01*
X036598Y014620D01*
X036598Y014200D01*
X035948Y013550D01*
X035508Y013550D01*
X035472Y013586D02*
X035983Y013586D01*
X036062Y013664D02*
X035422Y013664D01*
X035500Y013743D02*
X036140Y013743D01*
X036219Y013821D02*
X035579Y013821D01*
X035657Y013900D02*
X036297Y013900D01*
X036376Y013978D02*
X035736Y013978D01*
X035814Y014057D02*
X036454Y014057D01*
X036533Y014135D02*
X035893Y014135D01*
X035971Y014214D02*
X036598Y014214D01*
X036598Y014292D02*
X036050Y014292D01*
X036128Y014371D02*
X036598Y014371D01*
X036598Y014449D02*
X036207Y014449D01*
X036285Y014528D02*
X036598Y014528D01*
X036598Y014606D02*
X036364Y014606D01*
X035590Y015234D02*
X034874Y015234D01*
X033998Y015548D02*
X030725Y015548D01*
X030725Y015627D02*
X033924Y015627D01*
X033850Y015705D02*
X030725Y015705D01*
X030725Y015784D02*
X033775Y015784D01*
X033701Y015862D02*
X030725Y015862D01*
X030725Y015941D02*
X033626Y015941D01*
X033552Y016019D02*
X030725Y016019D01*
X030725Y016098D02*
X033478Y016098D01*
X033403Y016176D02*
X030725Y016176D01*
X030725Y016255D02*
X033329Y016255D01*
X033255Y016333D02*
X030725Y016333D01*
X030725Y016412D02*
X033180Y016412D01*
X033106Y016490D02*
X030725Y016490D01*
X030725Y016569D02*
X033031Y016569D01*
X032957Y016647D02*
X030725Y016647D01*
X030725Y016726D02*
X032883Y016726D01*
X032808Y016804D02*
X030725Y016804D01*
X030725Y016883D02*
X032734Y016883D01*
X032660Y016961D02*
X031540Y016961D01*
X031643Y017040D02*
X032585Y017040D01*
X032500Y017118D02*
X031695Y017118D01*
X031728Y017197D02*
X032422Y017197D01*
X032372Y017275D02*
X031728Y017275D01*
X031719Y017354D02*
X032372Y017354D01*
X032372Y017432D02*
X031687Y017432D01*
X031623Y017511D02*
X032372Y017511D01*
X032372Y017589D02*
X031491Y017589D01*
X031284Y017668D02*
X032372Y017668D01*
X032372Y017746D02*
X031206Y017746D01*
X031152Y017825D02*
X032372Y017825D01*
X032372Y017903D02*
X031152Y017903D01*
X031152Y017982D02*
X032372Y017982D01*
X032372Y018060D02*
X031152Y018060D01*
X031152Y018139D02*
X032372Y018139D01*
X032372Y018217D02*
X031148Y018217D01*
X031131Y018296D02*
X032372Y018296D01*
X032372Y018374D02*
X031602Y018374D01*
X031678Y018453D02*
X032372Y018453D01*
X032372Y018531D02*
X031711Y018531D01*
X031728Y018610D02*
X032372Y018610D01*
X032372Y018688D02*
X031728Y018688D01*
X031704Y018767D02*
X032372Y018767D01*
X032372Y018845D02*
X031663Y018845D01*
X031585Y018924D02*
X032372Y018924D01*
X032342Y019002D02*
X027864Y019002D01*
X027895Y019081D02*
X032263Y019081D01*
X032185Y019159D02*
X027895Y019159D01*
X027881Y019238D02*
X032106Y019238D01*
X032633Y019709D02*
X038990Y019709D01*
X038990Y019787D02*
X032554Y019787D01*
X032476Y019866D02*
X038990Y019866D01*
X038988Y019944D02*
X032397Y019944D01*
X032711Y019630D02*
X038990Y019630D01*
X038990Y019552D02*
X032790Y019552D01*
X032868Y019473D02*
X039020Y019473D01*
X038980Y020023D02*
X024038Y020023D01*
X024103Y020101D02*
X038980Y020101D01*
X038980Y020180D02*
X024103Y020180D01*
X024103Y020258D02*
X038980Y020258D01*
X038980Y020337D02*
X024103Y020337D01*
X024103Y020415D02*
X038980Y020415D01*
X038980Y020494D02*
X037884Y020494D01*
X037911Y020521D02*
X037911Y020968D01*
X037817Y021062D01*
X037650Y021062D01*
X037176Y021536D01*
X037058Y021585D01*
X036991Y021585D01*
X036991Y021646D01*
X036897Y021740D01*
X036723Y021740D01*
X036723Y024646D01*
X036623Y024889D01*
X036457Y025055D01*
X036375Y025252D01*
X036214Y025413D01*
X036004Y025500D01*
X035776Y025500D01*
X035566Y025413D01*
X035405Y025252D01*
X035318Y025041D01*
X035318Y024858D01*
X035230Y024646D01*
X035230Y024384D01*
X035318Y024172D01*
X035318Y023989D01*
X035403Y023782D01*
X035403Y021740D01*
X035229Y021740D01*
X035136Y021646D01*
X035136Y020884D01*
X035229Y020790D01*
X035605Y020790D01*
X035689Y020705D01*
X035932Y020605D01*
X036195Y020605D01*
X036437Y020705D01*
X036522Y020790D01*
X036897Y020790D01*
X036957Y020850D01*
X037119Y020688D01*
X037119Y020521D01*
X037213Y020427D01*
X037445Y020427D01*
X037451Y020424D01*
X037579Y020424D01*
X037585Y020427D01*
X037817Y020427D01*
X037911Y020521D01*
X037911Y020572D02*
X038980Y020572D01*
X038980Y020651D02*
X037911Y020651D01*
X037911Y020729D02*
X038980Y020729D01*
X038980Y020808D02*
X037911Y020808D01*
X037911Y020886D02*
X038980Y020886D01*
X038980Y020965D02*
X037911Y020965D01*
X037836Y021043D02*
X038980Y021043D01*
X038980Y021122D02*
X037590Y021122D01*
X037512Y021200D02*
X038980Y021200D01*
X038980Y021279D02*
X037433Y021279D01*
X037355Y021357D02*
X038980Y021357D01*
X038980Y021436D02*
X037276Y021436D01*
X037198Y021514D02*
X038980Y021514D01*
X038980Y021593D02*
X036991Y021593D01*
X036966Y021671D02*
X038980Y021671D01*
X038980Y021750D02*
X036723Y021750D01*
X036723Y021828D02*
X038980Y021828D01*
X039800Y021828D02*
X041850Y021828D01*
X041850Y021750D02*
X039800Y021750D01*
X039800Y021671D02*
X041850Y021671D01*
X041850Y021593D02*
X039800Y021593D01*
X039800Y021514D02*
X041850Y021514D01*
X041850Y021436D02*
X039800Y021436D01*
X039800Y021357D02*
X041850Y021357D01*
X041850Y021279D02*
X039800Y021279D01*
X039800Y021200D02*
X041850Y021200D01*
X041850Y021122D02*
X039800Y021122D01*
X039800Y021043D02*
X041850Y021043D01*
X041850Y020965D02*
X039800Y020965D01*
X039800Y020886D02*
X041850Y020886D01*
X041850Y020808D02*
X039800Y020808D01*
X039800Y020729D02*
X041850Y020729D01*
X041850Y020651D02*
X039800Y020651D01*
X039800Y020572D02*
X039921Y020572D01*
X039900Y020494D02*
X039800Y020494D01*
X039800Y020415D02*
X039900Y020415D01*
X039900Y020337D02*
X039800Y020337D01*
X039800Y020258D02*
X039900Y020258D01*
X039900Y020180D02*
X039800Y020180D01*
X039800Y020101D02*
X039890Y020101D01*
X039890Y020023D02*
X039800Y020023D01*
X039792Y019944D02*
X039890Y019944D01*
X039890Y019866D02*
X039790Y019866D01*
X039790Y019787D02*
X039899Y019787D01*
X039900Y019709D02*
X039790Y019709D01*
X039790Y019630D02*
X039900Y019630D01*
X039900Y019552D02*
X039790Y019552D01*
X040700Y020337D02*
X041850Y020337D01*
X041850Y020415D02*
X040700Y020415D01*
X040700Y020494D02*
X041850Y020494D01*
X041850Y020572D02*
X040679Y020572D01*
X040179Y021907D02*
X041850Y021907D01*
X041850Y021985D02*
X040258Y021985D01*
X040259Y022064D02*
X041850Y022064D01*
X041850Y022142D02*
X040259Y022142D01*
X040259Y022221D02*
X041850Y022221D01*
X041850Y022299D02*
X040259Y022299D01*
X040259Y022378D02*
X041850Y022378D01*
X041850Y022456D02*
X040259Y022456D01*
X040259Y022535D02*
X041850Y022535D01*
X041850Y022613D02*
X040259Y022613D01*
X040259Y022692D02*
X041850Y022692D01*
X041850Y022770D02*
X040259Y022770D01*
X040259Y022849D02*
X041850Y022849D01*
X041850Y022927D02*
X040259Y022927D01*
X040238Y023006D02*
X041850Y023006D01*
X041850Y023084D02*
X036723Y023084D01*
X036723Y023006D02*
X038542Y023006D01*
X038521Y022927D02*
X036723Y022927D01*
X036723Y022849D02*
X038521Y022849D01*
X038521Y022770D02*
X036723Y022770D01*
X036723Y022692D02*
X038521Y022692D01*
X038521Y022613D02*
X036723Y022613D01*
X036723Y022535D02*
X038521Y022535D01*
X038064Y023555D02*
X041850Y023555D01*
X041850Y023477D02*
X036723Y023477D01*
X036723Y023555D02*
X037716Y023555D01*
X037776Y023530D02*
X037566Y023617D01*
X037405Y023778D01*
X037318Y023989D01*
X037318Y025041D01*
X037405Y025252D01*
X037566Y025413D01*
X037776Y025500D01*
X038004Y025500D01*
X038214Y025413D01*
X038375Y025252D01*
X038462Y025041D01*
X038462Y023989D01*
X038375Y023778D01*
X038214Y023617D01*
X038004Y023530D01*
X037776Y023530D01*
X037549Y023634D02*
X036723Y023634D01*
X036723Y023712D02*
X037471Y023712D01*
X037400Y023791D02*
X036723Y023791D01*
X036723Y023869D02*
X037367Y023869D01*
X037335Y023948D02*
X036723Y023948D01*
X036723Y024026D02*
X037318Y024026D01*
X037318Y024105D02*
X036723Y024105D01*
X036723Y024183D02*
X037318Y024183D01*
X037318Y024262D02*
X036723Y024262D01*
X036723Y024340D02*
X037318Y024340D01*
X037318Y024419D02*
X036723Y024419D01*
X036723Y024497D02*
X037318Y024497D01*
X037318Y024576D02*
X036723Y024576D01*
X036720Y024654D02*
X037318Y024654D01*
X037318Y024733D02*
X036687Y024733D01*
X036655Y024811D02*
X037318Y024811D01*
X037318Y024890D02*
X036622Y024890D01*
X036544Y024968D02*
X037318Y024968D01*
X037320Y025047D02*
X036465Y025047D01*
X036428Y025125D02*
X037352Y025125D01*
X037385Y025204D02*
X036395Y025204D01*
X036345Y025282D02*
X037435Y025282D01*
X037513Y025361D02*
X036267Y025361D01*
X036151Y025439D02*
X037629Y025439D01*
X038151Y025439D02*
X041850Y025439D01*
X041850Y025361D02*
X038267Y025361D01*
X038345Y025282D02*
X041850Y025282D01*
X041850Y025204D02*
X038395Y025204D01*
X038428Y025125D02*
X041850Y025125D01*
X041850Y025047D02*
X038460Y025047D01*
X038462Y024968D02*
X041850Y024968D01*
X041850Y024890D02*
X038462Y024890D01*
X038462Y024811D02*
X041850Y024811D01*
X041850Y024733D02*
X038462Y024733D01*
X038462Y024654D02*
X041850Y024654D01*
X041850Y024576D02*
X038462Y024576D01*
X038462Y024497D02*
X041850Y024497D01*
X041850Y024419D02*
X038462Y024419D01*
X038462Y024340D02*
X041850Y024340D01*
X041850Y024262D02*
X038462Y024262D01*
X038462Y024183D02*
X041850Y024183D01*
X041850Y024105D02*
X038462Y024105D01*
X038462Y024026D02*
X041850Y024026D01*
X041850Y023948D02*
X038445Y023948D01*
X038413Y023869D02*
X041850Y023869D01*
X041850Y023791D02*
X038380Y023791D01*
X038309Y023712D02*
X041850Y023712D01*
X041850Y023634D02*
X038231Y023634D01*
X036723Y023398D02*
X041850Y023398D01*
X041850Y023320D02*
X036723Y023320D01*
X036723Y023241D02*
X041850Y023241D01*
X041850Y023163D02*
X036723Y023163D01*
X036723Y022456D02*
X037190Y022456D01*
X037119Y022378D02*
X036723Y022378D01*
X036723Y022299D02*
X037119Y022299D01*
X037119Y022221D02*
X036723Y022221D01*
X036723Y022142D02*
X037119Y022142D01*
X037119Y022064D02*
X036723Y022064D01*
X036723Y021985D02*
X037119Y021985D01*
X037149Y021907D02*
X036723Y021907D01*
X035403Y021907D02*
X025623Y021907D01*
X025623Y021985D02*
X035403Y021985D01*
X035403Y022064D02*
X025623Y022064D01*
X025623Y022142D02*
X035403Y022142D01*
X035403Y022221D02*
X025595Y022221D01*
X025623Y022192D02*
X025550Y022265D01*
X025623Y022338D01*
X025623Y022942D01*
X025529Y023036D01*
X024924Y023036D01*
X024830Y022942D01*
X024830Y022860D01*
X024812Y022860D01*
X024812Y022942D01*
X024718Y023036D01*
X024271Y023036D01*
X024177Y022942D01*
X024177Y022338D01*
X024249Y022265D01*
X024177Y022192D01*
X024177Y021588D01*
X024249Y021515D01*
X024177Y021442D01*
X024177Y020838D01*
X024271Y020744D01*
X024718Y020744D01*
X024812Y020838D01*
X024812Y020920D01*
X024830Y020920D01*
X024830Y020838D01*
X024924Y020744D01*
X025529Y020744D01*
X025623Y020838D01*
X025623Y021442D01*
X025550Y021515D01*
X025623Y021588D01*
X025623Y022192D01*
X025584Y022299D02*
X035403Y022299D01*
X035403Y022378D02*
X025623Y022378D01*
X025623Y022456D02*
X035403Y022456D01*
X035403Y022535D02*
X025623Y022535D01*
X025623Y022613D02*
X035403Y022613D01*
X035403Y022692D02*
X025623Y022692D01*
X025623Y022770D02*
X035403Y022770D01*
X035403Y022849D02*
X025623Y022849D01*
X025623Y022927D02*
X035403Y022927D01*
X035403Y023006D02*
X028678Y023006D01*
X028756Y023084D02*
X029178Y023084D01*
X029042Y023163D02*
X028835Y023163D01*
X028913Y023241D02*
X028963Y023241D01*
X028473Y023006D02*
X025560Y023006D01*
X024893Y023006D02*
X024749Y023006D01*
X024812Y022927D02*
X024830Y022927D01*
X024240Y023006D02*
X024040Y023006D01*
X024103Y022927D02*
X024177Y022927D01*
X024177Y022849D02*
X024103Y022849D01*
X024103Y022770D02*
X024177Y022770D01*
X024177Y022692D02*
X024103Y022692D01*
X024103Y022613D02*
X024177Y022613D01*
X024177Y022535D02*
X024103Y022535D01*
X024103Y022456D02*
X024177Y022456D01*
X024177Y022378D02*
X024103Y022378D01*
X024065Y022299D02*
X024215Y022299D01*
X024205Y022221D02*
X024075Y022221D01*
X024103Y022142D02*
X024177Y022142D01*
X024177Y022064D02*
X024103Y022064D01*
X024103Y021985D02*
X024177Y021985D01*
X024177Y021907D02*
X024103Y021907D01*
X024103Y021828D02*
X024177Y021828D01*
X024177Y021750D02*
X024103Y021750D01*
X024103Y021671D02*
X024177Y021671D01*
X024177Y021593D02*
X024103Y021593D01*
X024032Y021514D02*
X024248Y021514D01*
X024177Y021436D02*
X024103Y021436D01*
X024103Y021357D02*
X024177Y021357D01*
X024177Y021279D02*
X024103Y021279D01*
X024103Y021200D02*
X024177Y021200D01*
X024177Y021122D02*
X024103Y021122D01*
X024103Y021043D02*
X024177Y021043D01*
X024177Y020965D02*
X024103Y020965D01*
X024103Y020886D02*
X024177Y020886D01*
X024207Y020808D02*
X024073Y020808D01*
X024067Y020729D02*
X035666Y020729D01*
X035822Y020651D02*
X024103Y020651D01*
X024103Y020572D02*
X037119Y020572D01*
X037119Y020651D02*
X036304Y020651D01*
X036461Y020729D02*
X037078Y020729D01*
X036999Y020808D02*
X036915Y020808D01*
X037146Y020494D02*
X024103Y020494D01*
X023505Y020729D02*
X021685Y020729D01*
X021685Y020651D02*
X023468Y020651D01*
X023468Y020572D02*
X021685Y020572D01*
X021685Y020494D02*
X023468Y020494D01*
X023468Y020415D02*
X021685Y020415D01*
X021755Y020337D02*
X023468Y020337D01*
X023468Y020258D02*
X021833Y020258D01*
X021912Y020180D02*
X023468Y020180D01*
X023468Y020101D02*
X021990Y020101D01*
X022069Y020023D02*
X023533Y020023D01*
X023498Y020808D02*
X023221Y020808D01*
X023059Y020808D02*
X021685Y020808D01*
X021723Y020886D02*
X022916Y020886D01*
X022847Y020965D02*
X021723Y020965D01*
X021723Y021043D02*
X022814Y021043D01*
X022802Y021122D02*
X021723Y021122D01*
X021723Y021200D02*
X022802Y021200D01*
X022831Y021279D02*
X021723Y021279D01*
X021723Y021357D02*
X022879Y021357D01*
X022970Y021436D02*
X021723Y021436D01*
X021723Y021514D02*
X023540Y021514D01*
X023468Y021436D02*
X023310Y021436D01*
X023468Y021593D02*
X021723Y021593D01*
X021645Y021671D02*
X023468Y021671D01*
X023468Y021750D02*
X022603Y021750D01*
X022629Y021828D02*
X023468Y021828D01*
X023458Y021907D02*
X022629Y021907D01*
X022629Y021985D02*
X023379Y021985D01*
X023301Y022064D02*
X022629Y022064D01*
X022629Y022142D02*
X023222Y022142D01*
X023144Y022221D02*
X022629Y022221D01*
X022629Y022299D02*
X023065Y022299D01*
X023507Y023084D02*
X028394Y023084D01*
X028365Y023163D02*
X022629Y023163D01*
X022629Y023241D02*
X028365Y023241D01*
X028369Y023791D02*
X027838Y023791D01*
X027916Y023869D02*
X028447Y023869D01*
X028526Y023948D02*
X028132Y023948D01*
X028254Y024026D02*
X028604Y024026D01*
X028683Y024105D02*
X028315Y024105D01*
X028347Y024183D02*
X028761Y024183D01*
X028840Y024262D02*
X028353Y024262D01*
X028350Y024340D02*
X028915Y024340D01*
X028882Y024419D02*
X028317Y024419D01*
X028261Y024497D02*
X028880Y024497D01*
X028880Y024576D02*
X028149Y024576D01*
X027881Y024576D02*
X025512Y024576D01*
X025590Y024654D02*
X028900Y024654D01*
X028932Y024733D02*
X025669Y024733D01*
X025747Y024811D02*
X028986Y024811D01*
X029064Y024890D02*
X025826Y024890D01*
X025904Y024968D02*
X029232Y024968D01*
X030048Y024968D02*
X031318Y024968D01*
X031318Y025041D02*
X031318Y023989D01*
X031405Y023778D01*
X031566Y023617D01*
X031776Y023530D01*
X032004Y023530D01*
X032214Y023617D01*
X032375Y023778D01*
X032462Y023989D01*
X032462Y025041D01*
X032375Y025252D01*
X032214Y025413D01*
X032004Y025500D01*
X031776Y025500D01*
X031566Y025413D01*
X031405Y025252D01*
X031318Y025041D01*
X031320Y025047D02*
X025983Y025047D01*
X026061Y025125D02*
X031352Y025125D01*
X031385Y025204D02*
X026140Y025204D01*
X026218Y025282D02*
X031435Y025282D01*
X031513Y025361D02*
X026297Y025361D01*
X026375Y025439D02*
X031629Y025439D01*
X032151Y025439D02*
X033629Y025439D01*
X033566Y025413D02*
X033776Y025500D01*
X034004Y025500D01*
X034214Y025413D01*
X034375Y025252D01*
X034462Y025041D01*
X034462Y023989D01*
X034375Y023778D01*
X034214Y023617D01*
X034004Y023530D01*
X033776Y023530D01*
X033566Y023617D01*
X033405Y023778D01*
X033318Y023989D01*
X033318Y025041D01*
X033405Y025252D01*
X033566Y025413D01*
X033513Y025361D02*
X032267Y025361D01*
X032345Y025282D02*
X033435Y025282D01*
X033385Y025204D02*
X032395Y025204D01*
X032428Y025125D02*
X033352Y025125D01*
X033320Y025047D02*
X032460Y025047D01*
X032462Y024968D02*
X033318Y024968D01*
X033318Y024890D02*
X032462Y024890D01*
X032462Y024811D02*
X033318Y024811D01*
X033318Y024733D02*
X032462Y024733D01*
X032462Y024654D02*
X033318Y024654D01*
X033318Y024576D02*
X032462Y024576D01*
X032462Y024497D02*
X033318Y024497D01*
X033318Y024419D02*
X032462Y024419D01*
X032462Y024340D02*
X033318Y024340D01*
X033318Y024262D02*
X032462Y024262D01*
X032462Y024183D02*
X033318Y024183D01*
X033318Y024105D02*
X032462Y024105D01*
X032462Y024026D02*
X033318Y024026D01*
X033335Y023948D02*
X032445Y023948D01*
X032413Y023869D02*
X033367Y023869D01*
X033400Y023791D02*
X032380Y023791D01*
X032309Y023712D02*
X033471Y023712D01*
X033549Y023634D02*
X032231Y023634D01*
X032064Y023555D02*
X033716Y023555D01*
X034064Y023555D02*
X035403Y023555D01*
X035403Y023477D02*
X030400Y023477D01*
X030400Y023555D02*
X031716Y023555D01*
X031549Y023634D02*
X030389Y023634D01*
X030356Y023712D02*
X031471Y023712D01*
X031400Y023791D02*
X030315Y023791D01*
X030236Y023869D02*
X031367Y023869D01*
X031335Y023948D02*
X030098Y023948D01*
X030151Y024105D02*
X031318Y024105D01*
X031318Y024183D02*
X030259Y024183D01*
X030333Y024262D02*
X031318Y024262D01*
X031318Y024340D02*
X030365Y024340D01*
X030398Y024419D02*
X031318Y024419D01*
X031318Y024497D02*
X030400Y024497D01*
X030400Y024576D02*
X031318Y024576D01*
X031318Y024654D02*
X030380Y024654D01*
X030348Y024733D02*
X031318Y024733D01*
X031318Y024811D02*
X030294Y024811D01*
X030216Y024890D02*
X031318Y024890D01*
X031318Y024026D02*
X029198Y024026D01*
X029182Y023948D02*
X029120Y023948D01*
X029044Y023869D02*
X029041Y023869D01*
X028965Y023791D02*
X028963Y023791D01*
X027677Y024262D02*
X025198Y024262D01*
X025276Y024340D02*
X027680Y024340D01*
X027713Y024419D02*
X025355Y024419D01*
X025433Y024497D02*
X027769Y024497D01*
X027636Y024183D02*
X025119Y024183D01*
X025041Y024105D02*
X027558Y024105D01*
X026454Y025518D02*
X041850Y025518D01*
X041850Y025596D02*
X026532Y025596D01*
X026611Y025675D02*
X041850Y025675D01*
X041850Y025753D02*
X026689Y025753D01*
X026768Y025832D02*
X041850Y025832D01*
X041850Y025910D02*
X026846Y025910D01*
X026860Y025989D02*
X041850Y025989D01*
X041850Y026067D02*
X030061Y026067D01*
X030031Y026055D02*
X030201Y026125D01*
X030330Y026254D01*
X030400Y026423D01*
X030400Y026606D01*
X030330Y026776D01*
X030201Y026905D01*
X030031Y026975D01*
X029248Y026975D01*
X029079Y026905D01*
X029036Y026862D01*
X029036Y026884D01*
X028942Y026978D01*
X028338Y026978D01*
X028244Y026884D01*
X028244Y026864D01*
X027600Y027508D01*
X027600Y027706D01*
X027331Y027975D01*
X026949Y027975D01*
X026680Y027706D01*
X026680Y027324D01*
X026949Y027055D01*
X027147Y027055D01*
X027959Y026244D01*
X028076Y026195D01*
X029009Y026195D01*
X029079Y026125D01*
X029248Y026055D01*
X030031Y026055D01*
X030221Y026146D02*
X040536Y026146D01*
X040567Y026128D02*
X040567Y026128D01*
X040890Y026071D01*
X041213Y026128D01*
X041497Y026292D01*
X041708Y026543D01*
X041820Y026851D01*
X041820Y027098D01*
X041820Y027179D01*
X041708Y027487D01*
X041497Y027738D01*
X041497Y027738D01*
X041213Y027902D01*
X040890Y027959D01*
X040567Y027902D01*
X040283Y027738D01*
X040072Y027487D01*
X039960Y027179D01*
X039960Y026851D01*
X040072Y026543D01*
X040283Y026292D01*
X040283Y026292D01*
X040567Y026128D01*
X040400Y026224D02*
X030300Y026224D01*
X030350Y026303D02*
X040274Y026303D01*
X040283Y026292D02*
X040283Y026292D01*
X040208Y026381D02*
X030382Y026381D01*
X030400Y026460D02*
X040142Y026460D01*
X040076Y026538D02*
X030400Y026538D01*
X030396Y026617D02*
X040045Y026617D01*
X040072Y026543D02*
X040072Y026543D01*
X040017Y026695D02*
X030363Y026695D01*
X030331Y026774D02*
X039988Y026774D01*
X039960Y026852D02*
X030253Y026852D01*
X030139Y026931D02*
X039960Y026931D01*
X039960Y027009D02*
X028098Y027009D01*
X028020Y027088D02*
X028302Y027088D01*
X028338Y027052D02*
X028942Y027052D01*
X029036Y027146D01*
X029036Y027168D01*
X029079Y027125D01*
X029248Y027055D01*
X030031Y027055D01*
X030201Y027125D01*
X030330Y027254D01*
X030400Y027423D01*
X030400Y027606D01*
X030330Y027776D01*
X030201Y027905D01*
X030031Y027975D01*
X029248Y027975D01*
X029079Y027905D01*
X028950Y027776D01*
X028929Y027725D01*
X028553Y027725D01*
X028484Y027736D01*
X028468Y027725D01*
X028449Y027725D01*
X028410Y027687D01*
X028338Y027687D01*
X028244Y027593D01*
X028244Y027146D01*
X028338Y027052D01*
X028290Y026931D02*
X028177Y026931D01*
X028244Y027166D02*
X027941Y027166D01*
X027863Y027245D02*
X028244Y027245D01*
X028244Y027323D02*
X027784Y027323D01*
X027706Y027402D02*
X028244Y027402D01*
X028244Y027480D02*
X027627Y027480D01*
X027600Y027559D02*
X028244Y027559D01*
X028288Y027637D02*
X027600Y027637D01*
X027590Y027716D02*
X028439Y027716D01*
X028969Y027794D02*
X027511Y027794D01*
X027433Y027873D02*
X029047Y027873D01*
X029191Y027951D02*
X027354Y027951D01*
X026926Y027951D02*
X026354Y027951D01*
X026433Y027873D02*
X026847Y027873D01*
X026769Y027794D02*
X026511Y027794D01*
X026590Y027716D02*
X026690Y027716D01*
X026680Y027637D02*
X026600Y027637D01*
X026600Y027559D02*
X026680Y027559D01*
X026680Y027480D02*
X026600Y027480D01*
X026600Y027402D02*
X026680Y027402D01*
X026681Y027323D02*
X026643Y027323D01*
X026722Y027245D02*
X026760Y027245D01*
X026800Y027166D02*
X026838Y027166D01*
X026860Y027088D02*
X026917Y027088D01*
X026860Y027009D02*
X027193Y027009D01*
X027272Y026931D02*
X026860Y026931D01*
X026860Y026852D02*
X027350Y026852D01*
X027429Y026774D02*
X026860Y026774D01*
X026860Y026695D02*
X027507Y026695D01*
X027586Y026617D02*
X026860Y026617D01*
X026860Y026538D02*
X027664Y026538D01*
X027743Y026460D02*
X026860Y026460D01*
X026860Y026381D02*
X027821Y026381D01*
X027900Y026303D02*
X026860Y026303D01*
X026860Y026224D02*
X028006Y026224D01*
X029059Y026146D02*
X026860Y026146D01*
X026860Y026067D02*
X029219Y026067D01*
X029141Y026931D02*
X028990Y026931D01*
X028978Y027088D02*
X029170Y027088D01*
X029038Y027166D02*
X029036Y027166D01*
X030110Y027088D02*
X039960Y027088D01*
X039960Y027166D02*
X030242Y027166D01*
X030320Y027245D02*
X039984Y027245D01*
X040012Y027323D02*
X030358Y027323D01*
X030391Y027402D02*
X040041Y027402D01*
X040070Y027480D02*
X030400Y027480D01*
X030400Y027559D02*
X040132Y027559D01*
X040072Y027487D02*
X040072Y027487D01*
X040198Y027637D02*
X030387Y027637D01*
X030355Y027716D02*
X040264Y027716D01*
X040283Y027738D02*
X040283Y027738D01*
X040379Y027794D02*
X030311Y027794D01*
X030233Y027873D02*
X040515Y027873D01*
X040567Y027902D02*
X040567Y027902D01*
X040843Y027951D02*
X030089Y027951D01*
X026413Y026931D02*
X026375Y026931D01*
X026335Y027009D02*
X025860Y027009D01*
X025860Y026931D02*
X025905Y026931D01*
X025917Y027088D02*
X025860Y027088D01*
X025838Y027166D02*
X025800Y027166D01*
X025760Y027245D02*
X025722Y027245D01*
X025681Y027323D02*
X025643Y027323D01*
X025680Y027402D02*
X025600Y027402D01*
X025600Y027480D02*
X025680Y027480D01*
X025680Y027559D02*
X025600Y027559D01*
X025600Y027637D02*
X025680Y027637D01*
X025690Y027716D02*
X025590Y027716D01*
X025511Y027794D02*
X025769Y027794D01*
X025847Y027873D02*
X025433Y027873D01*
X025354Y027951D02*
X025926Y027951D01*
X024926Y027951D02*
X024354Y027951D01*
X024433Y027873D02*
X024847Y027873D01*
X024769Y027794D02*
X024511Y027794D01*
X024590Y027716D02*
X024690Y027716D01*
X024680Y027637D02*
X024600Y027637D01*
X024600Y027559D02*
X024680Y027559D01*
X024680Y027480D02*
X024600Y027480D01*
X024600Y027402D02*
X024680Y027402D01*
X024681Y027323D02*
X024643Y027323D01*
X024722Y027245D02*
X024760Y027245D01*
X024800Y027166D02*
X024838Y027166D01*
X024860Y027088D02*
X024917Y027088D01*
X024860Y027009D02*
X025335Y027009D01*
X025375Y026931D02*
X025413Y026931D01*
X024905Y026931D02*
X024860Y026931D01*
X024413Y026931D02*
X024375Y026931D01*
X024335Y027009D02*
X022945Y027009D01*
X022905Y026931D02*
X022867Y026931D01*
X022827Y026852D02*
X022788Y026852D01*
X022748Y026774D02*
X022710Y026774D01*
X022680Y026695D02*
X022631Y026695D01*
X022680Y026617D02*
X022553Y026617D01*
X022474Y026538D02*
X022680Y026538D01*
X022244Y026931D02*
X019470Y026931D01*
X019470Y027009D02*
X022323Y027009D01*
X022401Y027088D02*
X019510Y027088D01*
X019470Y026852D02*
X022166Y026852D01*
X022087Y026774D02*
X019470Y026774D01*
X019470Y026695D02*
X020759Y026695D01*
X020680Y026617D02*
X019470Y026617D01*
X019470Y026538D02*
X020602Y026538D01*
X020523Y026460D02*
X019470Y026460D01*
X019470Y026381D02*
X020445Y026381D01*
X020366Y026303D02*
X019470Y026303D01*
X019470Y026224D02*
X019696Y026224D01*
X019632Y026146D02*
X019519Y026146D01*
X019519Y026067D02*
X019632Y026067D01*
X019632Y025989D02*
X019519Y025989D01*
X019519Y025910D02*
X019632Y025910D01*
X019632Y025832D02*
X019519Y025832D01*
X019519Y025753D02*
X019632Y025753D01*
X019632Y025675D02*
X019519Y025675D01*
X019519Y025596D02*
X019632Y025596D01*
X019632Y025518D02*
X019519Y025518D01*
X019519Y025439D02*
X019632Y025439D01*
X019650Y025361D02*
X019442Y025361D01*
X019650Y025282D02*
X018843Y025282D01*
X018765Y025204D02*
X019650Y025204D01*
X019650Y025125D02*
X018686Y025125D01*
X018608Y025047D02*
X019650Y025047D01*
X019650Y024968D02*
X018062Y024968D01*
X018062Y024890D02*
X019650Y024890D01*
X019650Y024811D02*
X018062Y024811D01*
X018062Y024733D02*
X019650Y024733D01*
X019650Y024654D02*
X018062Y024654D01*
X018062Y024576D02*
X019650Y024576D01*
X019650Y024497D02*
X018062Y024497D01*
X018062Y024419D02*
X019650Y024419D01*
X019650Y024340D02*
X018062Y024340D01*
X018062Y024262D02*
X019650Y024262D01*
X019650Y024183D02*
X018062Y024183D01*
X018062Y024105D02*
X019650Y024105D01*
X019650Y024026D02*
X018062Y024026D01*
X018062Y023948D02*
X019650Y023948D01*
X019650Y023869D02*
X018062Y023869D01*
X018062Y023791D02*
X019650Y023791D01*
X019650Y023712D02*
X018062Y023712D01*
X018062Y023634D02*
X019650Y023634D01*
X019650Y023555D02*
X018062Y023555D01*
X018062Y023477D02*
X019650Y023477D01*
X019650Y023398D02*
X018062Y023398D01*
X018062Y023320D02*
X018492Y023320D01*
X018388Y023241D02*
X018062Y023241D01*
X018062Y023163D02*
X018335Y023163D01*
X018303Y023084D02*
X018062Y023084D01*
X018062Y023006D02*
X018302Y023006D01*
X018241Y022927D02*
X018062Y022927D01*
X018062Y022849D02*
X018162Y022849D01*
X018796Y022692D02*
X019477Y022692D01*
X019421Y022613D02*
X018895Y022613D01*
X018946Y022535D02*
X019400Y022535D01*
X019400Y022456D02*
X018978Y022456D01*
X018978Y022378D02*
X019400Y022378D01*
X019400Y022299D02*
X018968Y022299D01*
X018936Y022221D02*
X019400Y022221D01*
X019431Y022142D02*
X018870Y022142D01*
X018735Y022064D02*
X019502Y022064D01*
X019581Y021985D02*
X018062Y021985D01*
X018062Y021907D02*
X019659Y021907D01*
X019738Y021828D02*
X018062Y021828D01*
X018036Y021750D02*
X019816Y021750D01*
X019756Y021671D02*
X019895Y021671D01*
X019947Y021593D02*
X019833Y021593D01*
X019833Y021514D02*
X019947Y021514D01*
X019947Y021436D02*
X019833Y021436D01*
X019833Y021357D02*
X019947Y021357D01*
X019947Y021279D02*
X019833Y021279D01*
X019833Y021200D02*
X019947Y021200D01*
X019947Y021122D02*
X019833Y021122D01*
X019833Y021043D02*
X019947Y021043D01*
X019947Y020965D02*
X019833Y020965D01*
X019833Y020886D02*
X019947Y020886D01*
X020009Y020808D02*
X019771Y020808D01*
X018790Y020729D02*
X021245Y020729D01*
X021245Y020651D02*
X018712Y020651D01*
X018633Y020572D02*
X021245Y020572D01*
X021245Y020494D02*
X018555Y020494D01*
X018057Y021514D02*
X017327Y021514D01*
X017249Y021593D02*
X018057Y021593D01*
X018135Y021671D02*
X015857Y021671D01*
X015779Y021593D02*
X016531Y021593D01*
X016453Y021514D02*
X015700Y021514D01*
X015622Y021436D02*
X016220Y021436D01*
X016129Y021357D02*
X015600Y021357D01*
X015600Y021279D02*
X016081Y021279D01*
X016052Y021200D02*
X015600Y021200D01*
X015600Y021122D02*
X016052Y021122D01*
X016064Y021043D02*
X015569Y021043D01*
X015490Y020965D02*
X016097Y020965D01*
X016166Y020886D02*
X015412Y020886D01*
X015333Y020808D02*
X016309Y020808D01*
X016471Y020808D02*
X016558Y020808D01*
X016591Y020729D02*
X014915Y020729D01*
X014875Y020651D02*
X014860Y020651D01*
X015405Y020651D02*
X016651Y020651D01*
X016774Y020572D02*
X015483Y020572D01*
X015562Y020494D02*
X016975Y020494D01*
X017094Y021750D02*
X015936Y021750D01*
X016014Y021828D02*
X017016Y021828D01*
X016937Y021907D02*
X016093Y021907D01*
X016171Y021985D02*
X016692Y021985D01*
X016613Y022064D02*
X016250Y022064D01*
X016328Y022142D02*
X016575Y022142D01*
X016552Y022221D02*
X016407Y022221D01*
X016485Y022299D02*
X016552Y022299D01*
X016564Y022378D02*
X016571Y022378D01*
X015462Y023398D02*
X011960Y023398D01*
X011960Y023320D02*
X015383Y023320D01*
X015305Y023241D02*
X011960Y023241D01*
X011960Y023163D02*
X015226Y023163D01*
X015148Y023084D02*
X011960Y023084D01*
X011960Y023006D02*
X015069Y023006D01*
X014991Y022927D02*
X011960Y022927D01*
X011960Y022849D02*
X014912Y022849D01*
X014834Y022770D02*
X011960Y022770D01*
X011960Y022692D02*
X014755Y022692D01*
X014677Y022613D02*
X011960Y022613D01*
X011960Y022535D02*
X014598Y022535D01*
X013609Y022045D02*
X013289Y021725D01*
X012949Y021725D01*
X012680Y021456D01*
X012680Y021116D01*
X012420Y020856D01*
X012420Y020636D01*
X012331Y020725D01*
X011949Y020725D01*
X011680Y020456D01*
X011680Y020116D01*
X011549Y019985D01*
X010421Y019985D01*
X010981Y020545D01*
X011731Y020545D01*
X011860Y020674D01*
X011991Y020805D01*
X012331Y020805D01*
X012600Y021074D01*
X012600Y021414D01*
X013231Y022045D01*
X013609Y022045D01*
X013549Y021985D02*
X013171Y021985D01*
X013093Y021907D02*
X013470Y021907D01*
X013392Y021828D02*
X013014Y021828D01*
X012936Y021750D02*
X013313Y021750D01*
X012896Y021671D02*
X012857Y021671D01*
X012817Y021593D02*
X012779Y021593D01*
X012739Y021514D02*
X012700Y021514D01*
X012680Y021436D02*
X012622Y021436D01*
X012600Y021357D02*
X012680Y021357D01*
X012680Y021279D02*
X012600Y021279D01*
X012600Y021200D02*
X012680Y021200D01*
X012680Y021122D02*
X012600Y021122D01*
X012607Y021043D02*
X012569Y021043D01*
X012528Y020965D02*
X012490Y020965D01*
X012450Y020886D02*
X012412Y020886D01*
X012420Y020808D02*
X012333Y020808D01*
X012420Y020729D02*
X011915Y020729D01*
X011860Y020674D02*
X011860Y020674D01*
X011875Y020651D02*
X011837Y020651D01*
X011796Y020572D02*
X011758Y020572D01*
X011718Y020494D02*
X010930Y020494D01*
X010851Y020415D02*
X011680Y020415D01*
X011680Y020337D02*
X010773Y020337D01*
X010694Y020258D02*
X011680Y020258D01*
X011680Y020180D02*
X010616Y020180D01*
X010537Y020101D02*
X011665Y020101D01*
X011586Y020023D02*
X010459Y020023D01*
X010150Y020337D02*
X002800Y020337D01*
X002800Y020415D02*
X010229Y020415D01*
X010307Y020494D02*
X002800Y020494D01*
X002800Y020572D02*
X010386Y020572D01*
X010464Y020651D02*
X008750Y020651D01*
X008769Y020670D02*
X008856Y020670D01*
X008985Y020799D01*
X009363Y021177D01*
X009457Y021177D01*
X009582Y021228D01*
X009677Y021323D01*
X009728Y021448D01*
X009728Y021582D01*
X009677Y021707D01*
X009582Y021802D01*
X009457Y021853D01*
X009323Y021853D01*
X009198Y021802D01*
X009103Y021707D01*
X009052Y021582D01*
X009052Y021488D01*
X008742Y021178D01*
X008692Y021228D01*
X008088Y021228D01*
X007994Y021134D01*
X007994Y020687D01*
X008088Y020593D01*
X008692Y020593D01*
X008769Y020670D01*
X008915Y020729D02*
X010543Y020729D01*
X010621Y020808D02*
X008994Y020808D01*
X009072Y020886D02*
X010700Y020886D01*
X010778Y020965D02*
X009151Y020965D01*
X009229Y021043D02*
X010711Y021043D01*
X010680Y021122D02*
X009308Y021122D01*
X009513Y021200D02*
X010680Y021200D01*
X010680Y021279D02*
X009632Y021279D01*
X009691Y021357D02*
X010680Y021357D01*
X010680Y021436D02*
X009723Y021436D01*
X009728Y021514D02*
X010739Y021514D01*
X010817Y021593D02*
X009724Y021593D01*
X009691Y021671D02*
X010896Y021671D01*
X011172Y021750D02*
X009634Y021750D01*
X009518Y021828D02*
X011250Y021828D01*
X011320Y021907D02*
X008723Y021907D01*
X008692Y021937D02*
X008088Y021937D01*
X008015Y021864D01*
X007942Y021937D01*
X007868Y021937D01*
X007868Y022008D01*
X008088Y022228D01*
X008088Y022593D01*
X007830Y022851D01*
X007465Y022851D01*
X007207Y022593D01*
X007207Y022228D01*
X007428Y022008D01*
X007428Y021937D01*
X007338Y021937D01*
X007244Y021843D01*
X007244Y021396D01*
X007338Y021302D01*
X007942Y021302D01*
X008015Y021374D01*
X008088Y021302D01*
X008692Y021302D01*
X008786Y021396D01*
X008786Y021843D01*
X008692Y021937D01*
X008815Y021970D02*
X008450Y021970D01*
X008192Y022228D01*
X008192Y022593D01*
X008403Y022804D01*
X008192Y023016D01*
X008192Y023381D01*
X008450Y023639D01*
X008815Y023639D01*
X009035Y023418D01*
X009048Y023418D01*
X009488Y022978D01*
X009582Y022978D01*
X009707Y022927D01*
X009802Y022832D01*
X009853Y022707D01*
X009853Y022573D01*
X009802Y022448D01*
X009707Y022353D01*
X009582Y022302D01*
X009448Y022302D01*
X009323Y022353D01*
X009228Y022448D01*
X009177Y022573D01*
X009177Y022667D01*
X008950Y022893D01*
X008861Y022804D01*
X009073Y022593D01*
X009073Y022228D01*
X008815Y021970D01*
X008829Y021985D02*
X011320Y021985D01*
X011320Y022064D02*
X008908Y022064D01*
X008986Y022142D02*
X011320Y022142D01*
X011320Y022221D02*
X009065Y022221D01*
X009073Y022299D02*
X011320Y022299D01*
X011320Y022378D02*
X009731Y022378D01*
X009805Y022456D02*
X011320Y022456D01*
X011320Y022535D02*
X009837Y022535D01*
X009853Y022613D02*
X011320Y022613D01*
X011320Y022692D02*
X009853Y022692D01*
X009827Y022770D02*
X011320Y022770D01*
X011320Y022849D02*
X009785Y022849D01*
X009706Y022927D02*
X011320Y022927D01*
X011320Y023006D02*
X009461Y023006D01*
X009382Y023084D02*
X011320Y023084D01*
X011320Y023163D02*
X009304Y023163D01*
X009225Y023241D02*
X011320Y023241D01*
X011320Y023320D02*
X009147Y023320D01*
X009068Y023398D02*
X011320Y023398D01*
X011320Y023477D02*
X008977Y023477D01*
X008898Y023555D02*
X011320Y023555D01*
X011320Y023634D02*
X008820Y023634D01*
X008445Y023634D02*
X002800Y023634D01*
X002800Y023712D02*
X005504Y023712D01*
X005423Y023746D02*
X005648Y023652D01*
X005892Y023652D01*
X006117Y023746D01*
X006289Y023918D01*
X006383Y024143D01*
X006383Y024387D01*
X006289Y024612D01*
X006117Y024784D01*
X005892Y024878D01*
X005648Y024878D01*
X005423Y024784D01*
X005250Y024612D01*
X005157Y024387D01*
X005157Y024143D01*
X005250Y023918D01*
X005423Y023746D01*
X005378Y023791D02*
X002800Y023791D01*
X002800Y023869D02*
X005299Y023869D01*
X005238Y023948D02*
X002800Y023948D01*
X002800Y024026D02*
X005206Y024026D01*
X005173Y024105D02*
X002800Y024105D01*
X002800Y024183D02*
X005157Y024183D01*
X005157Y024262D02*
X002800Y024262D01*
X002800Y024340D02*
X005157Y024340D01*
X005170Y024419D02*
X002800Y024419D01*
X002800Y024497D02*
X005203Y024497D01*
X005235Y024576D02*
X002800Y024576D01*
X002800Y024654D02*
X005292Y024654D01*
X005371Y024733D02*
X002800Y024733D01*
X002800Y024811D02*
X005487Y024811D01*
X006053Y024811D02*
X010227Y024811D01*
X010163Y024784D02*
X009991Y024612D01*
X009897Y024387D01*
X009897Y024143D01*
X009991Y023918D01*
X010163Y023746D01*
X010388Y023652D01*
X010632Y023652D01*
X010857Y023746D01*
X011030Y023918D01*
X011123Y024143D01*
X011123Y024387D01*
X011030Y024612D01*
X010857Y024784D01*
X010632Y024878D01*
X010388Y024878D01*
X010163Y024784D01*
X010111Y024733D02*
X006169Y024733D01*
X006247Y024654D02*
X010033Y024654D01*
X009975Y024576D02*
X006305Y024576D01*
X006337Y024497D02*
X009943Y024497D01*
X009910Y024419D02*
X006370Y024419D01*
X006383Y024340D02*
X009897Y024340D01*
X009897Y024262D02*
X006383Y024262D01*
X006383Y024183D02*
X009897Y024183D01*
X009913Y024105D02*
X006367Y024105D01*
X006334Y024026D02*
X009946Y024026D01*
X009978Y023948D02*
X006302Y023948D01*
X006241Y023869D02*
X010039Y023869D01*
X010118Y023791D02*
X006162Y023791D01*
X006036Y023712D02*
X010244Y023712D01*
X010776Y023712D02*
X011320Y023712D01*
X011320Y023791D02*
X010902Y023791D01*
X010981Y023869D02*
X011320Y023869D01*
X011320Y023948D02*
X011042Y023948D01*
X011074Y024026D02*
X011320Y024026D01*
X011320Y024105D02*
X011107Y024105D01*
X011123Y024183D02*
X011320Y024183D01*
X011320Y024262D02*
X011123Y024262D01*
X011123Y024340D02*
X011320Y024340D01*
X011320Y024419D02*
X011110Y024419D01*
X011077Y024497D02*
X011320Y024497D01*
X011320Y024576D02*
X011045Y024576D01*
X010988Y024654D02*
X011320Y024654D01*
X011320Y024733D02*
X010909Y024733D01*
X010793Y024811D02*
X011320Y024811D01*
X011320Y024890D02*
X002800Y024890D01*
X002800Y024968D02*
X011320Y024968D01*
X011320Y025047D02*
X002800Y025047D01*
X002800Y025125D02*
X011320Y025125D01*
X011320Y025204D02*
X002800Y025204D01*
X002800Y025282D02*
X011352Y025282D01*
X011408Y025361D02*
X002800Y025361D01*
X002800Y025439D02*
X011487Y025439D01*
X011565Y025518D02*
X002800Y025518D01*
X002800Y025596D02*
X011644Y025596D01*
X011722Y025675D02*
X002800Y025675D01*
X002800Y025753D02*
X011801Y025753D01*
X011879Y025832D02*
X002800Y025832D01*
X002800Y025910D02*
X011958Y025910D01*
X012036Y025989D02*
X002800Y025989D01*
X002800Y026067D02*
X012115Y026067D01*
X012193Y026146D02*
X004244Y026146D01*
X004213Y026128D02*
X004497Y026292D01*
X004708Y026543D01*
X004820Y026851D01*
X004820Y026932D01*
X004820Y027179D01*
X004708Y027487D01*
X004497Y027738D01*
X004497Y027738D01*
X004213Y027902D01*
X003890Y027959D01*
X003567Y027902D01*
X003283Y027738D01*
X003072Y027487D01*
X002960Y027179D01*
X002960Y026851D01*
X003072Y026543D01*
X003283Y026292D01*
X003283Y026292D01*
X003567Y026128D01*
X003890Y026071D01*
X004213Y026128D01*
X004213Y026128D01*
X004380Y026224D02*
X012272Y026224D01*
X012350Y026303D02*
X004506Y026303D01*
X004497Y026292D02*
X004497Y026292D01*
X004572Y026381D02*
X012429Y026381D01*
X012559Y026460D02*
X004638Y026460D01*
X004704Y026538D02*
X012638Y026538D01*
X013142Y026538D02*
X013638Y026538D01*
X013559Y026460D02*
X013221Y026460D01*
X013299Y026381D02*
X013481Y026381D01*
X013430Y026303D02*
X013350Y026303D01*
X013350Y026224D02*
X013430Y026224D01*
X013430Y026146D02*
X013350Y026146D01*
X013350Y026067D02*
X013430Y026067D01*
X013430Y025989D02*
X013350Y025989D01*
X013311Y025910D02*
X013469Y025910D01*
X013548Y025832D02*
X013232Y025832D01*
X013154Y025753D02*
X013626Y025753D01*
X014044Y025675D02*
X012627Y025675D01*
X012549Y025596D02*
X014123Y025596D01*
X014201Y025518D02*
X012470Y025518D01*
X012392Y025439D02*
X014280Y025439D01*
X014358Y025361D02*
X012313Y025361D01*
X012235Y025282D02*
X014437Y025282D01*
X014515Y025204D02*
X012156Y025204D01*
X012078Y025125D02*
X014594Y025125D01*
X014672Y025047D02*
X011999Y025047D01*
X011960Y024968D02*
X014751Y024968D01*
X014829Y024890D02*
X011960Y024890D01*
X011960Y024811D02*
X014908Y024811D01*
X014986Y024733D02*
X011960Y024733D01*
X011960Y024654D02*
X015065Y024654D01*
X015143Y024576D02*
X011960Y024576D01*
X011960Y024497D02*
X015222Y024497D01*
X014694Y024419D02*
X014586Y024419D01*
X013944Y024419D02*
X013836Y024419D01*
X013885Y023869D02*
X013895Y023869D01*
X014635Y023869D02*
X014645Y023869D01*
X015385Y023869D02*
X015933Y023869D01*
X015854Y023791D02*
X011960Y023791D01*
X011960Y023869D02*
X013145Y023869D01*
X013119Y023948D02*
X011960Y023948D01*
X011960Y024026D02*
X013119Y024026D01*
X013119Y024105D02*
X011960Y024105D01*
X011960Y024183D02*
X013119Y024183D01*
X013119Y024262D02*
X011960Y024262D01*
X011960Y024340D02*
X013119Y024340D01*
X013194Y024419D02*
X011960Y024419D01*
X011960Y023712D02*
X015776Y023712D01*
X015697Y023634D02*
X011960Y023634D01*
X011960Y023555D02*
X015619Y023555D01*
X015540Y023477D02*
X011960Y023477D01*
X011960Y022456D02*
X013020Y022456D01*
X012941Y022378D02*
X011960Y022378D01*
X011960Y022299D02*
X012863Y022299D01*
X012784Y022221D02*
X011960Y022221D01*
X011960Y022142D02*
X012706Y022142D01*
X012627Y022064D02*
X011960Y022064D01*
X011960Y021985D02*
X012549Y021985D01*
X012470Y021907D02*
X011960Y021907D01*
X011960Y021828D02*
X012392Y021828D01*
X012313Y021750D02*
X011960Y021750D01*
X012405Y020651D02*
X012420Y020651D01*
X012420Y019894D02*
X012420Y019799D01*
X012549Y019670D01*
X012638Y019581D01*
X012638Y019299D01*
X012648Y019289D01*
X012648Y017178D01*
X012771Y017055D01*
X015021Y014805D01*
X016002Y014805D01*
X015867Y014670D01*
X014677Y014670D01*
X014574Y014627D01*
X013949Y014002D01*
X013870Y013924D01*
X013828Y013821D01*
X013828Y013743D02*
X011295Y013743D01*
X011295Y013821D02*
X011252Y013924D01*
X011174Y014002D01*
X010549Y014627D01*
X010446Y014670D01*
X010273Y014670D01*
X010302Y014698D01*
X010353Y014823D01*
X010353Y014931D01*
X010475Y015053D01*
X010475Y015179D01*
X010528Y015179D01*
X010622Y015273D01*
X010622Y015680D01*
X010698Y015603D01*
X010823Y015552D01*
X010957Y015552D01*
X011082Y015603D01*
X011177Y015698D01*
X011228Y015823D01*
X011228Y015917D01*
X011235Y015924D01*
X011235Y019007D01*
X011302Y019073D01*
X011353Y018948D01*
X011420Y018882D01*
X011420Y018273D01*
X011353Y018207D01*
X011302Y018082D01*
X011302Y017948D01*
X011353Y017823D01*
X011448Y017728D01*
X011573Y017677D01*
X011707Y017677D01*
X011832Y017728D01*
X011927Y017823D01*
X011978Y017948D01*
X011978Y018082D01*
X011927Y018207D01*
X011860Y018273D01*
X011860Y018882D01*
X011927Y018948D01*
X011978Y019073D01*
X011978Y019207D01*
X011927Y019332D01*
X011832Y019427D01*
X011707Y019478D01*
X011573Y019478D01*
X011448Y019427D01*
X011353Y019332D01*
X011302Y019457D01*
X011213Y019545D01*
X011731Y019545D01*
X011860Y019674D01*
X011991Y019805D01*
X012331Y019805D01*
X012420Y019894D01*
X012420Y019866D02*
X012391Y019866D01*
X012432Y019787D02*
X011973Y019787D01*
X011895Y019709D02*
X012510Y019709D01*
X012589Y019630D02*
X011816Y019630D01*
X011738Y019552D02*
X012638Y019552D01*
X012638Y019473D02*
X011720Y019473D01*
X011560Y019473D02*
X011285Y019473D01*
X011327Y019395D02*
X011416Y019395D01*
X011353Y019331D02*
X011353Y019332D01*
X011353Y019331D01*
X011302Y019074D02*
X011302Y019073D01*
X011302Y019074D01*
X011331Y019002D02*
X011235Y019002D01*
X011235Y018924D02*
X011378Y018924D01*
X011420Y018845D02*
X011235Y018845D01*
X011235Y018767D02*
X011420Y018767D01*
X011420Y018688D02*
X011235Y018688D01*
X011235Y018610D02*
X011420Y018610D01*
X011420Y018531D02*
X011235Y018531D01*
X011235Y018453D02*
X011420Y018453D01*
X011420Y018374D02*
X011235Y018374D01*
X011235Y018296D02*
X011420Y018296D01*
X011364Y018217D02*
X011235Y018217D01*
X011235Y018139D02*
X011325Y018139D01*
X011302Y018060D02*
X011235Y018060D01*
X011235Y017982D02*
X011302Y017982D01*
X011320Y017903D02*
X011235Y017903D01*
X011235Y017825D02*
X011353Y017825D01*
X011431Y017746D02*
X011235Y017746D01*
X011235Y017668D02*
X012648Y017668D01*
X012648Y017746D02*
X011849Y017746D01*
X011927Y017825D02*
X012648Y017825D01*
X012648Y017903D02*
X011960Y017903D01*
X011978Y017982D02*
X012648Y017982D01*
X012648Y018060D02*
X011978Y018060D01*
X011955Y018139D02*
X012648Y018139D01*
X012648Y018217D02*
X011916Y018217D01*
X011860Y018296D02*
X012648Y018296D01*
X012648Y018374D02*
X011860Y018374D01*
X011860Y018453D02*
X012648Y018453D01*
X012648Y018531D02*
X011860Y018531D01*
X011860Y018610D02*
X012648Y018610D01*
X012648Y018688D02*
X011860Y018688D01*
X011860Y018767D02*
X012648Y018767D01*
X012648Y018845D02*
X011860Y018845D01*
X011902Y018924D02*
X012648Y018924D01*
X012648Y019002D02*
X011949Y019002D01*
X011978Y019081D02*
X012648Y019081D01*
X012648Y019159D02*
X011978Y019159D01*
X011966Y019238D02*
X012648Y019238D01*
X012638Y019316D02*
X011933Y019316D01*
X011864Y019395D02*
X012638Y019395D01*
X013318Y019395D02*
X013699Y019395D01*
X013621Y019473D02*
X013318Y019473D01*
X013318Y019552D02*
X013542Y019552D01*
X013464Y019630D02*
X013318Y019630D01*
X013318Y019709D02*
X013420Y019709D01*
X013420Y019674D02*
X014049Y019045D01*
X015731Y019045D01*
X015860Y019174D01*
X015981Y019295D01*
X017450Y019295D01*
X017413Y019204D01*
X017413Y019076D01*
X017454Y018976D01*
X016969Y018976D01*
X016876Y018882D01*
X016876Y018317D01*
X016928Y018265D01*
X016920Y018258D01*
X016871Y018307D01*
X016344Y018307D01*
X016295Y018258D01*
X016246Y018307D01*
X015719Y018307D01*
X015670Y018258D01*
X015663Y018265D01*
X015714Y018317D01*
X015714Y018882D01*
X015621Y018976D01*
X015094Y018976D01*
X015001Y018882D01*
X015001Y018810D01*
X014674Y018810D01*
X014674Y018829D01*
X014580Y018923D01*
X014054Y018923D01*
X013960Y018829D01*
X013960Y018342D01*
X014054Y018249D01*
X014580Y018249D01*
X014674Y018342D01*
X014674Y018390D01*
X015001Y018390D01*
X015001Y018317D01*
X015053Y018265D01*
X015001Y018213D01*
X015001Y017648D01*
X015094Y017554D01*
X015413Y017554D01*
X015413Y017076D01*
X015453Y016980D01*
X015453Y016950D01*
X015340Y017063D01*
X015189Y017125D01*
X015026Y017125D01*
X014875Y017063D01*
X014806Y016993D01*
X014769Y017082D01*
X014674Y017177D01*
X014550Y017228D01*
X014510Y017228D01*
X014359Y017379D01*
X014359Y017688D01*
X014265Y017781D01*
X013700Y017781D01*
X013606Y017688D01*
X013606Y017201D01*
X013700Y017107D01*
X014009Y017107D01*
X014148Y016967D01*
X014144Y016957D01*
X014144Y016823D01*
X014196Y016698D01*
X014291Y016603D01*
X014415Y016552D01*
X014510Y016552D01*
X014566Y016495D01*
X014755Y016495D01*
X014760Y016483D01*
X014768Y016475D01*
X014320Y016475D01*
X013318Y017477D01*
X013318Y019789D01*
X013328Y019799D01*
X013328Y019805D01*
X013331Y019805D01*
X013420Y019894D01*
X013420Y019674D01*
X013420Y019787D02*
X013318Y019787D01*
X013391Y019866D02*
X013420Y019866D01*
X013318Y019316D02*
X013778Y019316D01*
X013856Y019238D02*
X013318Y019238D01*
X013318Y019159D02*
X013935Y019159D01*
X014013Y019081D02*
X013318Y019081D01*
X013318Y019002D02*
X017443Y019002D01*
X017413Y019081D02*
X015767Y019081D01*
X015845Y019159D02*
X017413Y019159D01*
X017427Y019238D02*
X015924Y019238D01*
X015673Y018924D02*
X016917Y018924D01*
X016876Y018845D02*
X015714Y018845D01*
X015714Y018767D02*
X016876Y018767D01*
X016876Y018688D02*
X015714Y018688D01*
X015714Y018610D02*
X016876Y018610D01*
X016876Y018531D02*
X015714Y018531D01*
X015714Y018453D02*
X016876Y018453D01*
X016876Y018374D02*
X015714Y018374D01*
X015708Y018296D02*
X015693Y018296D01*
X016257Y018296D02*
X016333Y018296D01*
X016882Y018296D02*
X016897Y018296D01*
X018022Y019002D02*
X020652Y019002D01*
X020730Y018924D02*
X019423Y018924D01*
X019464Y018845D02*
X020809Y018845D01*
X020887Y018767D02*
X019464Y018767D01*
X019464Y018688D02*
X020966Y018688D01*
X021044Y018610D02*
X019464Y018610D01*
X019464Y018531D02*
X021309Y018531D01*
X021384Y018453D02*
X019464Y018453D01*
X019464Y018374D02*
X021460Y018374D01*
X021535Y018296D02*
X020007Y018296D01*
X020086Y018217D02*
X021610Y018217D01*
X021685Y018139D02*
X020089Y018139D01*
X020089Y018060D02*
X021760Y018060D01*
X021835Y017982D02*
X020089Y017982D01*
X020089Y017903D02*
X021910Y017903D01*
X021985Y017825D02*
X020089Y017825D01*
X020089Y017746D02*
X022060Y017746D01*
X022135Y017668D02*
X020089Y017668D01*
X020031Y017589D02*
X022211Y017589D01*
X022286Y017511D02*
X019968Y017511D01*
X019968Y017432D02*
X022361Y017432D01*
X022436Y017354D02*
X019968Y017354D01*
X019915Y017275D02*
X022511Y017275D01*
X022586Y017197D02*
X019836Y017197D01*
X019758Y017118D02*
X022661Y017118D01*
X022749Y017040D02*
X019679Y017040D01*
X019601Y016961D02*
X022823Y016961D01*
X022897Y016883D02*
X019522Y016883D01*
X019990Y016804D02*
X022972Y016804D01*
X023046Y016726D02*
X020069Y016726D01*
X020147Y016647D02*
X023120Y016647D01*
X023194Y016569D02*
X020403Y016569D01*
X020464Y016490D02*
X023268Y016490D01*
X023342Y016412D02*
X020464Y016412D01*
X020464Y016333D02*
X023416Y016333D01*
X023491Y016255D02*
X020464Y016255D01*
X020464Y016176D02*
X023565Y016176D01*
X023639Y016098D02*
X020464Y016098D01*
X020464Y016019D02*
X023713Y016019D01*
X023787Y015941D02*
X020463Y015941D01*
X020441Y015862D02*
X023861Y015862D01*
X023935Y015784D02*
X020464Y015784D01*
X020464Y015705D02*
X024009Y015705D01*
X024084Y015627D02*
X020464Y015627D01*
X020464Y015548D02*
X024158Y015548D01*
X024232Y015470D02*
X020464Y015470D01*
X020464Y015391D02*
X024306Y015391D01*
X024380Y015313D02*
X020464Y015313D01*
X020426Y015234D02*
X024454Y015234D01*
X024528Y015156D02*
X020318Y015156D01*
X020318Y015077D02*
X024603Y015077D01*
X024677Y014999D02*
X020263Y014999D01*
X020196Y014920D02*
X024748Y014920D01*
X024825Y014842D02*
X020196Y014842D01*
X020171Y014763D02*
X025802Y014763D01*
X025724Y014685D02*
X020130Y014685D01*
X020412Y014606D02*
X024395Y014606D01*
X024317Y014528D02*
X020491Y014528D01*
X020569Y014449D02*
X024238Y014449D01*
X024160Y014371D02*
X020648Y014371D01*
X020726Y014292D02*
X024081Y014292D01*
X024003Y014214D02*
X020805Y014214D01*
X020883Y014135D02*
X023924Y014135D01*
X023846Y014057D02*
X022548Y014057D01*
X022799Y013978D02*
X023767Y013978D01*
X023670Y013743D02*
X023098Y013743D01*
X023164Y013664D02*
X023670Y013664D01*
X023670Y013586D02*
X023218Y013586D01*
X023246Y013507D02*
X023670Y013507D01*
X023670Y013429D02*
X023275Y013429D01*
X023303Y013350D02*
X023670Y013350D01*
X023670Y013272D02*
X023320Y013272D01*
X023320Y013193D02*
X023670Y013193D01*
X023670Y013115D02*
X023320Y013115D01*
X023320Y013036D02*
X023670Y013036D01*
X023670Y012958D02*
X023313Y012958D01*
X023285Y012879D02*
X023670Y012879D01*
X023670Y012801D02*
X023256Y012801D01*
X023228Y012722D02*
X023670Y012722D01*
X023670Y012644D02*
X023187Y012644D01*
X023122Y012565D02*
X023670Y012565D01*
X023670Y012487D02*
X023056Y012487D01*
X022982Y012408D02*
X023670Y012408D01*
X023670Y012330D02*
X022846Y012330D01*
X022704Y012251D02*
X023670Y012251D01*
X023670Y012173D02*
X021138Y012173D01*
X021138Y012251D02*
X022076Y012251D01*
X021934Y012330D02*
X021138Y012330D01*
X021138Y012408D02*
X021798Y012408D01*
X021783Y012417D02*
X021783Y012417D01*
X021724Y012487D02*
X021138Y012487D01*
X021138Y012565D02*
X021658Y012565D01*
X021593Y012644D02*
X021138Y012644D01*
X021138Y012722D02*
X021552Y012722D01*
X021524Y012801D02*
X021138Y012801D01*
X021138Y012879D02*
X021495Y012879D01*
X021467Y012958D02*
X021138Y012958D01*
X021138Y013036D02*
X021460Y013036D01*
X021460Y013115D02*
X021138Y013115D01*
X021138Y013193D02*
X021460Y013193D01*
X021460Y013272D02*
X021138Y013272D01*
X021138Y013350D02*
X021477Y013350D01*
X021505Y013429D02*
X021138Y013429D01*
X021138Y013507D02*
X021534Y013507D01*
X021562Y013586D02*
X021138Y013586D01*
X021138Y013664D02*
X021616Y013664D01*
X021682Y013743D02*
X021138Y013743D01*
X021137Y013821D02*
X021747Y013821D01*
X021846Y013900D02*
X021105Y013900D01*
X021040Y013978D02*
X021981Y013978D01*
X022232Y014057D02*
X020962Y014057D01*
X020563Y013664D02*
X019649Y013664D01*
X019649Y013586D02*
X020578Y013586D01*
X020578Y013507D02*
X019649Y013507D01*
X019576Y013429D02*
X020578Y013429D01*
X020578Y013350D02*
X019125Y013350D01*
X019043Y013550D02*
X018683Y013550D01*
X018053Y014180D01*
X018053Y014630D01*
X018323Y014630D01*
X019223Y013730D01*
X019043Y013550D01*
X019078Y013586D02*
X018647Y013586D01*
X018569Y013664D02*
X019157Y013664D01*
X019210Y013743D02*
X018490Y013743D01*
X018412Y013821D02*
X019132Y013821D01*
X019053Y013900D02*
X018333Y013900D01*
X018255Y013978D02*
X018975Y013978D01*
X018896Y014057D02*
X018176Y014057D01*
X018098Y014135D02*
X018818Y014135D01*
X018739Y014214D02*
X018053Y014214D01*
X018053Y014292D02*
X018661Y014292D01*
X018582Y014371D02*
X018053Y014371D01*
X018053Y014449D02*
X018504Y014449D01*
X018425Y014528D02*
X018053Y014528D01*
X018053Y014606D02*
X018347Y014606D01*
X018041Y014831D02*
X017751Y014831D01*
X017554Y014831D01*
X016924Y014831D01*
X016924Y015318D01*
X016852Y015390D01*
X016924Y015462D01*
X016924Y015949D01*
X018041Y015949D01*
X018041Y015265D01*
X018113Y015193D01*
X018041Y015122D01*
X018041Y014831D01*
X018041Y014842D02*
X016924Y014842D01*
X016924Y014920D02*
X018041Y014920D01*
X018041Y014999D02*
X016924Y014999D01*
X016924Y015077D02*
X018041Y015077D01*
X018075Y015156D02*
X016924Y015156D01*
X016924Y015234D02*
X018072Y015234D01*
X018041Y015313D02*
X016924Y015313D01*
X016854Y015391D02*
X018041Y015391D01*
X018041Y015470D02*
X016924Y015470D01*
X016924Y015548D02*
X018041Y015548D01*
X018041Y015627D02*
X016924Y015627D01*
X016924Y015705D02*
X018041Y015705D01*
X018041Y015784D02*
X016924Y015784D01*
X016924Y015862D02*
X018041Y015862D01*
X018041Y015941D02*
X016924Y015941D01*
X016047Y015377D02*
X015896Y015225D01*
X015195Y015225D01*
X014365Y016055D01*
X014935Y016055D01*
X014894Y015957D01*
X014894Y015823D01*
X014946Y015698D01*
X015041Y015603D01*
X015165Y015552D01*
X015300Y015552D01*
X015424Y015603D01*
X015501Y015680D01*
X015521Y015680D01*
X015824Y015377D01*
X016047Y015377D01*
X015983Y015313D02*
X015107Y015313D01*
X015028Y015391D02*
X015810Y015391D01*
X015731Y015470D02*
X014950Y015470D01*
X014871Y015548D02*
X015653Y015548D01*
X015574Y015627D02*
X015447Y015627D01*
X015018Y015627D02*
X014793Y015627D01*
X014714Y015705D02*
X014943Y015705D01*
X014911Y015784D02*
X014636Y015784D01*
X014557Y015862D02*
X014894Y015862D01*
X014894Y015941D02*
X014479Y015941D01*
X014400Y016019D02*
X014920Y016019D01*
X014278Y015548D02*
X010622Y015548D01*
X010622Y015470D02*
X014356Y015470D01*
X014435Y015391D02*
X010622Y015391D01*
X010622Y015313D02*
X014513Y015313D01*
X014592Y015234D02*
X010583Y015234D01*
X010475Y015156D02*
X014670Y015156D01*
X014749Y015077D02*
X010475Y015077D01*
X010421Y014999D02*
X014827Y014999D01*
X014906Y014920D02*
X010353Y014920D01*
X010353Y014842D02*
X014984Y014842D01*
X014553Y014606D02*
X010570Y014606D01*
X010648Y014528D02*
X014474Y014528D01*
X014396Y014449D02*
X010727Y014449D01*
X010805Y014371D02*
X014317Y014371D01*
X014239Y014292D02*
X010884Y014292D01*
X010962Y014214D02*
X014160Y014214D01*
X014082Y014135D02*
X011041Y014135D01*
X011119Y014057D02*
X014003Y014057D01*
X013925Y013978D02*
X011198Y013978D01*
X011262Y013900D02*
X013860Y013900D01*
X013828Y013664D02*
X011295Y013664D01*
X011295Y013586D02*
X013828Y013586D01*
X013828Y013507D02*
X011295Y013507D01*
X011295Y013429D02*
X013828Y013429D01*
X013828Y013350D02*
X011295Y013350D01*
X011295Y013272D02*
X013828Y013272D01*
X013828Y013193D02*
X011295Y013193D01*
X011295Y013115D02*
X013828Y013115D01*
X013828Y013036D02*
X011295Y013036D01*
X011295Y012958D02*
X013828Y012958D01*
X013828Y012879D02*
X011295Y012879D01*
X011295Y012801D02*
X013828Y012801D01*
X013828Y012722D02*
X011295Y012722D01*
X011295Y012644D02*
X013828Y012644D01*
X013828Y012565D02*
X011295Y012565D01*
X011295Y012487D02*
X013828Y012487D01*
X013828Y012408D02*
X011295Y012408D01*
X011295Y012330D02*
X013828Y012330D01*
X013828Y012251D02*
X011295Y012251D01*
X011295Y012173D02*
X013828Y012173D01*
X013828Y012094D02*
X011295Y012094D01*
X011295Y012016D02*
X013828Y012016D01*
X013828Y011937D02*
X011295Y011937D01*
X011295Y011859D02*
X013828Y011859D01*
X013828Y011780D02*
X011295Y011780D01*
X011295Y011702D02*
X013828Y011702D01*
X013828Y011623D02*
X011295Y011623D01*
X011295Y011545D02*
X013828Y011545D01*
X013828Y011466D02*
X011295Y011466D01*
X011265Y011388D02*
X013857Y011388D01*
X013910Y011309D02*
X011212Y011309D01*
X011212Y011231D02*
X013910Y011231D01*
X013910Y011152D02*
X011212Y011152D01*
X011212Y011074D02*
X013910Y011074D01*
X013910Y010995D02*
X011212Y010995D01*
X011212Y010917D02*
X013910Y010917D01*
X013910Y010838D02*
X011212Y010838D01*
X011212Y010760D02*
X013910Y010760D01*
X013910Y010681D02*
X011212Y010681D01*
X011208Y010603D02*
X013915Y010603D01*
X013947Y010524D02*
X011175Y010524D01*
X011143Y010446D02*
X013980Y010446D01*
X014033Y010367D02*
X011089Y010367D01*
X011011Y010289D02*
X014112Y010289D01*
X014236Y010210D02*
X010887Y010210D01*
X010393Y010210D02*
X008887Y010210D01*
X008964Y010242D02*
X009125Y010403D01*
X009212Y010614D01*
X009212Y011666D01*
X009125Y011877D01*
X008964Y012038D01*
X008878Y012074D01*
X008944Y012074D01*
X009038Y012167D01*
X009038Y013350D01*
X009283Y013350D01*
X010735Y013350D01*
X010735Y013272D02*
X009038Y013272D01*
X009038Y013193D02*
X010735Y013193D01*
X010735Y013115D02*
X009038Y013115D01*
X009038Y013036D02*
X010735Y013036D01*
X010735Y012958D02*
X009038Y012958D01*
X009038Y012879D02*
X010735Y012879D01*
X010735Y012801D02*
X009038Y012801D01*
X009038Y012722D02*
X010735Y012722D01*
X010735Y012644D02*
X009038Y012644D01*
X009038Y012565D02*
X010735Y012565D01*
X010735Y012487D02*
X009038Y012487D01*
X009038Y012408D02*
X010735Y012408D01*
X010735Y012330D02*
X009038Y012330D01*
X009038Y012251D02*
X010735Y012251D01*
X010735Y012173D02*
X009038Y012173D01*
X008965Y012094D02*
X010451Y012094D01*
X010293Y012016D02*
X008987Y012016D01*
X009065Y011937D02*
X010215Y011937D01*
X010147Y011859D02*
X009133Y011859D01*
X009165Y011780D02*
X010115Y011780D01*
X010082Y011702D02*
X009198Y011702D01*
X009212Y011623D02*
X010068Y011623D01*
X010068Y011545D02*
X009212Y011545D01*
X009212Y011466D02*
X010068Y011466D01*
X010068Y011388D02*
X009212Y011388D01*
X009212Y011309D02*
X010068Y011309D01*
X010068Y011231D02*
X009212Y011231D01*
X009212Y011152D02*
X010068Y011152D01*
X010068Y011074D02*
X009212Y011074D01*
X009212Y010995D02*
X010068Y010995D01*
X010068Y010917D02*
X009212Y010917D01*
X009212Y010838D02*
X010068Y010838D01*
X010068Y010760D02*
X009212Y010760D01*
X009212Y010681D02*
X010068Y010681D01*
X010072Y010603D02*
X009208Y010603D01*
X009175Y010524D02*
X010105Y010524D01*
X010137Y010446D02*
X009143Y010446D01*
X009089Y010367D02*
X010191Y010367D01*
X010269Y010289D02*
X009011Y010289D01*
X008964Y010242D02*
X008754Y010155D01*
X008526Y010155D01*
X008316Y010242D01*
X008155Y010403D01*
X008068Y010614D01*
X008068Y011317D01*
X007681Y011703D01*
X007640Y011744D01*
X007599Y011703D01*
X007212Y011317D01*
X007212Y010614D01*
X007125Y010403D01*
X006964Y010242D01*
X006754Y010155D01*
X006526Y010155D01*
X006316Y010242D01*
X006155Y010403D01*
X006068Y010614D01*
X006068Y011666D01*
X006155Y011877D01*
X006316Y012038D01*
X006402Y012074D01*
X006336Y012074D01*
X006242Y012167D01*
X006242Y013350D01*
X006242Y013193D02*
X004545Y013193D01*
X004545Y013115D02*
X006242Y013115D01*
X006242Y013036D02*
X004545Y013036D01*
X004545Y012958D02*
X006242Y012958D01*
X006242Y012879D02*
X004545Y012879D01*
X004545Y012801D02*
X006242Y012801D01*
X006242Y012722D02*
X004545Y012722D01*
X004545Y012644D02*
X006242Y012644D01*
X006242Y012565D02*
X004545Y012565D01*
X004545Y012487D02*
X006242Y012487D01*
X006242Y012408D02*
X004545Y012408D01*
X004545Y012330D02*
X006242Y012330D01*
X006242Y012251D02*
X004545Y012251D01*
X004545Y012173D02*
X006242Y012173D01*
X006315Y012094D02*
X004829Y012094D01*
X004987Y012016D02*
X006293Y012016D01*
X006215Y011937D02*
X005065Y011937D01*
X005133Y011859D02*
X006147Y011859D01*
X006115Y011780D02*
X005165Y011780D01*
X005198Y011702D02*
X006082Y011702D01*
X006068Y011623D02*
X005212Y011623D01*
X005212Y011545D02*
X006068Y011545D01*
X006068Y011466D02*
X005212Y011466D01*
X005212Y011388D02*
X006068Y011388D01*
X006068Y011309D02*
X005212Y011309D01*
X005212Y011231D02*
X006068Y011231D01*
X006068Y011152D02*
X005212Y011152D01*
X005212Y011074D02*
X006068Y011074D01*
X006068Y010995D02*
X005212Y010995D01*
X005212Y010917D02*
X006068Y010917D01*
X006068Y010838D02*
X005212Y010838D01*
X005212Y010760D02*
X006068Y010760D01*
X006068Y010681D02*
X005212Y010681D01*
X005208Y010603D02*
X006072Y010603D01*
X006105Y010524D02*
X005175Y010524D01*
X005143Y010446D02*
X006137Y010446D01*
X006191Y010367D02*
X005089Y010367D01*
X005011Y010289D02*
X006269Y010289D01*
X006393Y010210D02*
X004887Y010210D01*
X004393Y010210D02*
X002800Y010210D01*
X002800Y010132D02*
X041850Y010132D01*
X041850Y010053D02*
X002800Y010053D01*
X002800Y009975D02*
X041850Y009975D01*
X041850Y009896D02*
X002800Y009896D01*
X002800Y009818D02*
X041850Y009818D01*
X041850Y009739D02*
X002800Y009739D01*
X002800Y009661D02*
X041850Y009661D01*
X041850Y009582D02*
X002800Y009582D01*
X002800Y009504D02*
X041850Y009504D01*
X041850Y009425D02*
X002800Y009425D01*
X002800Y009347D02*
X041850Y009347D01*
X041850Y009268D02*
X002800Y009268D01*
X002800Y009190D02*
X041850Y009190D01*
X041850Y009111D02*
X002800Y009111D01*
X002800Y009033D02*
X041850Y009033D01*
X041850Y008954D02*
X002800Y008954D01*
X002800Y008876D02*
X041850Y008876D01*
X041850Y008800D02*
X002800Y008800D01*
X002800Y028165D01*
X041850Y028165D01*
X041850Y008800D01*
X037921Y010210D02*
X036414Y010210D01*
X036538Y010289D02*
X037797Y010289D01*
X037718Y010367D02*
X036617Y010367D01*
X036670Y010446D02*
X037665Y010446D01*
X037632Y010524D02*
X036703Y010524D01*
X036735Y010603D02*
X037600Y010603D01*
X037595Y010681D02*
X036740Y010681D01*
X036740Y010760D02*
X037595Y010760D01*
X037595Y010838D02*
X036740Y010838D01*
X036740Y010917D02*
X037595Y010917D01*
X037595Y010995D02*
X036740Y010995D01*
X036740Y011074D02*
X037595Y011074D01*
X037595Y011152D02*
X036740Y011152D01*
X036740Y011231D02*
X037595Y011231D01*
X037595Y011309D02*
X036740Y011309D01*
X036811Y011388D02*
X037524Y011388D01*
X037446Y011466D02*
X036890Y011466D01*
X036968Y011545D02*
X037367Y011545D01*
X037289Y011623D02*
X037047Y011623D01*
X037125Y011702D02*
X037210Y011702D01*
X039261Y013429D02*
X040263Y013429D01*
X040263Y013507D02*
X039334Y013507D01*
X039334Y013586D02*
X040263Y013586D01*
X040248Y013664D02*
X039334Y013664D01*
X039334Y013743D02*
X040169Y013743D01*
X040091Y013821D02*
X039334Y013821D01*
X039334Y013900D02*
X040012Y013900D01*
X039934Y013978D02*
X039334Y013978D01*
X039306Y014057D02*
X039855Y014057D01*
X038118Y015190D02*
X038116Y015190D01*
X038112Y015193D01*
X035029Y014057D02*
X034480Y014057D01*
X034402Y013978D02*
X035001Y013978D01*
X035001Y013900D02*
X034323Y013900D01*
X034245Y013821D02*
X035001Y013821D01*
X035001Y013743D02*
X034166Y013743D01*
X034088Y013664D02*
X035001Y013664D01*
X035001Y013586D02*
X034073Y013586D01*
X034073Y013507D02*
X035001Y013507D01*
X035074Y013429D02*
X034073Y013429D01*
X030420Y013429D02*
X029419Y013429D01*
X029492Y013507D02*
X030420Y013507D01*
X030420Y013586D02*
X029492Y013586D01*
X029492Y013664D02*
X030405Y013664D01*
X030327Y013743D02*
X029492Y013743D01*
X029492Y013821D02*
X030248Y013821D01*
X030170Y013900D02*
X029492Y013900D01*
X029492Y013978D02*
X030091Y013978D01*
X030013Y014057D02*
X029464Y014057D01*
X028723Y013350D02*
X028723Y012167D01*
X028630Y012074D01*
X028563Y012074D01*
X028649Y012038D01*
X028810Y011877D01*
X028898Y011666D01*
X028898Y010614D01*
X028810Y010403D01*
X028649Y010242D01*
X028439Y010155D01*
X028211Y010155D01*
X028001Y010242D01*
X027840Y010403D01*
X027753Y010614D01*
X027753Y011317D01*
X027366Y011703D01*
X027325Y011744D01*
X027284Y011703D01*
X026898Y011317D01*
X026898Y010614D01*
X026810Y010403D01*
X026649Y010242D01*
X026439Y010155D01*
X026211Y010155D01*
X026001Y010242D01*
X025840Y010403D01*
X025753Y010614D01*
X025753Y011666D01*
X025840Y011877D01*
X026001Y012038D01*
X026087Y012074D01*
X026021Y012074D01*
X025927Y012167D01*
X025927Y013350D01*
X025927Y013193D02*
X024230Y013193D01*
X024230Y013115D02*
X025927Y013115D01*
X025927Y013036D02*
X024230Y013036D01*
X024230Y012958D02*
X025927Y012958D01*
X025927Y012879D02*
X024230Y012879D01*
X024230Y012801D02*
X025927Y012801D01*
X025927Y012722D02*
X024230Y012722D01*
X024230Y012644D02*
X025927Y012644D01*
X025927Y012565D02*
X024230Y012565D01*
X024230Y012487D02*
X025927Y012487D01*
X025927Y012408D02*
X024230Y012408D01*
X024230Y012330D02*
X025927Y012330D01*
X025927Y012251D02*
X024230Y012251D01*
X024230Y012173D02*
X025927Y012173D01*
X026000Y012094D02*
X024514Y012094D01*
X024672Y012016D02*
X025978Y012016D01*
X025900Y011937D02*
X024750Y011937D01*
X024818Y011859D02*
X025832Y011859D01*
X025800Y011780D02*
X024850Y011780D01*
X024883Y011702D02*
X025767Y011702D01*
X025753Y011623D02*
X024898Y011623D01*
X024898Y011545D02*
X025753Y011545D01*
X025753Y011466D02*
X024898Y011466D01*
X024898Y011388D02*
X025753Y011388D01*
X025753Y011309D02*
X024898Y011309D01*
X024898Y011231D02*
X025753Y011231D01*
X025753Y011152D02*
X024898Y011152D01*
X024898Y011074D02*
X025753Y011074D01*
X025753Y010995D02*
X024898Y010995D01*
X024898Y010917D02*
X025753Y010917D01*
X025753Y010838D02*
X024898Y010838D01*
X024898Y010760D02*
X025753Y010760D01*
X025753Y010681D02*
X024898Y010681D01*
X024893Y010603D02*
X025757Y010603D01*
X025790Y010524D02*
X024860Y010524D01*
X024828Y010446D02*
X025822Y010446D01*
X025876Y010367D02*
X024774Y010367D01*
X024696Y010289D02*
X025954Y010289D01*
X026078Y010210D02*
X024572Y010210D01*
X024078Y010210D02*
X020729Y010210D01*
X020853Y010289D02*
X023954Y010289D01*
X023876Y010367D02*
X020932Y010367D01*
X020985Y010446D02*
X023822Y010446D01*
X023790Y010524D02*
X021018Y010524D01*
X021050Y010603D02*
X023757Y010603D01*
X023753Y010681D02*
X021055Y010681D01*
X021055Y010760D02*
X023753Y010760D01*
X023753Y010838D02*
X021055Y010838D01*
X021055Y010917D02*
X023753Y010917D01*
X023753Y010995D02*
X021055Y010995D01*
X021055Y011074D02*
X023753Y011074D01*
X023753Y011152D02*
X021055Y011152D01*
X021055Y011231D02*
X023753Y011231D01*
X023753Y011309D02*
X021055Y011309D01*
X021108Y011388D02*
X023700Y011388D01*
X023670Y011466D02*
X021138Y011466D01*
X021138Y011545D02*
X023670Y011545D01*
X023670Y011623D02*
X021138Y011623D01*
X021138Y011702D02*
X023670Y011702D01*
X023670Y011780D02*
X021138Y011780D01*
X021138Y011859D02*
X023670Y011859D01*
X023670Y011937D02*
X021138Y011937D01*
X021138Y012016D02*
X023670Y012016D01*
X023670Y012094D02*
X021138Y012094D01*
X020578Y012173D02*
X018881Y012173D01*
X018881Y012251D02*
X020578Y012251D01*
X020578Y012330D02*
X018881Y012330D01*
X018881Y012408D02*
X020578Y012408D01*
X020578Y012487D02*
X018881Y012487D01*
X018881Y012565D02*
X020578Y012565D01*
X020578Y012644D02*
X018881Y012644D01*
X018881Y012722D02*
X020578Y012722D01*
X020578Y012801D02*
X018881Y012801D01*
X018881Y012879D02*
X020578Y012879D01*
X020578Y012958D02*
X018881Y012958D01*
X018881Y013036D02*
X020578Y013036D01*
X020578Y013115D02*
X018881Y013115D01*
X018881Y013193D02*
X020578Y013193D01*
X020578Y013272D02*
X018881Y013272D01*
X019649Y013743D02*
X020484Y013743D01*
X020406Y013821D02*
X019649Y013821D01*
X019649Y013900D02*
X020327Y013900D01*
X020249Y013978D02*
X019649Y013978D01*
X019621Y014057D02*
X020170Y014057D01*
X018433Y015190D02*
X018431Y015190D01*
X018427Y015193D01*
X016913Y014620D02*
X016913Y014200D01*
X016263Y013550D01*
X015823Y013550D01*
X015723Y013650D01*
X016703Y014630D01*
X016903Y014630D01*
X016913Y014620D01*
X016913Y014606D02*
X016679Y014606D01*
X016600Y014528D02*
X016913Y014528D01*
X016913Y014449D02*
X016522Y014449D01*
X016443Y014371D02*
X016913Y014371D01*
X016913Y014292D02*
X016365Y014292D01*
X016286Y014214D02*
X016913Y014214D01*
X016848Y014135D02*
X016208Y014135D01*
X016129Y014057D02*
X016769Y014057D01*
X016691Y013978D02*
X016051Y013978D01*
X015972Y013900D02*
X016612Y013900D01*
X016534Y013821D02*
X015894Y013821D01*
X015815Y013743D02*
X016455Y013743D01*
X016377Y013664D02*
X015737Y013664D01*
X015787Y013586D02*
X016298Y013586D01*
X016084Y013272D02*
X014388Y013272D01*
X014388Y013350D02*
X015740Y013350D01*
X015389Y013429D02*
X014388Y013429D01*
X014388Y013507D02*
X015316Y013507D01*
X015316Y013586D02*
X014388Y013586D01*
X014403Y013664D02*
X015316Y013664D01*
X015316Y013743D02*
X014481Y013743D01*
X014560Y013821D02*
X015316Y013821D01*
X015316Y013900D02*
X014638Y013900D01*
X014717Y013978D02*
X015316Y013978D01*
X015344Y014057D02*
X014795Y014057D01*
X015881Y014685D02*
X010288Y014685D01*
X010328Y014763D02*
X015960Y014763D01*
X015905Y015234D02*
X015185Y015234D01*
X014199Y015627D02*
X011105Y015627D01*
X011179Y015705D02*
X014121Y015705D01*
X014042Y015784D02*
X011212Y015784D01*
X011228Y015862D02*
X013964Y015862D01*
X013885Y015941D02*
X011235Y015941D01*
X011235Y016019D02*
X013807Y016019D01*
X013728Y016098D02*
X011235Y016098D01*
X011235Y016176D02*
X013650Y016176D01*
X013571Y016255D02*
X011235Y016255D01*
X011235Y016333D02*
X013493Y016333D01*
X013414Y016412D02*
X011235Y016412D01*
X011235Y016490D02*
X013336Y016490D01*
X013257Y016569D02*
X011235Y016569D01*
X011235Y016647D02*
X013179Y016647D01*
X013100Y016726D02*
X011235Y016726D01*
X011235Y016804D02*
X013022Y016804D01*
X012943Y016883D02*
X011235Y016883D01*
X011235Y016961D02*
X012865Y016961D01*
X012786Y017040D02*
X011235Y017040D01*
X011235Y017118D02*
X012708Y017118D01*
X012648Y017197D02*
X011235Y017197D01*
X011235Y017275D02*
X012648Y017275D01*
X012648Y017354D02*
X011235Y017354D01*
X011235Y017432D02*
X012648Y017432D01*
X012648Y017511D02*
X011235Y017511D01*
X011235Y017589D02*
X012648Y017589D01*
X013318Y017589D02*
X013606Y017589D01*
X013606Y017511D02*
X013318Y017511D01*
X013362Y017432D02*
X013606Y017432D01*
X013606Y017354D02*
X013441Y017354D01*
X013519Y017275D02*
X013606Y017275D01*
X013598Y017197D02*
X013610Y017197D01*
X013676Y017118D02*
X013689Y017118D01*
X013755Y017040D02*
X014076Y017040D01*
X014146Y016961D02*
X013833Y016961D01*
X013912Y016883D02*
X014144Y016883D01*
X014152Y016804D02*
X013990Y016804D01*
X014069Y016726D02*
X014185Y016726D01*
X014147Y016647D02*
X014247Y016647D01*
X014226Y016569D02*
X014375Y016569D01*
X014304Y016490D02*
X014757Y016490D01*
X014787Y017040D02*
X014852Y017040D01*
X014733Y017118D02*
X015009Y017118D01*
X015206Y017118D02*
X015413Y017118D01*
X015413Y017197D02*
X014626Y017197D01*
X014463Y017275D02*
X015413Y017275D01*
X015413Y017354D02*
X014384Y017354D01*
X014359Y017432D02*
X015413Y017432D01*
X015413Y017511D02*
X014359Y017511D01*
X014359Y017589D02*
X015059Y017589D01*
X015001Y017668D02*
X014359Y017668D01*
X014301Y017746D02*
X015001Y017746D01*
X015001Y017825D02*
X013318Y017825D01*
X013318Y017903D02*
X015001Y017903D01*
X015001Y017982D02*
X013318Y017982D01*
X013318Y018060D02*
X015001Y018060D01*
X015001Y018139D02*
X013318Y018139D01*
X013318Y018217D02*
X015005Y018217D01*
X015022Y018296D02*
X014627Y018296D01*
X014674Y018374D02*
X015001Y018374D01*
X015001Y018845D02*
X014658Y018845D01*
X015042Y018924D02*
X013318Y018924D01*
X013318Y018845D02*
X013976Y018845D01*
X013960Y018767D02*
X013318Y018767D01*
X013318Y018688D02*
X013960Y018688D01*
X013960Y018610D02*
X013318Y018610D01*
X013318Y018531D02*
X013960Y018531D01*
X013960Y018453D02*
X013318Y018453D01*
X013318Y018374D02*
X013960Y018374D01*
X014007Y018296D02*
X013318Y018296D01*
X013318Y017746D02*
X013664Y017746D01*
X013606Y017668D02*
X013318Y017668D01*
X015363Y017040D02*
X015428Y017040D01*
X015441Y016961D02*
X015453Y016961D01*
X018053Y019081D02*
X020573Y019081D01*
X020495Y019159D02*
X018053Y019159D01*
X018038Y019238D02*
X020416Y019238D01*
X021571Y019319D02*
X021571Y019398D01*
X021674Y019295D01*
X027293Y019295D01*
X027255Y019204D01*
X027255Y019076D01*
X027297Y018976D01*
X026812Y018976D01*
X026718Y018882D01*
X026718Y018317D01*
X026770Y018265D01*
X026763Y018258D01*
X026713Y018307D01*
X026187Y018307D01*
X026138Y018258D01*
X026088Y018307D01*
X025562Y018307D01*
X025513Y018258D01*
X025505Y018265D01*
X025557Y018317D01*
X025557Y018882D01*
X025463Y018976D01*
X024937Y018976D01*
X024843Y018882D01*
X024843Y018810D01*
X024517Y018810D01*
X024517Y018829D01*
X024423Y018923D01*
X023897Y018923D01*
X023803Y018829D01*
X023803Y018342D01*
X023897Y018249D01*
X024423Y018249D01*
X024517Y018342D01*
X024517Y018390D01*
X024843Y018390D01*
X024843Y018317D01*
X024895Y018265D01*
X024843Y018213D01*
X024843Y017648D01*
X024937Y017554D01*
X025255Y017554D01*
X025255Y017076D01*
X025295Y016980D01*
X025295Y016950D01*
X025182Y017063D01*
X025032Y017125D01*
X024868Y017125D01*
X024718Y017063D01*
X024648Y016993D01*
X024612Y017082D01*
X024517Y017177D01*
X024392Y017228D01*
X024352Y017228D01*
X024202Y017379D01*
X024202Y017688D01*
X024108Y017781D01*
X023542Y017781D01*
X023449Y017688D01*
X023449Y017314D01*
X023330Y017432D01*
X023330Y017442D01*
X021571Y019319D01*
X021573Y019316D02*
X021653Y019316D01*
X021647Y019238D02*
X027269Y019238D01*
X027255Y019159D02*
X021720Y019159D01*
X021794Y019081D02*
X027255Y019081D01*
X027286Y019002D02*
X021867Y019002D01*
X021941Y018924D02*
X024884Y018924D01*
X024843Y018845D02*
X024501Y018845D01*
X024517Y018374D02*
X024843Y018374D01*
X024864Y018296D02*
X024470Y018296D01*
X024847Y018217D02*
X022603Y018217D01*
X022530Y018296D02*
X023850Y018296D01*
X023803Y018374D02*
X022456Y018374D01*
X022383Y018453D02*
X023803Y018453D01*
X023803Y018531D02*
X022309Y018531D01*
X022235Y018610D02*
X023803Y018610D01*
X023803Y018688D02*
X022162Y018688D01*
X022088Y018767D02*
X023803Y018767D01*
X023819Y018845D02*
X022015Y018845D01*
X021574Y019395D02*
X021571Y019395D01*
X022677Y018139D02*
X024843Y018139D01*
X024843Y018060D02*
X022750Y018060D01*
X022824Y017982D02*
X024843Y017982D01*
X024843Y017903D02*
X022898Y017903D01*
X022971Y017825D02*
X024843Y017825D01*
X024843Y017746D02*
X024143Y017746D01*
X024202Y017668D02*
X024843Y017668D01*
X024902Y017589D02*
X024202Y017589D01*
X024202Y017511D02*
X025255Y017511D01*
X025255Y017432D02*
X024202Y017432D01*
X024227Y017354D02*
X025255Y017354D01*
X025255Y017275D02*
X024305Y017275D01*
X024469Y017197D02*
X025255Y017197D01*
X025255Y017118D02*
X025048Y017118D01*
X025205Y017040D02*
X025270Y017040D01*
X025284Y016961D02*
X025295Y016961D01*
X024852Y017118D02*
X024575Y017118D01*
X024629Y017040D02*
X024695Y017040D01*
X023507Y017746D02*
X023045Y017746D01*
X023118Y017668D02*
X023449Y017668D01*
X023449Y017589D02*
X023192Y017589D01*
X023266Y017511D02*
X023449Y017511D01*
X023449Y017432D02*
X023330Y017432D01*
X023408Y017354D02*
X023449Y017354D01*
X024257Y016055D02*
X024287Y016055D01*
X024777Y016055D01*
X024737Y015957D01*
X024737Y015823D01*
X024788Y015698D01*
X024884Y015603D01*
X025008Y015552D01*
X025142Y015552D01*
X025267Y015603D01*
X025343Y015680D01*
X025363Y015680D01*
X025666Y015377D01*
X025890Y015377D01*
X025738Y015225D01*
X025041Y015225D01*
X024257Y016055D01*
X024291Y016019D02*
X024763Y016019D01*
X024737Y015941D02*
X024365Y015941D01*
X024439Y015862D02*
X024737Y015862D01*
X024753Y015784D02*
X024513Y015784D01*
X024587Y015705D02*
X024786Y015705D01*
X024860Y015627D02*
X024661Y015627D01*
X024735Y015548D02*
X025495Y015548D01*
X025417Y015627D02*
X025290Y015627D01*
X025574Y015470D02*
X024810Y015470D01*
X024884Y015391D02*
X025652Y015391D01*
X025747Y015234D02*
X025032Y015234D01*
X024958Y015313D02*
X025826Y015313D01*
X025187Y014057D02*
X024638Y014057D01*
X024559Y013978D02*
X025158Y013978D01*
X025158Y013900D02*
X024481Y013900D01*
X024402Y013821D02*
X025158Y013821D01*
X025158Y013743D02*
X024324Y013743D01*
X024245Y013664D02*
X025158Y013664D01*
X025158Y013586D02*
X024230Y013586D01*
X024230Y013507D02*
X025158Y013507D01*
X025232Y013429D02*
X024230Y013429D01*
X027047Y011466D02*
X027603Y011466D01*
X027525Y011545D02*
X027126Y011545D01*
X027204Y011623D02*
X027446Y011623D01*
X027368Y011702D02*
X027283Y011702D01*
X026969Y011388D02*
X027682Y011388D01*
X027753Y011309D02*
X026898Y011309D01*
X026898Y011231D02*
X027753Y011231D01*
X027753Y011152D02*
X026898Y011152D01*
X026898Y011074D02*
X027753Y011074D01*
X027753Y010995D02*
X026898Y010995D01*
X026898Y010917D02*
X027753Y010917D01*
X027753Y010838D02*
X026898Y010838D01*
X026898Y010760D02*
X027753Y010760D01*
X027753Y010681D02*
X026898Y010681D01*
X026893Y010603D02*
X027757Y010603D01*
X027790Y010524D02*
X026860Y010524D01*
X026828Y010446D02*
X027822Y010446D01*
X027876Y010367D02*
X026774Y010367D01*
X026696Y010289D02*
X027954Y010289D01*
X028078Y010210D02*
X026572Y010210D01*
X028572Y010210D02*
X030078Y010210D01*
X029954Y010289D02*
X028696Y010289D01*
X028774Y010367D02*
X029876Y010367D01*
X029822Y010446D02*
X028828Y010446D01*
X028860Y010524D02*
X029790Y010524D01*
X029757Y010603D02*
X028893Y010603D01*
X028898Y010681D02*
X029753Y010681D01*
X029753Y010760D02*
X028898Y010760D01*
X028898Y010838D02*
X029753Y010838D01*
X029753Y010917D02*
X028898Y010917D01*
X028898Y010995D02*
X029753Y010995D01*
X029753Y011074D02*
X028898Y011074D01*
X028898Y011152D02*
X029753Y011152D01*
X029753Y011231D02*
X028898Y011231D01*
X028898Y011309D02*
X029753Y011309D01*
X029753Y011388D02*
X028898Y011388D01*
X028898Y011466D02*
X029753Y011466D01*
X029753Y011545D02*
X028898Y011545D01*
X028898Y011623D02*
X029753Y011623D01*
X029767Y011702D02*
X028883Y011702D01*
X028850Y011780D02*
X029800Y011780D01*
X029832Y011859D02*
X028818Y011859D01*
X028750Y011937D02*
X029900Y011937D01*
X029978Y012016D02*
X028672Y012016D01*
X028650Y012094D02*
X030136Y012094D01*
X030420Y012173D02*
X028723Y012173D01*
X028723Y012251D02*
X030420Y012251D01*
X030420Y012330D02*
X028723Y012330D01*
X028723Y012408D02*
X030420Y012408D01*
X030420Y012487D02*
X028723Y012487D01*
X028723Y012565D02*
X030420Y012565D01*
X030420Y012644D02*
X028723Y012644D01*
X028723Y012722D02*
X030420Y012722D01*
X030420Y012801D02*
X028723Y012801D01*
X028723Y012879D02*
X030420Y012879D01*
X030420Y012958D02*
X028723Y012958D01*
X028723Y013036D02*
X030420Y013036D01*
X030420Y013115D02*
X028723Y013115D01*
X028723Y013193D02*
X030420Y013193D01*
X030725Y016961D02*
X031240Y016961D01*
X031137Y017040D02*
X030768Y017040D01*
X030820Y017118D02*
X031085Y017118D01*
X031052Y017197D02*
X030853Y017197D01*
X030853Y017275D02*
X031052Y017275D01*
X031004Y017354D02*
X030844Y017354D01*
X030812Y017432D02*
X030926Y017432D01*
X030847Y017511D02*
X030748Y017511D01*
X031152Y018374D02*
X031178Y018374D01*
X031195Y018924D02*
X031111Y018924D01*
X029854Y018924D02*
X029266Y018924D01*
X029307Y018845D02*
X029813Y018845D01*
X029813Y018767D02*
X029307Y018767D01*
X029307Y018688D02*
X029813Y018688D01*
X029813Y018610D02*
X029307Y018610D01*
X029307Y018531D02*
X029813Y018531D01*
X029813Y018453D02*
X029307Y018453D01*
X029307Y018374D02*
X029813Y018374D01*
X029301Y018296D02*
X029286Y018296D01*
X026739Y018296D02*
X026725Y018296D01*
X026718Y018374D02*
X025557Y018374D01*
X025557Y018453D02*
X026718Y018453D01*
X026718Y018531D02*
X025557Y018531D01*
X025557Y018610D02*
X026718Y018610D01*
X026718Y018688D02*
X025557Y018688D01*
X025557Y018767D02*
X026718Y018767D01*
X026718Y018845D02*
X025557Y018845D01*
X025516Y018924D02*
X026759Y018924D01*
X026176Y018296D02*
X026100Y018296D01*
X025551Y018296D02*
X025536Y018296D01*
X025593Y020808D02*
X035212Y020808D01*
X035136Y020886D02*
X025623Y020886D01*
X025623Y020965D02*
X035136Y020965D01*
X035136Y021043D02*
X025623Y021043D01*
X025623Y021122D02*
X035136Y021122D01*
X035136Y021200D02*
X025623Y021200D01*
X025623Y021279D02*
X035136Y021279D01*
X035136Y021357D02*
X025623Y021357D01*
X025623Y021436D02*
X035136Y021436D01*
X035136Y021514D02*
X025551Y021514D01*
X025623Y021593D02*
X035136Y021593D01*
X035160Y021671D02*
X025623Y021671D01*
X025623Y021750D02*
X035403Y021750D01*
X035403Y021828D02*
X025623Y021828D01*
X024830Y020886D02*
X024812Y020886D01*
X024782Y020808D02*
X024860Y020808D01*
X023468Y020886D02*
X023364Y020886D01*
X021744Y021750D02*
X021370Y021750D01*
X021370Y021828D02*
X021718Y021828D01*
X021718Y021907D02*
X021370Y021907D01*
X021370Y021985D02*
X021718Y021985D01*
X021718Y022064D02*
X021370Y022064D01*
X021370Y022142D02*
X021718Y022142D01*
X021718Y022221D02*
X021370Y022221D01*
X021370Y022299D02*
X021718Y022299D01*
X021718Y022378D02*
X021370Y022378D01*
X021403Y022456D02*
X021718Y022456D01*
X021718Y022535D02*
X021513Y022535D01*
X021568Y022613D02*
X021718Y022613D01*
X021718Y022692D02*
X021601Y022692D01*
X021603Y022770D02*
X021718Y022770D01*
X021718Y022849D02*
X021596Y022849D01*
X021564Y022927D02*
X021718Y022927D01*
X021718Y023006D02*
X021503Y023006D01*
X021378Y023084D02*
X021718Y023084D01*
X021718Y023163D02*
X020130Y023163D01*
X020130Y023241D02*
X020686Y023241D01*
X020753Y023084D02*
X021152Y023084D01*
X021027Y023006D02*
X020878Y023006D01*
X020939Y022927D02*
X020966Y022927D01*
X021094Y023241D02*
X021718Y023241D01*
X021718Y023320D02*
X021173Y023320D01*
X021208Y023398D02*
X021718Y023398D01*
X021718Y023477D02*
X021228Y023477D01*
X021228Y023555D02*
X021718Y023555D01*
X021718Y023634D02*
X021207Y023634D01*
X021171Y023712D02*
X021718Y023712D01*
X021718Y023791D02*
X021093Y023791D01*
X020687Y023791D02*
X020130Y023791D01*
X020130Y023869D02*
X021718Y023869D01*
X021718Y023948D02*
X020130Y023948D01*
X020130Y024026D02*
X021718Y024026D01*
X021718Y024105D02*
X020130Y024105D01*
X020130Y024183D02*
X021718Y024183D01*
X021718Y024262D02*
X020130Y024262D01*
X020130Y024340D02*
X021718Y024340D01*
X021718Y024419D02*
X020130Y024419D01*
X020130Y024497D02*
X021718Y024497D01*
X021718Y024576D02*
X020130Y024576D01*
X020130Y024654D02*
X021718Y024654D01*
X021718Y024733D02*
X020586Y024733D01*
X020664Y024811D02*
X021718Y024811D01*
X021718Y024890D02*
X020704Y024890D01*
X020728Y024968D02*
X021718Y024968D01*
X021172Y025047D02*
X020728Y025047D01*
X020710Y025125D02*
X021094Y025125D01*
X021015Y025204D02*
X020678Y025204D01*
X020601Y025282D02*
X020937Y025282D01*
X020194Y024733D02*
X020130Y024733D01*
X018735Y026303D02*
X015789Y026303D01*
X015710Y026381D02*
X018361Y026381D01*
X018298Y026460D02*
X018059Y026460D01*
X018121Y026224D02*
X015867Y026224D01*
X015946Y026146D02*
X018057Y026146D01*
X018057Y026067D02*
X016024Y026067D01*
X016103Y025989D02*
X018057Y025989D01*
X018057Y025910D02*
X016181Y025910D01*
X016260Y025832D02*
X018057Y025832D01*
X018057Y025753D02*
X016338Y025753D01*
X015632Y026460D02*
X017471Y026460D01*
X017408Y026538D02*
X015553Y026538D01*
X015475Y026617D02*
X017408Y026617D01*
X017408Y026695D02*
X015396Y026695D01*
X015318Y026774D02*
X017408Y026774D01*
X017408Y026852D02*
X015253Y026852D01*
X015331Y026931D02*
X017408Y026931D01*
X017408Y027009D02*
X015350Y027009D01*
X015350Y027088D02*
X017408Y027088D01*
X017486Y027166D02*
X015350Y027166D01*
X015350Y027245D02*
X019073Y027245D01*
X019050Y027166D02*
X018044Y027166D01*
X018122Y027088D02*
X018337Y027088D01*
X018298Y027009D02*
X018122Y027009D01*
X019151Y027323D02*
X015350Y027323D01*
X015279Y027402D02*
X019230Y027402D01*
X019308Y027480D02*
X015200Y027480D01*
X015122Y027559D02*
X019361Y027559D01*
X019361Y027637D02*
X004582Y027637D01*
X004648Y027559D02*
X013658Y027559D01*
X013580Y027480D02*
X004710Y027480D01*
X004708Y027487D02*
X004708Y027487D01*
X004739Y027402D02*
X013501Y027402D01*
X013430Y027323D02*
X004768Y027323D01*
X004796Y027245D02*
X013430Y027245D01*
X013430Y027166D02*
X004820Y027166D01*
X004820Y027088D02*
X013430Y027088D01*
X013430Y027009D02*
X004820Y027009D01*
X004820Y026931D02*
X013449Y026931D01*
X013527Y026852D02*
X004820Y026852D01*
X004792Y026774D02*
X013606Y026774D01*
X013684Y026695D02*
X004763Y026695D01*
X004735Y026617D02*
X014102Y026617D01*
X014142Y026538D02*
X014181Y026538D01*
X014221Y026460D02*
X014259Y026460D01*
X014299Y026381D02*
X014481Y026381D01*
X014430Y026303D02*
X014350Y026303D01*
X014350Y026224D02*
X014430Y026224D01*
X014430Y026146D02*
X014350Y026146D01*
X014350Y026067D02*
X014430Y026067D01*
X014430Y025989D02*
X014353Y025989D01*
X014431Y025910D02*
X014469Y025910D01*
X014510Y025832D02*
X014548Y025832D01*
X014588Y025753D02*
X014626Y025753D01*
X014667Y025675D02*
X014670Y025675D01*
X014449Y026931D02*
X014411Y026931D01*
X014430Y027009D02*
X014350Y027009D01*
X014350Y027088D02*
X014430Y027088D01*
X014430Y027166D02*
X014350Y027166D01*
X014350Y027245D02*
X014430Y027245D01*
X014430Y027323D02*
X014350Y027323D01*
X014279Y027402D02*
X014501Y027402D01*
X014580Y027480D02*
X014200Y027480D01*
X014122Y027559D02*
X014658Y027559D01*
X018042Y025675D02*
X018057Y025675D01*
X020167Y027166D02*
X020184Y027166D01*
X020846Y027166D02*
X022480Y027166D01*
X022558Y027245D02*
X020872Y027245D01*
X020872Y027323D02*
X022637Y027323D01*
X022680Y027402D02*
X020872Y027402D01*
X020872Y027480D02*
X022680Y027480D01*
X022680Y027559D02*
X020872Y027559D01*
X020872Y027637D02*
X022680Y027637D01*
X022690Y027716D02*
X020872Y027716D01*
X020835Y027794D02*
X022769Y027794D01*
X022847Y027873D02*
X020196Y027873D01*
X019397Y027873D02*
X004265Y027873D01*
X004213Y027902D02*
X004213Y027902D01*
X004401Y027794D02*
X019361Y027794D01*
X019361Y027716D02*
X004516Y027716D01*
X004497Y027738D02*
X004497Y027738D01*
X003937Y027951D02*
X022926Y027951D01*
X023354Y027951D02*
X023926Y027951D01*
X023847Y027873D02*
X023433Y027873D01*
X023511Y027794D02*
X023769Y027794D01*
X023690Y027716D02*
X023590Y027716D01*
X023600Y027637D02*
X023680Y027637D01*
X023680Y027559D02*
X023600Y027559D01*
X023600Y027480D02*
X023680Y027480D01*
X023680Y027402D02*
X023600Y027402D01*
X023599Y027323D02*
X023681Y027323D01*
X023760Y027245D02*
X023520Y027245D01*
X023442Y027166D02*
X023838Y027166D01*
X023917Y027088D02*
X023363Y027088D01*
X023375Y026931D02*
X023905Y026931D01*
X023827Y026852D02*
X023453Y026852D01*
X023532Y026774D02*
X023748Y026774D01*
X023680Y026695D02*
X023600Y026695D01*
X023600Y026617D02*
X023680Y026617D01*
X023680Y026538D02*
X023600Y026538D01*
X023600Y026460D02*
X023680Y026460D01*
X023680Y026381D02*
X023600Y026381D01*
X023578Y026303D02*
X023702Y026303D01*
X023780Y026224D02*
X023500Y026224D01*
X023421Y026146D02*
X023859Y026146D01*
X023881Y026067D02*
X023343Y026067D01*
X023802Y025989D02*
X021853Y025989D01*
X019650Y023320D02*
X018788Y023320D01*
X018892Y023241D02*
X019650Y023241D01*
X019650Y023163D02*
X018945Y023163D01*
X018977Y023084D02*
X019650Y023084D01*
X019650Y023006D02*
X018978Y023006D01*
X018970Y022927D02*
X019650Y022927D01*
X019634Y022849D02*
X018937Y022849D01*
X018873Y022770D02*
X019556Y022770D01*
X019920Y022456D02*
X019978Y022456D01*
X019999Y022535D02*
X020056Y022535D01*
X020077Y022613D02*
X020337Y022613D01*
X020304Y022692D02*
X020119Y022692D01*
X020130Y022770D02*
X020302Y022770D01*
X020309Y022849D02*
X020130Y022849D01*
X020130Y022927D02*
X020341Y022927D01*
X020402Y023006D02*
X020130Y023006D01*
X020130Y023084D02*
X020527Y023084D01*
X019946Y022378D02*
X019880Y022378D01*
X019458Y018296D02*
X019443Y018296D01*
X016084Y013193D02*
X014388Y013193D01*
X014388Y013115D02*
X016084Y013115D01*
X016084Y013036D02*
X014388Y013036D01*
X014388Y012958D02*
X016084Y012958D01*
X016084Y012879D02*
X014388Y012879D01*
X014388Y012801D02*
X016084Y012801D01*
X016084Y012722D02*
X014388Y012722D01*
X014388Y012644D02*
X016084Y012644D01*
X016084Y012565D02*
X014388Y012565D01*
X014388Y012487D02*
X016084Y012487D01*
X016084Y012408D02*
X014388Y012408D01*
X014388Y012330D02*
X016084Y012330D01*
X016084Y012251D02*
X014388Y012251D01*
X014388Y012173D02*
X016084Y012173D01*
X016158Y012094D02*
X014671Y012094D01*
X014829Y012016D02*
X016136Y012016D01*
X016057Y011937D02*
X014908Y011937D01*
X014975Y011859D02*
X015990Y011859D01*
X015957Y011780D02*
X015008Y011780D01*
X015040Y011702D02*
X015925Y011702D01*
X015910Y011623D02*
X015055Y011623D01*
X015055Y011545D02*
X015910Y011545D01*
X015910Y011466D02*
X015055Y011466D01*
X015055Y011388D02*
X015910Y011388D01*
X015910Y011309D02*
X015055Y011309D01*
X015055Y011231D02*
X015910Y011231D01*
X015910Y011152D02*
X015055Y011152D01*
X015055Y011074D02*
X015910Y011074D01*
X015910Y010995D02*
X015055Y010995D01*
X015055Y010917D02*
X015910Y010917D01*
X015910Y010838D02*
X015055Y010838D01*
X015055Y010760D02*
X015910Y010760D01*
X015910Y010681D02*
X015055Y010681D01*
X015050Y010603D02*
X015915Y010603D01*
X015947Y010524D02*
X015018Y010524D01*
X014985Y010446D02*
X015980Y010446D01*
X016033Y010367D02*
X014932Y010367D01*
X014853Y010289D02*
X016112Y010289D01*
X016236Y010210D02*
X014729Y010210D01*
X016729Y010210D02*
X018236Y010210D01*
X018112Y010289D02*
X016853Y010289D01*
X016932Y010367D02*
X018033Y010367D01*
X017980Y010446D02*
X016985Y010446D01*
X017018Y010524D02*
X017947Y010524D01*
X017915Y010603D02*
X017050Y010603D01*
X017055Y010681D02*
X017910Y010681D01*
X017910Y010760D02*
X017055Y010760D01*
X017055Y010838D02*
X017910Y010838D01*
X017910Y010917D02*
X017055Y010917D01*
X017055Y010995D02*
X017910Y010995D01*
X017910Y011074D02*
X017055Y011074D01*
X017055Y011152D02*
X017910Y011152D01*
X017910Y011231D02*
X017055Y011231D01*
X017055Y011309D02*
X017910Y011309D01*
X017839Y011388D02*
X017126Y011388D01*
X017205Y011466D02*
X017761Y011466D01*
X017682Y011545D02*
X017283Y011545D01*
X017362Y011623D02*
X017604Y011623D01*
X017525Y011702D02*
X017440Y011702D01*
X018807Y012094D02*
X020294Y012094D01*
X020136Y012016D02*
X018829Y012016D01*
X018908Y011937D02*
X020057Y011937D01*
X019990Y011859D02*
X018975Y011859D01*
X019008Y011780D02*
X019957Y011780D01*
X019925Y011702D02*
X019040Y011702D01*
X019055Y011623D02*
X019910Y011623D01*
X019910Y011545D02*
X019055Y011545D01*
X019055Y011466D02*
X019910Y011466D01*
X019910Y011388D02*
X019055Y011388D01*
X019055Y011309D02*
X019910Y011309D01*
X019910Y011231D02*
X019055Y011231D01*
X019055Y011152D02*
X019910Y011152D01*
X019910Y011074D02*
X019055Y011074D01*
X019055Y010995D02*
X019910Y010995D01*
X019910Y010917D02*
X019055Y010917D01*
X019055Y010838D02*
X019910Y010838D01*
X019910Y010760D02*
X019055Y010760D01*
X019055Y010681D02*
X019910Y010681D01*
X019915Y010603D02*
X019050Y010603D01*
X019018Y010524D02*
X019947Y010524D01*
X019980Y010446D02*
X018985Y010446D01*
X018932Y010367D02*
X020033Y010367D01*
X020112Y010289D02*
X018853Y010289D01*
X018729Y010210D02*
X020236Y010210D01*
X010735Y013429D02*
X009734Y013429D01*
X009807Y013507D02*
X010735Y013507D01*
X010735Y013586D02*
X009807Y013586D01*
X009807Y013664D02*
X010720Y013664D01*
X010642Y013743D02*
X009807Y013743D01*
X009807Y013821D02*
X010563Y013821D01*
X010485Y013900D02*
X009807Y013900D01*
X009807Y013978D02*
X010406Y013978D01*
X010328Y014057D02*
X009778Y014057D01*
X009341Y013408D02*
X009283Y013350D01*
X007683Y011702D02*
X007597Y011702D01*
X007519Y011623D02*
X007761Y011623D01*
X007840Y011545D02*
X007440Y011545D01*
X007362Y011466D02*
X007918Y011466D01*
X007997Y011388D02*
X007283Y011388D01*
X007212Y011309D02*
X008068Y011309D01*
X008068Y011231D02*
X007212Y011231D01*
X007212Y011152D02*
X008068Y011152D01*
X008068Y011074D02*
X007212Y011074D01*
X007212Y010995D02*
X008068Y010995D01*
X008068Y010917D02*
X007212Y010917D01*
X007212Y010838D02*
X008068Y010838D01*
X008068Y010760D02*
X007212Y010760D01*
X007212Y010681D02*
X008068Y010681D01*
X008072Y010603D02*
X007208Y010603D01*
X007175Y010524D02*
X008105Y010524D01*
X008137Y010446D02*
X007143Y010446D01*
X007089Y010367D02*
X008191Y010367D01*
X008269Y010289D02*
X007011Y010289D01*
X006887Y010210D02*
X008393Y010210D01*
X004269Y010289D02*
X002800Y010289D01*
X002800Y010367D02*
X004191Y010367D01*
X004137Y010446D02*
X002800Y010446D01*
X002800Y010524D02*
X004105Y010524D01*
X004072Y010603D02*
X002800Y010603D01*
X002800Y010681D02*
X004068Y010681D01*
X004068Y010760D02*
X002800Y010760D01*
X002800Y010838D02*
X004068Y010838D01*
X004068Y010917D02*
X002800Y010917D01*
X002800Y010995D02*
X004068Y010995D01*
X004068Y011074D02*
X002800Y011074D01*
X002800Y011152D02*
X004068Y011152D01*
X004068Y011231D02*
X002800Y011231D01*
X002800Y011309D02*
X004068Y011309D01*
X004015Y011388D02*
X002800Y011388D01*
X002800Y011466D02*
X003985Y011466D01*
X003985Y011545D02*
X002800Y011545D01*
X002800Y011623D02*
X003985Y011623D01*
X003985Y011702D02*
X002800Y011702D01*
X002800Y011780D02*
X003985Y011780D01*
X003985Y011859D02*
X002800Y011859D01*
X002800Y011937D02*
X003985Y011937D01*
X003985Y012016D02*
X002800Y012016D01*
X002800Y012094D02*
X003985Y012094D01*
X003985Y012173D02*
X002800Y012173D01*
X002800Y012251D02*
X003985Y012251D01*
X003985Y012330D02*
X002800Y012330D01*
X002800Y012408D02*
X003985Y012408D01*
X003985Y012487D02*
X002800Y012487D01*
X002800Y012565D02*
X003985Y012565D01*
X003985Y012644D02*
X002800Y012644D01*
X002800Y012722D02*
X003985Y012722D01*
X003985Y012801D02*
X002800Y012801D01*
X002800Y012879D02*
X003985Y012879D01*
X003985Y012958D02*
X002800Y012958D01*
X002800Y013036D02*
X003985Y013036D01*
X003985Y013115D02*
X002800Y013115D01*
X002800Y013193D02*
X003985Y013193D01*
X003985Y013272D02*
X002800Y013272D01*
X002800Y013350D02*
X003985Y013350D01*
X003985Y013429D02*
X002800Y013429D01*
X002800Y013507D02*
X003985Y013507D01*
X003985Y013586D02*
X002800Y013586D01*
X002800Y013664D02*
X003985Y013664D01*
X004018Y013900D02*
X002800Y013900D01*
X002800Y013978D02*
X004082Y013978D01*
X004161Y014057D02*
X002800Y014057D01*
X002800Y014135D02*
X004239Y014135D01*
X004318Y014214D02*
X002800Y014214D01*
X002800Y014292D02*
X004396Y014292D01*
X004475Y014371D02*
X002800Y014371D01*
X002800Y014449D02*
X004553Y014449D01*
X004632Y014528D02*
X002800Y014528D01*
X002800Y014606D02*
X004710Y014606D01*
X005063Y014920D02*
X002800Y014920D01*
X002800Y014842D02*
X005140Y014842D01*
X004992Y014999D02*
X002800Y014999D01*
X002800Y015077D02*
X004918Y015077D01*
X004843Y015156D02*
X002800Y015156D01*
X002800Y015234D02*
X004769Y015234D01*
X004695Y015313D02*
X002800Y015313D01*
X002800Y015391D02*
X004621Y015391D01*
X004547Y015470D02*
X002800Y015470D01*
X002800Y015548D02*
X004473Y015548D01*
X004399Y015627D02*
X002800Y015627D01*
X002800Y015705D02*
X004324Y015705D01*
X004250Y015784D02*
X002800Y015784D01*
X002800Y015862D02*
X004176Y015862D01*
X004102Y015941D02*
X002800Y015941D01*
X002800Y016019D02*
X004028Y016019D01*
X003954Y016098D02*
X002800Y016098D01*
X002800Y016176D02*
X003880Y016176D01*
X003805Y016255D02*
X002800Y016255D01*
X002800Y016333D02*
X003731Y016333D01*
X003657Y016412D02*
X002800Y016412D01*
X002800Y016490D02*
X003583Y016490D01*
X003509Y016569D02*
X002800Y016569D01*
X002800Y016647D02*
X003435Y016647D01*
X003361Y016726D02*
X002800Y016726D01*
X002800Y016804D02*
X003287Y016804D01*
X003212Y016883D02*
X002800Y016883D01*
X002800Y016961D02*
X003138Y016961D01*
X003064Y017040D02*
X002800Y017040D01*
X002800Y017118D02*
X002990Y017118D01*
X002928Y017197D02*
X002800Y017197D01*
X002800Y017275D02*
X002930Y017275D01*
X002930Y017354D02*
X002800Y017354D01*
X002800Y017432D02*
X002930Y017432D01*
X002930Y017511D02*
X002800Y017511D01*
X002800Y017589D02*
X002930Y017589D01*
X002930Y017668D02*
X002800Y017668D01*
X002800Y017746D02*
X002930Y017746D01*
X002930Y017825D02*
X002800Y017825D01*
X002800Y017903D02*
X002930Y017903D01*
X002930Y017982D02*
X002800Y017982D01*
X002800Y018060D02*
X002930Y018060D01*
X002930Y018139D02*
X002800Y018139D01*
X002800Y018217D02*
X002930Y018217D01*
X002930Y018296D02*
X002800Y018296D01*
X002800Y018374D02*
X002930Y018374D01*
X002930Y018453D02*
X002800Y018453D01*
X002800Y018531D02*
X002930Y018531D01*
X002930Y018610D02*
X002800Y018610D01*
X002800Y018688D02*
X002930Y018688D01*
X002930Y018767D02*
X002800Y018767D01*
X002800Y018845D02*
X002930Y018845D01*
X002930Y018924D02*
X002800Y018924D01*
X002800Y019002D02*
X002930Y019002D01*
X002930Y019081D02*
X002800Y019081D01*
X002800Y019159D02*
X002930Y019159D01*
X002920Y019238D02*
X002800Y019238D01*
X002800Y019316D02*
X002920Y019316D01*
X002958Y019395D02*
X002800Y019395D01*
X002800Y019473D02*
X003037Y019473D01*
X003115Y019552D02*
X002800Y019552D01*
X002800Y019630D02*
X003194Y019630D01*
X003272Y019709D02*
X002800Y019709D01*
X002800Y019787D02*
X003351Y019787D01*
X003429Y019866D02*
X002800Y019866D01*
X002800Y019944D02*
X003508Y019944D01*
X003586Y020023D02*
X002800Y020023D01*
X002800Y020101D02*
X003665Y020101D01*
X003743Y020180D02*
X002800Y020180D01*
X002800Y020258D02*
X010072Y020258D01*
X010817Y019545D02*
X010728Y019457D01*
X010677Y019332D01*
X010677Y019198D01*
X010728Y019073D01*
X010795Y019007D01*
X010795Y016217D01*
X010698Y016177D01*
X010622Y016100D01*
X010622Y016507D01*
X010528Y016601D01*
X010351Y016601D01*
X010102Y016850D01*
X009647Y016850D01*
X010002Y017205D01*
X010125Y017328D01*
X010125Y017554D01*
X010153Y017554D01*
X010247Y017648D01*
X010247Y018213D01*
X010153Y018307D01*
X009627Y018307D01*
X009578Y018258D01*
X009570Y018265D01*
X009622Y018317D01*
X009622Y018882D01*
X009528Y018976D01*
X009002Y018976D01*
X008952Y018927D01*
X008903Y018976D01*
X008377Y018976D01*
X008327Y018927D01*
X008278Y018976D01*
X008169Y018976D01*
X008210Y019076D01*
X008210Y019204D01*
X008161Y019321D01*
X008071Y019411D01*
X007954Y019460D01*
X007826Y019460D01*
X007709Y019411D01*
X007619Y019321D01*
X007570Y019204D01*
X007570Y019076D01*
X007611Y018976D01*
X007127Y018976D01*
X007033Y018882D01*
X007033Y018317D01*
X007085Y018265D01*
X007077Y018258D01*
X007028Y018307D01*
X006502Y018307D01*
X006453Y018258D01*
X006403Y018307D01*
X005877Y018307D01*
X005828Y018258D01*
X005820Y018265D01*
X005872Y018317D01*
X005872Y018882D01*
X005778Y018976D01*
X005252Y018976D01*
X005158Y018882D01*
X005158Y018810D01*
X004831Y018810D01*
X004831Y018829D01*
X004738Y018923D01*
X004212Y018923D01*
X004118Y018829D01*
X004118Y018342D01*
X004212Y018249D01*
X004738Y018249D01*
X004831Y018342D01*
X004831Y018390D01*
X005158Y018390D01*
X005158Y018317D01*
X005210Y018265D01*
X005158Y018213D01*
X005158Y017648D01*
X005252Y017554D01*
X005570Y017554D01*
X005570Y017076D01*
X005610Y016980D01*
X005610Y016584D01*
X005653Y016481D01*
X005659Y016475D01*
X005480Y016475D01*
X005488Y016483D01*
X005550Y016633D01*
X005550Y016797D01*
X005488Y016947D01*
X005372Y017063D01*
X005222Y017125D01*
X005058Y017125D01*
X004975Y017090D01*
X004927Y017207D01*
X004832Y017302D01*
X004707Y017353D01*
X004613Y017353D01*
X004517Y017450D01*
X004517Y017688D01*
X004423Y017781D01*
X003857Y017781D01*
X003763Y017688D01*
X003763Y017314D01*
X003600Y017477D01*
X003600Y018914D01*
X004231Y019545D01*
X010817Y019545D01*
X010745Y019473D02*
X004159Y019473D01*
X004081Y019395D02*
X007692Y019395D01*
X007617Y019316D02*
X004002Y019316D01*
X003924Y019238D02*
X007584Y019238D01*
X007570Y019159D02*
X003845Y019159D01*
X003767Y019081D02*
X007570Y019081D01*
X007601Y019002D02*
X003688Y019002D01*
X003610Y018924D02*
X005199Y018924D01*
X005158Y018845D02*
X004816Y018845D01*
X004831Y018374D02*
X005158Y018374D01*
X005179Y018296D02*
X004785Y018296D01*
X005162Y018217D02*
X003600Y018217D01*
X003600Y018139D02*
X005158Y018139D01*
X005158Y018060D02*
X003600Y018060D01*
X003600Y017982D02*
X005158Y017982D01*
X005158Y017903D02*
X003600Y017903D01*
X003600Y017825D02*
X005158Y017825D01*
X005158Y017746D02*
X004458Y017746D01*
X004517Y017668D02*
X005158Y017668D01*
X005217Y017589D02*
X004517Y017589D01*
X004517Y017511D02*
X005570Y017511D01*
X005570Y017432D02*
X004534Y017432D01*
X004613Y017354D02*
X005570Y017354D01*
X005570Y017275D02*
X004858Y017275D01*
X004931Y017197D02*
X005570Y017197D01*
X005570Y017118D02*
X005238Y017118D01*
X005395Y017040D02*
X005585Y017040D01*
X005610Y016961D02*
X005474Y016961D01*
X005514Y016883D02*
X005610Y016883D01*
X005610Y016804D02*
X005547Y016804D01*
X005550Y016726D02*
X005610Y016726D01*
X005610Y016647D02*
X005550Y016647D01*
X005523Y016569D02*
X005617Y016569D01*
X005649Y016490D02*
X005491Y016490D01*
X005042Y017118D02*
X004963Y017118D01*
X003763Y017354D02*
X003723Y017354D01*
X003763Y017432D02*
X003645Y017432D01*
X003600Y017511D02*
X003763Y017511D01*
X003763Y017589D02*
X003600Y017589D01*
X003600Y017668D02*
X003763Y017668D01*
X003822Y017746D02*
X003600Y017746D01*
X003600Y018296D02*
X004165Y018296D01*
X004118Y018374D02*
X003600Y018374D01*
X003600Y018453D02*
X004118Y018453D01*
X004118Y018531D02*
X003600Y018531D01*
X003600Y018610D02*
X004118Y018610D01*
X004118Y018688D02*
X003600Y018688D01*
X003600Y018767D02*
X004118Y018767D01*
X004134Y018845D02*
X003600Y018845D01*
X005831Y018924D02*
X007074Y018924D01*
X007033Y018845D02*
X005872Y018845D01*
X005872Y018767D02*
X007033Y018767D01*
X007033Y018688D02*
X005872Y018688D01*
X005872Y018610D02*
X007033Y018610D01*
X007033Y018531D02*
X005872Y018531D01*
X005872Y018453D02*
X007033Y018453D01*
X007033Y018374D02*
X005872Y018374D01*
X005866Y018296D02*
X005851Y018296D01*
X006414Y018296D02*
X006491Y018296D01*
X007039Y018296D02*
X007054Y018296D01*
X008179Y019002D02*
X010795Y019002D01*
X010795Y018924D02*
X009581Y018924D01*
X009622Y018845D02*
X010795Y018845D01*
X010795Y018767D02*
X009622Y018767D01*
X009622Y018688D02*
X010795Y018688D01*
X010795Y018610D02*
X009622Y018610D01*
X009622Y018531D02*
X010795Y018531D01*
X010795Y018453D02*
X009622Y018453D01*
X009622Y018374D02*
X010795Y018374D01*
X010795Y018296D02*
X010164Y018296D01*
X010243Y018217D02*
X010795Y018217D01*
X010795Y018139D02*
X010247Y018139D01*
X010247Y018060D02*
X010795Y018060D01*
X010795Y017982D02*
X010247Y017982D01*
X010247Y017903D02*
X010795Y017903D01*
X010795Y017825D02*
X010247Y017825D01*
X010247Y017746D02*
X010795Y017746D01*
X010795Y017668D02*
X010247Y017668D01*
X010188Y017589D02*
X010795Y017589D01*
X010795Y017511D02*
X010125Y017511D01*
X010125Y017432D02*
X010795Y017432D01*
X010795Y017354D02*
X010125Y017354D01*
X010072Y017275D02*
X010795Y017275D01*
X010795Y017197D02*
X009994Y017197D01*
X009915Y017118D02*
X010795Y017118D01*
X010795Y017040D02*
X009837Y017040D01*
X009758Y016961D02*
X010795Y016961D01*
X010795Y016883D02*
X009680Y016883D01*
X010148Y016804D02*
X010795Y016804D01*
X010795Y016726D02*
X010226Y016726D01*
X010305Y016647D02*
X010795Y016647D01*
X010795Y016569D02*
X010561Y016569D01*
X010622Y016490D02*
X010795Y016490D01*
X010795Y016412D02*
X010622Y016412D01*
X010622Y016333D02*
X010795Y016333D01*
X010795Y016255D02*
X010622Y016255D01*
X010622Y016176D02*
X010698Y016176D01*
X010675Y015627D02*
X010622Y015627D01*
X009616Y018296D02*
X009601Y018296D01*
X010725Y019081D02*
X008210Y019081D01*
X008210Y019159D02*
X010693Y019159D01*
X010677Y019238D02*
X008196Y019238D01*
X008163Y019316D02*
X010677Y019316D01*
X010703Y019395D02*
X008088Y019395D01*
X008030Y020651D02*
X002800Y020651D01*
X002800Y020729D02*
X007994Y020729D01*
X007994Y020808D02*
X002800Y020808D01*
X002800Y020886D02*
X007994Y020886D01*
X007994Y020965D02*
X002800Y020965D01*
X002800Y021043D02*
X007994Y021043D01*
X007994Y021122D02*
X002800Y021122D01*
X002800Y021200D02*
X008059Y021200D01*
X008032Y021357D02*
X007998Y021357D01*
X008721Y021200D02*
X008764Y021200D01*
X008842Y021279D02*
X002800Y021279D01*
X002800Y021357D02*
X007282Y021357D01*
X007244Y021436D02*
X002800Y021436D01*
X002800Y021514D02*
X007244Y021514D01*
X007244Y021593D02*
X002800Y021593D01*
X002800Y021671D02*
X007244Y021671D01*
X007244Y021750D02*
X002800Y021750D01*
X002800Y021828D02*
X007244Y021828D01*
X007307Y021907D02*
X002800Y021907D01*
X002800Y021985D02*
X007428Y021985D01*
X007372Y022064D02*
X002800Y022064D01*
X002800Y022142D02*
X007294Y022142D01*
X007215Y022221D02*
X002800Y022221D01*
X002800Y022299D02*
X007207Y022299D01*
X007207Y022378D02*
X002800Y022378D01*
X002800Y022456D02*
X007207Y022456D01*
X007207Y022535D02*
X002800Y022535D01*
X002800Y022613D02*
X007227Y022613D01*
X007306Y022692D02*
X002800Y022692D01*
X002800Y022770D02*
X007384Y022770D01*
X007463Y022849D02*
X002800Y022849D01*
X002800Y022927D02*
X008280Y022927D01*
X008202Y023006D02*
X002800Y023006D01*
X002800Y023084D02*
X008192Y023084D01*
X008192Y023163D02*
X002800Y023163D01*
X002800Y023241D02*
X008192Y023241D01*
X008192Y023320D02*
X002800Y023320D01*
X002800Y023398D02*
X008209Y023398D01*
X008288Y023477D02*
X002800Y023477D01*
X002800Y023555D02*
X008366Y023555D01*
X008359Y022849D02*
X007833Y022849D01*
X007911Y022770D02*
X008369Y022770D01*
X008290Y022692D02*
X007990Y022692D01*
X008068Y022613D02*
X008212Y022613D01*
X008192Y022535D02*
X008088Y022535D01*
X008088Y022456D02*
X008192Y022456D01*
X008192Y022378D02*
X008088Y022378D01*
X008088Y022299D02*
X008192Y022299D01*
X008199Y022221D02*
X008081Y022221D01*
X008002Y022142D02*
X008278Y022142D01*
X008356Y022064D02*
X007924Y022064D01*
X007868Y021985D02*
X008435Y021985D01*
X008786Y021828D02*
X009262Y021828D01*
X009146Y021750D02*
X008786Y021750D01*
X008786Y021671D02*
X009089Y021671D01*
X009056Y021593D02*
X008786Y021593D01*
X008786Y021514D02*
X009052Y021514D01*
X008999Y021436D02*
X008786Y021436D01*
X008748Y021357D02*
X008921Y021357D01*
X008057Y021907D02*
X007973Y021907D01*
X009073Y022378D02*
X009299Y022378D01*
X009225Y022456D02*
X009073Y022456D01*
X009073Y022535D02*
X009193Y022535D01*
X009177Y022613D02*
X009053Y022613D01*
X008974Y022692D02*
X009152Y022692D01*
X009074Y022770D02*
X008896Y022770D01*
X008906Y022849D02*
X008995Y022849D01*
X004708Y026543D02*
X004708Y026543D01*
X003890Y026071D02*
X003890Y026071D01*
X003567Y026128D02*
X003567Y026128D01*
X003536Y026146D02*
X002800Y026146D01*
X002800Y026224D02*
X003400Y026224D01*
X003283Y026292D02*
X003283Y026292D01*
X003274Y026303D02*
X002800Y026303D01*
X002800Y026381D02*
X003208Y026381D01*
X003142Y026460D02*
X002800Y026460D01*
X002800Y026538D02*
X003076Y026538D01*
X003072Y026543D02*
X003072Y026543D01*
X003045Y026617D02*
X002800Y026617D01*
X002800Y026695D02*
X003017Y026695D01*
X002988Y026774D02*
X002800Y026774D01*
X002800Y026852D02*
X002960Y026852D01*
X002960Y026931D02*
X002800Y026931D01*
X002800Y027009D02*
X002960Y027009D01*
X002960Y027088D02*
X002800Y027088D01*
X002800Y027166D02*
X002960Y027166D01*
X002984Y027245D02*
X002800Y027245D01*
X002800Y027323D02*
X003012Y027323D01*
X003041Y027402D02*
X002800Y027402D01*
X002800Y027480D02*
X003070Y027480D01*
X003072Y027487D02*
X003072Y027487D01*
X003132Y027559D02*
X002800Y027559D01*
X002800Y027637D02*
X003198Y027637D01*
X003264Y027716D02*
X002800Y027716D01*
X002800Y027794D02*
X003379Y027794D01*
X003283Y027738D02*
X003283Y027738D01*
X003515Y027873D02*
X002800Y027873D01*
X002800Y027951D02*
X003843Y027951D01*
X003890Y027959D02*
X003890Y027959D01*
X003567Y027902D02*
X003567Y027902D01*
X002800Y028030D02*
X041850Y028030D01*
X041850Y028108D02*
X002800Y028108D01*
X004572Y016055D02*
X004602Y016055D01*
X005092Y016055D01*
X005052Y015957D01*
X005052Y015823D01*
X005103Y015698D01*
X005198Y015603D01*
X005323Y015552D01*
X005457Y015552D01*
X005582Y015603D01*
X005658Y015680D01*
X005678Y015680D01*
X005981Y015377D01*
X006205Y015377D01*
X006053Y015225D01*
X005356Y015225D01*
X004572Y016055D01*
X004606Y016019D02*
X005077Y016019D01*
X005052Y015941D02*
X004680Y015941D01*
X004754Y015862D02*
X005052Y015862D01*
X005068Y015784D02*
X004828Y015784D01*
X004902Y015705D02*
X005101Y015705D01*
X005175Y015627D02*
X004976Y015627D01*
X005050Y015548D02*
X005810Y015548D01*
X005888Y015470D02*
X005125Y015470D01*
X005199Y015391D02*
X005967Y015391D01*
X006062Y015234D02*
X005347Y015234D01*
X005273Y015313D02*
X006141Y015313D01*
X005731Y015627D02*
X005605Y015627D01*
X006117Y014763D02*
X002800Y014763D01*
X002800Y014685D02*
X006039Y014685D01*
X005502Y014057D02*
X004952Y014057D01*
X004874Y013978D02*
X005473Y013978D01*
X005473Y013900D02*
X004795Y013900D01*
X004717Y013821D02*
X005473Y013821D01*
X005473Y013743D02*
X004638Y013743D01*
X004560Y013664D02*
X005473Y013664D01*
X005473Y013586D02*
X004545Y013586D01*
X004545Y013507D02*
X005473Y013507D01*
X005546Y013429D02*
X004545Y013429D01*
X030102Y023084D02*
X035403Y023084D01*
X035403Y023163D02*
X030238Y023163D01*
X030317Y023241D02*
X035403Y023241D01*
X035403Y023320D02*
X030357Y023320D01*
X030389Y023398D02*
X035403Y023398D01*
X035403Y023634D02*
X034231Y023634D01*
X034309Y023712D02*
X035403Y023712D01*
X035400Y023791D02*
X034380Y023791D01*
X034413Y023869D02*
X035367Y023869D01*
X035335Y023948D02*
X034445Y023948D01*
X034462Y024026D02*
X035318Y024026D01*
X035318Y024105D02*
X034462Y024105D01*
X034462Y024183D02*
X035313Y024183D01*
X035281Y024262D02*
X034462Y024262D01*
X034462Y024340D02*
X035248Y024340D01*
X035230Y024419D02*
X034462Y024419D01*
X034462Y024497D02*
X035230Y024497D01*
X035230Y024576D02*
X034462Y024576D01*
X034462Y024654D02*
X035233Y024654D01*
X035266Y024733D02*
X034462Y024733D01*
X034462Y024811D02*
X035298Y024811D01*
X035318Y024890D02*
X034462Y024890D01*
X034462Y024968D02*
X035318Y024968D01*
X035320Y025047D02*
X034460Y025047D01*
X034428Y025125D02*
X035352Y025125D01*
X035385Y025204D02*
X034395Y025204D01*
X034345Y025282D02*
X035435Y025282D01*
X035513Y025361D02*
X034267Y025361D01*
X034151Y025439D02*
X035629Y025439D01*
X040890Y026071D02*
X040890Y026071D01*
X041213Y026128D02*
X041213Y026128D01*
X041244Y026146D02*
X041850Y026146D01*
X041850Y026224D02*
X041380Y026224D01*
X041497Y026292D02*
X041497Y026292D01*
X041506Y026303D02*
X041850Y026303D01*
X041850Y026381D02*
X041572Y026381D01*
X041638Y026460D02*
X041850Y026460D01*
X041850Y026538D02*
X041704Y026538D01*
X041708Y026543D02*
X041708Y026543D01*
X041735Y026617D02*
X041850Y026617D01*
X041850Y026695D02*
X041763Y026695D01*
X041792Y026774D02*
X041850Y026774D01*
X041850Y026852D02*
X041820Y026852D01*
X041820Y026931D02*
X041850Y026931D01*
X041850Y027009D02*
X041820Y027009D01*
X041820Y027088D02*
X041850Y027088D01*
X041850Y027166D02*
X041820Y027166D01*
X041820Y027179D02*
X041820Y027179D01*
X041796Y027245D02*
X041850Y027245D01*
X041850Y027323D02*
X041768Y027323D01*
X041739Y027402D02*
X041850Y027402D01*
X041850Y027480D02*
X041710Y027480D01*
X041708Y027487D02*
X041708Y027487D01*
X041648Y027559D02*
X041850Y027559D01*
X041850Y027637D02*
X041582Y027637D01*
X041516Y027716D02*
X041850Y027716D01*
X041850Y027794D02*
X041401Y027794D01*
X041497Y027738D02*
X041497Y027738D01*
X041265Y027873D02*
X041850Y027873D01*
X041850Y027951D02*
X040937Y027951D01*
X040890Y027959D02*
X040890Y027959D01*
X041213Y027902D02*
X041213Y027902D01*
X037220Y019395D02*
X032947Y019395D01*
X033025Y019316D02*
X037144Y019316D01*
X037112Y019238D02*
X033104Y019238D01*
X033138Y019159D02*
X037098Y019159D01*
X037098Y019081D02*
X033138Y019081D01*
X033138Y019002D02*
X037128Y019002D01*
X036602Y018924D02*
X035358Y018924D01*
X035399Y018845D02*
X036561Y018845D01*
X036561Y018767D02*
X035399Y018767D01*
X035399Y018688D02*
X036561Y018688D01*
X036561Y018610D02*
X035399Y018610D01*
X035399Y018531D02*
X036561Y018531D01*
X036561Y018453D02*
X035399Y018453D01*
X035399Y018374D02*
X036561Y018374D01*
X036567Y018296D02*
X036582Y018296D01*
X036018Y018296D02*
X035942Y018296D01*
X035393Y018296D02*
X035378Y018296D01*
X034707Y018296D02*
X034312Y018296D01*
X034359Y018374D02*
X034686Y018374D01*
X034690Y018217D02*
X033138Y018217D01*
X033138Y018139D02*
X034686Y018139D01*
X034686Y018060D02*
X033138Y018060D01*
X033138Y017982D02*
X034686Y017982D01*
X034686Y017903D02*
X033138Y017903D01*
X033138Y017825D02*
X034686Y017825D01*
X034686Y017746D02*
X033986Y017746D01*
X034044Y017668D02*
X034686Y017668D01*
X034744Y017589D02*
X034044Y017589D01*
X034044Y017511D02*
X035098Y017511D01*
X035098Y017432D02*
X034044Y017432D01*
X034069Y017354D02*
X035098Y017354D01*
X035098Y017275D02*
X034148Y017275D01*
X034311Y017197D02*
X035098Y017197D01*
X035098Y017118D02*
X034891Y017118D01*
X035048Y017040D02*
X035113Y017040D01*
X035126Y016961D02*
X035138Y016961D01*
X034694Y017118D02*
X034418Y017118D01*
X034472Y017040D02*
X034537Y017040D01*
X033291Y017354D02*
X033251Y017354D01*
X033291Y017432D02*
X033173Y017432D01*
X033138Y017511D02*
X033291Y017511D01*
X033291Y017589D02*
X033138Y017589D01*
X033138Y017668D02*
X033291Y017668D01*
X033349Y017746D02*
X033138Y017746D01*
X033138Y018296D02*
X033692Y018296D01*
X033645Y018374D02*
X033138Y018374D01*
X033138Y018453D02*
X033645Y018453D01*
X033645Y018531D02*
X033138Y018531D01*
X033138Y018610D02*
X033645Y018610D01*
X033645Y018688D02*
X033138Y018688D01*
X033138Y018767D02*
X033645Y018767D01*
X033661Y018845D02*
X033138Y018845D01*
X033138Y018924D02*
X034727Y018924D01*
X034686Y018845D02*
X034343Y018845D01*
D42*
X036063Y021265D02*
X036063Y024515D01*
X035890Y024515D01*
D43*
X036768Y015790D03*
X037168Y015790D03*
X037568Y015790D03*
X037568Y015390D03*
X037568Y014990D03*
X037168Y014990D03*
X037168Y015390D03*
X036768Y015390D03*
X036768Y015015D03*
X027725Y014990D03*
X027325Y014990D03*
X027325Y015390D03*
X026925Y015390D03*
X026925Y015015D03*
X026925Y015790D03*
X027325Y015790D03*
X027725Y015790D03*
X027725Y015390D03*
X017883Y015390D03*
X017883Y014990D03*
X017483Y014990D03*
X017483Y015390D03*
X017483Y015790D03*
X017883Y015790D03*
X017083Y015790D03*
X017083Y015390D03*
X017083Y015015D03*
X008040Y014990D03*
X008040Y015390D03*
X008040Y015790D03*
X007640Y015790D03*
X007640Y015390D03*
X007640Y014990D03*
X007240Y015015D03*
X007240Y015390D03*
X007240Y015790D03*
M02*
